{
.appVersion = "1283";
DisplayStrings = (

glyphs = (
{
glyphname = A;
lastChange = "2020-01-08 04:48:43 +0000";
layers = (
{
anchors = (
{
name = bottom;
position = "{665, 0}";
},
{
name = ogonek;
position = "{1327, 10}";
},
{
name = top;
position = "{885, 1446}";
}
);
background = {
anchors = (
{
name = ogonek;
position = "{1495, 18}";
},
{
name = top;
position = "{793, 1484}";
}
);
paths = (
{
closed = 1;
nodes = (
"393 0 LINE SMOOTH",
"421 0 OFFCURVE",
"435 14 OFFCURVE",
"441 30 CURVE SMOOTH",
"523 266 LINE SMOOTH",
"527 280 OFFCURVE",
"537 288 OFFCURVE",
"553 288 CURVE SMOOTH",
"977 288 LINE SMOOTH",
"997 288 OFFCURVE",
"1001 278 OFFCURVE",
"1007 264 CURVE SMOOTH",
"1085 34 LINE SMOOTH",
"1093 8 OFFCURVE",
"1109 0 OFFCURVE",
"1129 0 CURVE SMOOTH",
"1521 0 LINE SMOOTH",
"1551 0 OFFCURVE",
"1559 40 OFFCURVE",
"1549 68 CURVE SMOOTH",
"1069 1430 LINE SMOOTH",
"1057 1462 OFFCURVE",
"1031 1484 OFFCURVE",
"997 1484 CURVE SMOOTH",
"603 1484 LINE SMOOTH",
"567 1484 OFFCURVE",
"555 1470 OFFCURVE",
"543 1438 CURVE SMOOTH",
"59 74 LINE SMOOTH",
"43 30 OFFCURVE",
"59 0 OFFCURVE",
"89 0 CURVE SMOOTH"
);
},
{
closed = 1;
nodes = (
"625 628 OFFCURVE",
"619 644 OFFCURVE",
"629 670 CURVE SMOOTH",
"751 1010 LINE SMOOTH",
"755 1024 OFFCURVE",
"769 1024 OFFCURVE",
"775 1010 CURVE SMOOTH",
"895 668 LINE SMOOTH",
"903 642 OFFCURVE",
"899 628 OFFCURVE",
"877 628 CURVE SMOOTH",
"649 628 LINE SMOOTH"
);
}
);
};
layerId = "258ED206-D907-4350-8EBA-CBDDA1C16BF7";
paths = (
{
closed = 1;
nodes = (
"343 0 LINE",
"483 280 LINE",
"937 280 LINE",
"989 0 LINE",
"1371 0 LINE",
"1081 1446 LINE",
"687 1446 LINE",
"-43 0 LINE"
);
},
{
closed = 1;
nodes = (
"829 1074 LINE",
"899 612 LINE",
"615 612 LINE"
);
}
);
width = 1474;
},
{
anchors = (
{
name = bottom;
position = "{579, 0}";
},
{
name = ogonek;
position = "{1117, 24}";
},
{
name = top;
position = "{783, 1446}";
}
);
background = {
anchors = (
{
name = ogonek;
position = "{1177, 22}";
},
{
name = top;
position = "{600, 1484}";
}
);
paths = (
{
closed = 1;
nodes = (
"69 0 LINE SMOOTH",
"81 0 OFFCURVE",
"89 4 OFFCURVE",
"91 14 CURVE SMOOTH",
"257 462 LINE SMOOTH",
"261 472 OFFCURVE",
"266 476 OFFCURVE",
"277 476 CURVE SMOOTH",
"921 476 LINE SMOOTH",
"934 476 OFFCURVE",
"937 472 OFFCURVE",
"941 462 CURVE SMOOTH",
"1103 16 LINE SMOOTH",
"1107 4 OFFCURVE",
"1115 0 OFFCURVE",
"1129 0 CURVE SMOOTH",
"1177 0 LINE SMOOTH",
"1191 0 OFFCURVE",
"1197 8 OFFCURVE",
"1193 20 CURVE SMOOTH",
"669 1464 LINE SMOOTH",
"665 1478 OFFCURVE",
"653 1484 OFFCURVE",
"633 1484 CURVE SMOOTH",
"567 1484 LINE SMOOTH",
"549 1484 OFFCURVE",
"541 1478 OFFCURVE",
"535 1462 CURVE SMOOTH",
"5 18 LINE SMOOTH",
"1 6 OFFCURVE",
"7 0 OFFCURVE",
"19 0 CURVE SMOOTH"
);
},
{
closed = 1;
nodes = (
"293 556 OFFCURVE",
"289 558 OFFCURVE",
"295 572 CURVE SMOOTH",
"585 1354 LINE SMOOTH",
"595 1382 OFFCURVE",
"605 1382 OFFCURVE",
"615 1356 CURVE SMOOTH",
"901 576 LINE SMOOTH",
"905 564 OFFCURVE",
"903 556 OFFCURVE",
"887 556 CURVE SMOOTH",
"305 556 LINE SMOOTH"
);
}
);
};
guideLines = (
{
angle = 69.4967;
position = "{-341, 110}";
},
{
angle = 110.0797;
position = "{18, 110}";
}
);
layerId = "91AB5BCA-6A50-42DA-B2F7-8181BF189245";
paths = (
{
closed = 1;
nodes = (
"119 0 LINE",
"339 456 LINE",
"949 456 LINE",
"1037 0 LINE",
"1116 0 LINE",
"834 1446 LINE",
"732 1446 LINE",
"42 0 LINE"
);
},
{
closed = 1;
nodes = (
"774 1362 LINE",
"934 542 LINE",
"377 542 LINE"
);
}
);
width = 1304;
}
);
leftKerningGroup = A;
leftMetricsKey = X;
rightKerningGroup = A;
rightMetricsKey = X;
unicode = 0041;
},
{
glyphname = Aringacute;
lastChange = "2019-06-12 20:13:13 +0000";
layers = (
{
background = {
paths = (
{
closed = 1;
nodes = (
"428 6 LINE",
"528 294 LINE",
"996 294 LINE",
"1094 6 LINE",
"1570 6 LINE",
"1046 1490 LINE",
"556 1490 LINE",
"30 6 LINE"
);
},
{
closed = 1;
nodes = (
"760 1048 LINE",
"906 634 LINE",
"612 634 LINE"
);
},
{
closed = 1;
nodes = (
"922 1386 OFFCURVE",
"1020 1468 OFFCURVE",
"1020 1592 CURVE SMOOTH",
"1020 1712 OFFCURVE",
"922 1798 OFFCURVE",
"800 1798 CURVE SMOOTH",
"680 1798 OFFCURVE",
"580 1714 OFFCURVE",
"580 1596 CURVE SMOOTH",
"580 1470 OFFCURVE",
"678 1386 OFFCURVE",
"800 1386 CURVE SMOOTH"
);
},
{
closed = 1;
nodes = (
"746 1492 OFFCURVE",
"700 1538 OFFCURVE",
"700 1590 CURVE SMOOTH",
"700 1644 OFFCURVE",
"746 1684 OFFCURVE",
"798 1684 CURVE SMOOTH",
"852 1684 OFFCURVE",
"894 1644 OFFCURVE",
"894 1590 CURVE SMOOTH",
"894 1538 OFFCURVE",
"852 1492 OFFCURVE",
"798 1492 CURVE SMOOTH"
);
},
{
closed = 1;
nodes = (
"886 1750 LINE",
"936 1870 LINE SMOOTH",
"948 1898 OFFCURVE",
"940 1928 OFFCURVE",
"908 1928 CURVE SMOOTH",
"818 1928 LINE SMOOTH",
"780 1928 OFFCURVE",
"754 1916 OFFCURVE",
"742 1866 CURVE SMOOTH",
"714 1750 LINE"
);
}
);
};
components = (
{
name = A;
},
{
name = _ringacute;
transform = "{1, 0, 0, 1, 91, 412}";
}
);
layerId = "258ED206-D907-4350-8EBA-CBDDA1C16BF7";
width = 1474;
},
{
background = {
paths = (
{
closed = 1;
nodes = (
"876 1714 OFFCURVE",
"788 1800 OFFCURVE",
"676 1800 CURVE SMOOTH",
"566 1800 OFFCURVE",
"476 1714 OFFCURVE",
"476 1608 CURVE SMOOTH",
"476 1492 OFFCURVE",
"564 1404 OFFCURVE",
"676 1404 CURVE SMOOTH",
"788 1404 OFFCURVE",
"876 1490 OFFCURVE",
"876 1604 CURVE SMOOTH"
);
},
{
closed = 1;
nodes = (
"790 1540 OFFCURVE",
"740 1484 OFFCURVE",
"674 1484 CURVE SMOOTH",
"612 1484 OFFCURVE",
"556 1540 OFFCURVE",
"556 1602 CURVE SMOOTH",
"556 1672 OFFCURVE",
"612 1720 OFFCURVE",
"674 1720 CURVE SMOOTH",
"740 1720 OFFCURVE",
"790 1672 OFFCURVE",
"790 1602 CURVE SMOOTH"
);
},
{
closed = 1;
nodes = (
"628 1484 OFFCURVE",
"620 1478 OFFCURVE",
"614 1462 CURVE SMOOTH",
"120 18 LINE",
"116 8 OFFCURVE",
"122 0 OFFCURVE",
"134 0 CURVE SMOOTH",
"178 0 LINE SMOOTH",
"190 0 OFFCURVE",
"196 4 OFFCURVE",
"200 14 CURVE",
"354 462 LINE SMOOTH",
"358 472 OFFCURVE",
"362 476 OFFCURVE",
"374 476 CURVE SMOOTH",
"966 476 LINE SMOOTH",
"978 476 OFFCURVE",
"982 472 OFFCURVE",
"986 462 CURVE SMOOTH",
"1138 16 LINE SMOOTH",
"1142 4 OFFCURVE",
"1148 0 OFFCURVE",
"1162 0 CURVE SMOOTH",
"1216 0 LINE SMOOTH",
"1230 0 OFFCURVE",
"1236 8 OFFCURVE",
"1232 20 CURVE SMOOTH",
"746 1464 LINE",
"742 1478 OFFCURVE",
"730 1484 OFFCURVE",
"710 1484 CURVE SMOOTH",
"646 1484 LINE SMOOTH"
);
},
{
closed = 1;
nodes = (
"954 564 OFFCURVE",
"952 556 OFFCURVE",
"936 556 CURVE SMOOTH",
"398 556 LINE SMOOTH",
"386 556 OFFCURVE",
"384 558 OFFCURVE",
"390 572 CURVE SMOOTH",
"656 1354 LINE SMOOTH",
"666 1382 OFFCURVE",
"678 1382 OFFCURVE",
"686 1356 CURVE SMOOTH",
"950 576 LINE SMOOTH"
);
},
{
closed = 1;
nodes = (
"696 1928 OFFCURVE",
"686 1920 OFFCURVE",
"682 1902 CURVE SMOOTH",
"646 1750 LINE",
"722 1750 LINE",
"784 1896 LINE SMOOTH",
"792 1916 OFFCURVE",
"786 1928 OFFCURVE",
"764 1928 CURVE SMOOTH",
"718 1928 LINE SMOOTH"
);
}
);
};
components = (
{
name = A;
},
{
name = _ringacute;
transform = "{1, 0, 0, 1, 40, 412}";
}
);
layerId = "91AB5BCA-6A50-42DA-B2F7-8181BF189245";
width = 1304;
}
);
leftKerningGroup = A;
leftMetricsKey = A;
rightKerningGroup = A;
rightMetricsKey = A;
unicode = 01FA;
},
{
glyphname = AE;
lastChange = "2019-07-26 22:30:14 +0000";
layers = (
{
anchors = (
{
name = top;
position = "{1519, 1446}";
}
);
background = {
anchors = (
{
name = top;
position = "{1425, 1484}";
}
);
paths = (
{
closed = 1;
nodes = (
"1477 328 LINE SMOOTH",
"1459 328 OFFCURVE",
"1453 334 OFFCURVE",
"1453 356 CURVE SMOOTH",
"1453 556 LINE SMOOTH",
"1453 572 OFFCURVE",
"1465 584 OFFCURVE",
"1485 584 CURVE SMOOTH",
"1855 584 LINE SMOOTH",
"1881 584 OFFCURVE",
"1891 600 OFFCURVE",
"1891 618 CURVE SMOOTH",
"1891 866 LINE SMOOTH",
"1891 892 OFFCURVE",
"1877 906 OFFCURVE",
"1849 906 CURVE SMOOTH",
"1489 906 LINE SMOOTH",
"1469 906 OFFCURVE",
"1453 920 OFFCURVE",
"1453 948 CURVE SMOOTH",
"1453 1118 LINE SMOOTH",
"1453 1144 OFFCURVE",
"1469 1156 OFFCURVE",
"1499 1156 CURVE SMOOTH",
"2099 1156 LINE SMOOTH",
"2135 1156 OFFCURVE",
"2151 1178 OFFCURVE",
"2151 1210 CURVE SMOOTH",
"2153 1442 LINE SMOOTH",
"2153 1468 OFFCURVE",
"2141 1484 OFFCURVE",
"2117 1484 CURVE SMOOTH",
"819 1484 LINE SMOOTH",
"785 1484 OFFCURVE",
"769 1470 OFFCURVE",
"753 1438 CURVE SMOOTH",
"45 74 LINE SMOOTH",
"21 30 OFFCURVE",
"33 0 OFFCURVE",
"63 0 CURVE SMOOTH",
"367 0 LINE SMOOTH",
"395 0 OFFCURVE",
"411 14 OFFCURVE",
"419 30 CURVE SMOOTH",
"537 266 LINE",
"543 280 OFFCURVE",
"555 288 OFFCURVE",
"571 288 CURVE SMOOTH",
"973 288 LINE SMOOTH",
"993 288 OFFCURVE",
"999 278 OFFCURVE",
"999 260 CURVE SMOOTH",
"999 50 LINE SMOOTH",
"999 16 OFFCURVE",
"1013 0 OFFCURVE",
"1053 0 CURVE SMOOTH",
"2123 0 LINE SMOOTH",
"2157 0 OFFCURVE",
"2171 20 OFFCURVE",
"2171 44 CURVE SMOOTH",
"2171 290 LINE SMOOTH",
"2171 318 OFFCURVE",
"2155 328 OFFCURVE",
"2127 328 CURVE SMOOTH"
);
},
{
closed = 1;
nodes = (
"727 628 LINE SMOOTH",
"703 628 OFFCURVE",
"699 644 OFFCURVE",
"715 670 CURVE",
"919 1074 LINE SMOOTH",
"951 1134 OFFCURVE",
"999 1130 OFFCURVE",
"999 1070 CURVE SMOOTH",
"999 668 LINE SMOOTH",
"999 642 OFFCURVE",
"985 628 OFFCURVE",
"961 628 CURVE SMOOTH"
);
}
);
};
layerId = "258ED206-D907-4350-8EBA-CBDDA1C16BF7";
paths = (
{
closed = 1;
nodes = (
"313 0 LINE",
"491 280 LINE",
"929 280 LINE",
"887 0 LINE",
"2023 0 LINE",
"2071 320 LINE",
"1377 320 LINE",
"1415 570 LINE",
"1980 570 LINE",
"2028 884 LINE",
"1461 884 LINE",
"1499 1128 LINE",
"2175 1128 LINE",
"2225 1446 LINE",
"891 1446 LINE",
"-73 0 LINE"
);
},
{
closed = 1;
nodes = (
"1069 1202 LINE",
"978 612 LINE",
"683 612 LINE"
);
}
);
width = 2189;
},
{
anchors = (
{
name = top;
position = "{1265, 1446}";
}
);
background = {
anchors = (
{
name = top;
position = "{1231, 1484}";
}
);
paths = (
{
closed = 1;
nodes = (
"969 80 LINE SMOOTH",
"955 80 OFFCURVE",
"951 82 OFFCURVE",
"951 98 CURVE SMOOTH",
"951 692 LINE SMOOTH",
"951 708 OFFCURVE",
"955 710 OFFCURVE",
"969 710 CURVE SMOOTH",
"1505 710 LINE SMOOTH",
"1517 710 OFFCURVE",
"1521 712 OFFCURVE",
"1521 724 CURVE SMOOTH",
"1521 776 LINE SMOOTH",
"1521 786 OFFCURVE",
"1517 790 OFFCURVE",
"1507 790 CURVE SMOOTH",
"969 790 LINE SMOOTH",
"955 790 OFFCURVE",
"951 792 OFFCURVE",
"951 804 CURVE SMOOTH",
"951 1386 LINE SMOOTH",
"951 1402 OFFCURVE",
"955 1404 OFFCURVE",
"969 1404 CURVE SMOOTH",
"1645 1404 LINE SMOOTH",
"1657 1404 OFFCURVE",
"1661 1406 OFFCURVE",
"1661 1418 CURVE SMOOTH",
"1661 1470 LINE SMOOTH",
"1661 1480 OFFCURVE",
"1657 1484 OFFCURVE",
"1647 1484 CURVE SMOOTH",
"837 1484 LINE SMOOTH",
"819 1484 OFFCURVE",
"809 1478 OFFCURVE",
"801 1462 CURVE",
"-25 18 LINE SMOOTH",
"-31 8 OFFCURVE",
"-27 0 OFFCURVE",
"-15 0 CURVE SMOOTH",
"35 0 LINE SMOOTH",
"47 0 OFFCURVE",
"53 4 OFFCURVE",
"59 14 CURVE SMOOTH",
"317 462 LINE SMOOTH",
"323 472 OFFCURVE",
"329 476 OFFCURVE",
"341 476 CURVE SMOOTH",
"849 476 LINE SMOOTH",
"855 476 OFFCURVE",
"859 472 OFFCURVE",
"859 466 CURVE SMOOTH",
"859 20 LINE SMOOTH",
"859 4 OFFCURVE",
"863 0 OFFCURVE",
"877 0 CURVE SMOOTH",
"1677 0 LINE SMOOTH",
"1687 0 OFFCURVE",
"1691 4 OFFCURVE",
"1691 14 CURVE SMOOTH",
"1691 66 LINE SMOOTH",
"1691 78 OFFCURVE",
"1687 80 OFFCURVE",
"1675 80 CURVE SMOOTH"
);
},
{
closed = 1;
nodes = (
"379 556 LINE SMOOTH",
"367 556 OFFCURVE",
"365 558 OFFCURVE",
"373 572 CURVE SMOOTH",
"829 1354 LINE SMOOTH",
"845 1382 OFFCURVE",
"857 1382 OFFCURVE",
"859 1356 CURVE",
"859 574 LINE SMOOTH",
"859 564 OFFCURVE",
"855 556 OFFCURVE",
"843 556 CURVE SMOOTH"
);
}
);
};
layerId = "91AB5BCA-6A50-42DA-B2F7-8181BF189245";
paths = (
{
closed = 1;
nodes = (
"3 0 LINE",
"313 464 LINE",
"795 464 LINE",
"728 0 LINE",
"1475 0 LINE",
"1485 78 LINE",
"821 78 LINE",
"907 692 LINE",
"1509 692 LINE",
"1519 770 LINE",
"919 770 LINE",
"1003 1368 LINE",
"1641 1368 LINE",
"1651 1446 LINE",
"889 1446 LINE",
"-73 0 LINE"
);
},
{
closed = 1;
nodes = (
"921 1370 LINE",
"805 542 LINE",
"359 542 LINE"
);
}
);
width = 1688;
}
);
leftKerningGroup = AE;
rightKerningGroup = E;
rightMetricsKey = E;
unicode = 00C6;
},
{
glyphname = B;
lastChange = "2019-06-12 20:13:09 +0000";
layers = (
{
background = {
paths = (
{
closed = 1;
nodes = (
"811 0 LINE SMOOTH",
"1243 0 OFFCURVE",
"1449 130 OFFCURVE",
"1449 404 CURVE SMOOTH",
"1449 574 OFFCURVE",
"1371 676 OFFCURVE",
"1150 758 CURVE SMOOTH",
"1144 760 OFFCURVE",
"1144 770 OFFCURVE",
"1150 772 CURVE SMOOTH",
"1351 864 OFFCURVE",
"1413 954 OFFCURVE",
"1413 1092 CURVE SMOOTH",
"1413 1350 OFFCURVE",
"1192 1484 OFFCURVE",
"779 1484 CURVE SMOOTH",
"183 1484 LINE SMOOTH",
"153 1484 OFFCURVE",
"133 1462 OFFCURVE",
"133 1432 CURVE SMOOTH",
"133 44 LINE SMOOTH",
"133 20 OFFCURVE",
"150 0 OFFCURVE",
"179 0 CURVE SMOOTH"
);
},
{
closed = 1;
nodes = (
"595 300 OFFCURVE",
"587 314 OFFCURVE",
"587 344 CURVE SMOOTH",
"587 554 LINE SMOOTH",
"587 584 OFFCURVE",
"599 596 OFFCURVE",
"633 596 CURVE SMOOTH",
"811 596 LINE SMOOTH",
"911 596 OFFCURVE",
"977 536 OFFCURVE",
"977 454 CURVE SMOOTH",
"977 376 OFFCURVE",
"917 300 OFFCURVE",
"801 300 CURVE SMOOTH",
"621 300 LINE SMOOTH"
);
},
{
closed = 1;
nodes = (
"595 904 OFFCURVE",
"587 918 OFFCURVE",
"587 948 CURVE SMOOTH",
"587 1144 LINE SMOOTH",
"587 1174 OFFCURVE",
"599 1184 OFFCURVE",
"633 1184 CURVE SMOOTH",
"797 1184 LINE SMOOTH",
"891 1184 OFFCURVE",
"965 1128 OFFCURVE",
"965 1040 CURVE SMOOTH",
"965 962 OFFCURVE",
"905 904 OFFCURVE",
"811 904 CURVE SMOOTH",
"621 904 LINE SMOOTH"
);
}
);
};
layerId = "258ED206-D907-4350-8EBA-CBDDA1C16BF7";
rightMetricsKey = "=H/2";
paths = (
{
closed = 1;
nodes = (
"669 0 LINE SMOOTH",
"1085 0 OFFCURVE",
"1265 124 OFFCURVE",
"1307 394 CURVE",
"1323 502 OFFCURVE",
"1335 668 OFFCURVE",
"1093 744 CURVE",
"1283 832 OFFCURVE",
"1354 930 OFFCURVE",
"1375 1064 CURVE SMOOTH",
"1411 1310 OFFCURVE",
"1257 1446 OFFCURVE",
"856 1446 CURVE SMOOTH",
"281 1446 LINE",
"62 0 LINE"
);
},
{
closed = 1;
nodes = (
"539 582 LINE",
"781 582 LINE",
"877 582 OFFCURVE",
"933 522 OFFCURVE",
"921 442 CURVE SMOOTH",
"909 366 OFFCURVE",
"839 292 OFFCURVE",
"727 292 CURVE",
"495 292 LINE"
);
},
{
closed = 1;
nodes = (
"625 1154 LINE",
"852 1154 LINE SMOOTH",
"945 1154 OFFCURVE",
"1009 1100 OFFCURVE",
"995 1014 CURVE SMOOTH",
"982 938 OFFCURVE",
"917 882 OFFCURVE",
"827 882 CURVE SMOOTH",
"583 882 LINE"
);
}
);
width = 1392;
},
{
background = {
paths = (
{
closed = 1;
nodes = (
"543 0 LINE SMOOTH",
"893 0 OFFCURVE",
"1099 130 OFFCURVE",
"1099 394 CURVE SMOOTH",
"1099 594 OFFCURVE",
"981 712 OFFCURVE",
"801 746 CURVE SMOOTH",
"789 748 OFFCURVE",
"789 760 OFFCURVE",
"801 764 CURVE SMOOTH",
"977 818 OFFCURVE",
"1063 934 OFFCURVE",
"1063 1102 CURVE SMOOTH",
"1063 1350 OFFCURVE",
"869 1484 OFFCURVE",
"537 1484 CURVE SMOOTH",
"127 1484 LINE SMOOTH",
"113 1484 OFFCURVE",
"109 1480 OFFCURVE",
"109 1464 CURVE SMOOTH",
"109 16 LINE SMOOTH",
"109 6 OFFCURVE",
"115 0 OFFCURVE",
"125 0 CURVE SMOOTH"
);
},
{
closed = 1;
nodes = (
"205 80 OFFCURVE",
"201 86 OFFCURVE",
"201 100 CURVE SMOOTH",
"201 692 LINE SMOOTH",
"201 706 OFFCURVE",
"207 710 OFFCURVE",
"223 710 CURVE SMOOTH",
"561 710 LINE SMOOTH",
"811 710 OFFCURVE",
"1003 622 OFFCURVE",
"1003 382 CURVE SMOOTH",
"1003 164 OFFCURVE",
"849 80 OFFCURVE",
"533 80 CURVE SMOOTH",
"215 80 LINE SMOOTH"
);
},
{
closed = 1;
nodes = (
"205 790 OFFCURVE",
"201 796 OFFCURVE",
"201 810 CURVE SMOOTH",
"201 1388 LINE SMOOTH",
"201 1400 OFFCURVE",
"207 1404 OFFCURVE",
"219 1404 CURVE SMOOTH",
"529 1404 LINE SMOOTH",
"799 1404 OFFCURVE",
"967 1308 OFFCURVE",
"967 1092 CURVE SMOOTH",
"967 848 OFFCURVE",
"747 790 OFFCURVE",
"561 790 CURVE SMOOTH",
"215 790 LINE SMOOTH"
);
}
);
};
layerId = "91AB5BCA-6A50-42DA-B2F7-8181BF189245";
rightMetricsKey = "=H/1.6";
paths = (
{
closed = 1;
nodes = (
"529 0 LINE",
"843 0 OFFCURVE",
"1042 126 OFFCURVE",
"1078 382 CURVE",
"1106 576 OFFCURVE",
"1020 698 OFFCURVE",
"832 733 CURVE",
"1033 793 OFFCURVE",
"1118 906 OFFCURVE",
"1142 1068 CURVE SMOOTH",
"1176 1312 OFFCURVE",
"1020 1446 OFFCURVE",
"722 1446 CURVE SMOOTH",
"351 1446 LINE",
"147 0 LINE"
);
},
{
closed = 1;
nodes = (
"317 690 LINE",
"643 690 LINE SMOOTH",
"867 690 OFFCURVE",
"1039 610 OFFCURVE",
"1007 378 CURVE SMOOTH",
"977 164 OFFCURVE",
"810 82 OFFCURVE",
"526 82 CURVE",
"231 82 LINE"
);
},
{
closed = 1;
nodes = (
"411 1366 LINE",
"707 1366 LINE SMOOTH",
"951 1366 OFFCURVE",
"1099 1276 OFFCURVE",
"1069 1066 CURVE SMOOTH",
"1037 826 OFFCURVE",
"814 772 OFFCURVE",
"648 772 CURVE SMOOTH",
"327 772 LINE"
);
}
);
width = 1235;
}
);
leftKerningGroup = N;
leftMetricsKey = H;
rightKerningGroup = B;
unicode = 0042;
},
{
glyphname = C;
lastChange = "2019-07-17 19:35:57 +0000";
layers = (
{
anchors = (
{
name = bottom;
position = "{693, 0}";
},
{
name = top;
position = "{911, 1446}";
}
);
background = {
anchors = (
{
name = bottom;
position = "{693, 0}";
},
{
name = top;
position = "{911, 1446}";
}
);
guideLines = (
{
angle = -183.559;
position = "{509, 299}";
}
);
paths = (
{
closed = 1;
nodes = (
"1149 -20 OFFCURVE",
"1313 240 OFFCURVE",
"1399 540 CURVE",
"995 540 LINE",
"953 406 OFFCURVE",
"855 292 OFFCURVE",
"724 292 CURVE SMOOTH",
"605 292 OFFCURVE",
"526 372 OFFCURVE",
"526 574 CURVE SMOOTH",
"526 818 OFFCURVE",
"602 1154 OFFCURVE",
"853 1154 CURVE SMOOTH",
"987 1154 OFFCURVE",
"1054 1070 OFFCURVE",
"1056 936 CURVE",
"1459 936 LINE",
"1459 946 OFFCURVE",
"1460 955 OFFCURVE",
"1460 964 CURVE SMOOTH",
"1460 1261 OFFCURVE",
"1247 1466 OFFCURVE",
"915 1466 CURVE SMOOTH",
"380 1466 OFFCURVE",
"106 1025 OFFCURVE",
"106 593 CURVE SMOOTH",
"106 231 OFFCURVE",
"322 -20 OFFCURVE",
"689 -20 CURVE SMOOTH"
);
}
);
};
guideLines = (
{
angle = -183.559;
position = "{509, 299}";
}
);
layerId = "258ED206-D907-4350-8EBA-CBDDA1C16BF7";
paths = (
{
closed = 1;
nodes = (
"1149 -20 OFFCURVE",
"1313 240 OFFCURVE",
"1399 540 CURVE",
"995 540 LINE",
"953 406 OFFCURVE",
"855 292 OFFCURVE",
"724 292 CURVE SMOOTH",
"605 292 OFFCURVE",
"526 372 OFFCURVE",
"526 574 CURVE SMOOTH",
"526 818 OFFCURVE",
"602 1154 OFFCURVE",
"853 1154 CURVE SMOOTH",
"987 1154 OFFCURVE",
"1054 1070 OFFCURVE",
"1056 936 CURVE",
"1459 936 LINE",
"1459 1272 OFFCURVE",
"1250 1466 OFFCURVE",
"915 1466 CURVE SMOOTH",
"380 1466 OFFCURVE",
"106 1025 OFFCURVE",
"106 593 CURVE SMOOTH",
"106 231 OFFCURVE",
"322 -20 OFFCURVE",
"689 -20 CURVE SMOOTH"
);
}
);
width = 1485;
},
{
anchors = (
{
name = bottom;
position = "{590, 0}";
},
{
name = top;
position = "{779, 1446}";
}
);
background = {
anchors = (
{
name = bottom;
position = "{590, 0}";
},
{
name = top;
position = "{779, 1446}";
}
);
guideLines = (
{
angle = 90;
position = "{704, 342}";
}
);
paths = (
{
closed = 1;
nodes = (
"807 -20 OFFCURVE",
"1039 136 OFFCURVE",
"1087 344 CURVE",
"1012 370 LINE",
"942 176 OFFCURVE",
"780 62 OFFCURVE",
"596 62 CURVE SMOOTH",
"329 62 OFFCURVE",
"212 302 OFFCURVE",
"212 578 CURVE SMOOTH",
"212 949 OFFCURVE",
"425 1384 OFFCURVE",
"775 1384 CURVE SMOOTH",
"1001 1384 OFFCURVE",
"1107 1248 OFFCURVE",
"1115 1060 CURVE",
"1196 1070 LINE",
"1204 1278 OFFCURVE",
"1049 1466 OFFCURVE",
"774 1466 CURVE SMOOTH",
"372 1466 OFFCURVE",
"132 989 OFFCURVE",
"132 576 CURVE SMOOTH",
"132 259 OFFCURVE",
"273 -20 OFFCURVE",
"590 -20 CURVE SMOOTH"
);
}
);
};
guideLines = (
{
angle = 90;
position = "{704, 342}";
}
);
layerId = "91AB5BCA-6A50-42DA-B2F7-8181BF189245";
paths = (
{
closed = 1;
nodes = (
"853 -20 OFFCURVE",
"1060 191 OFFCURVE",
"1112 411 CURVE",
"1030 411 LINE",
"970 223 OFFCURVE",
"822 62 OFFCURVE",
"599 62 CURVE SMOOTH",
"299 62 OFFCURVE",
"177 276 OFFCURVE",
"235 720 CURVE SMOOTH",
"293 1164 OFFCURVE",
"471 1384 OFFCURVE",
"771 1384 CURVE SMOOTH",
"994 1384 OFFCURVE",
"1100 1222 OFFCURVE",
"1111 1034 CURVE",
"1193 1034 LINE",
"1199 1256 OFFCURVE",
"1046 1466 OFFCURVE",
"782 1466 CURVE SMOOTH",
"435 1466 OFFCURVE",
"217 1208 OFFCURVE",
"154 720 CURVE SMOOTH",
"90 232 OFFCURVE",
"242 -20 OFFCURVE",
"589 -20 CURVE SMOOTH"
);
}
);
width = 1252;
}
);
leftKerningGroup = O;
leftMetricsKey = O;
rightKerningGroup = C;
rightMetricsKey = O;
unicode = 0043;
},
{
glyphname = D;
lastChange = "2019-06-12 20:13:09 +0000";
layers = (
{
anchors = (
{
name = bottom;
position = "{527, 0}";
},
{
name = center;
position = "{777, 724}";
},
{
name = top;
position = "{988, 1446}";
}
);
background = {
anchors = (
{
name = bottom;
position = "{527, 0}";
},
{
name = center;
position = "{777, 724}";
},
{
name = top;
position = "{988, 1446}";
}
);
paths = (
{
closed = 1;
nodes = (
"586 0 LINE SMOOTH",
"1096 0 OFFCURVE",
"1367 295 OFFCURVE",
"1430 706 CURVE SMOOTH",
"1437 758 OFFCURVE",
"1441 808 OFFCURVE",
"1441 856 CURVE SMOOTH",
"1441 1196 OFFCURVE",
"1241 1428 OFFCURVE",
"781 1443 CURVE SMOOTH",
"717 1446 OFFCURVE",
"581 1446 OFFCURVE",
"465 1446 CURVE SMOOTH",
"372 1446 OFFCURVE",
"293 1446 OFFCURVE",
"273 1446 CURVE",
"62 0 LINE"
);
},
{
closed = 1;
nodes = (
"623 1140 LINE",
"771 1140 LINE SMOOTH",
"940 1140 OFFCURVE",
"1042 1044 OFFCURVE",
"1042 854 CURVE SMOOTH",
"1042 824 OFFCURVE",
"1039 791 OFFCURVE",
"1034 756 CURVE SMOOTH",
"983 431 OFFCURVE",
"773 306 OFFCURVE",
"626 306 CURVE SMOOTH",
"497 306 LINE"
);
}
);
};
layerId = "258ED206-D907-4350-8EBA-CBDDA1C16BF7";
paths = (
{
closed = 1;
nodes = (
"586 0 LINE SMOOTH",
"1312 0 OFFCURVE",
"1441 585 OFFCURVE",
"1441 856 CURVE SMOOTH",
"1441 1427 OFFCURVE",
"966 1446 OFFCURVE",
"465 1446 CURVE SMOOTH",
"372 1446 OFFCURVE",
"293 1446 OFFCURVE",
"273 1446 CURVE",
"62 0 LINE"
);
},
{
closed = 1;
nodes = (
"623 1140 LINE",
"771 1140 LINE SMOOTH",
"940 1140 OFFCURVE",
"1042 1044 OFFCURVE",
"1042 854 CURVE SMOOTH",
"1042 564 OFFCURVE",
"858 306 OFFCURVE",
"626 306 CURVE SMOOTH",
"497 306 LINE"
);
}
);
width = 1488;
},
{
anchors = (
{
name = bottom;
position = "{502, 0}";
},
{
name = center;
position = "{658, 724}";
},
{
name = top;
position = "{849, 1446}";
}
);
background = {
anchors = (
{
name = bottom;
position = "{502, 0}";
},
{
name = center;
position = "{658, 724}";
},
{
name = top;
position = "{849, 1446}";
}
);
paths = (
{
closed = 1;
nodes = (
"348 0 LINE SMOOTH",
"836 0 OFFCURVE",
"1095 222 OFFCURVE",
"1167 730 CURVE SMOOTH",
"1176 797 OFFCURVE",
"1181 859 OFFCURVE",
"1181 916 CURVE SMOOTH",
"1181 1273 OFFCURVE",
"995 1442 OFFCURVE",
"569 1444 CURVE SMOOTH",
"461 1444 OFFCURVE",
"354 1446 OFFCURVE",
"351 1446 CURVE",
"150 0 LINE"
);
},
{
closed = 1;
nodes = (
"420 1364 LINE",
"544 1364 LINE SMOOTH",
"900 1364 OFFCURVE",
"1103 1259 OFFCURVE",
"1103 904 CURVE SMOOTH",
"1103 851 OFFCURVE",
"1099 794 OFFCURVE",
"1090 730 CURVE SMOOTH",
"1024 256 OFFCURVE",
"779 82 OFFCURVE",
"349 82 CURVE SMOOTH",
"240 82 LINE"
);
}
);
};
layerId = "91AB5BCA-6A50-42DA-B2F7-8181BF189245";
paths = (
{
closed = 1;
nodes = (
"348 0 LINE SMOOTH",
"979 0 OFFCURVE",
"1181 416 OFFCURVE",
"1181 916 CURVE SMOOTH",
"1181 1273 OFFCURVE",
"995 1442 OFFCURVE",
"569 1444 CURVE SMOOTH",
"461 1444 OFFCURVE",
"354 1446 OFFCURVE",
"351 1446 CURVE",
"150 0 LINE"
);
},
{
closed = 1;
nodes = (
"420 1364 LINE",
"544 1364 LINE SMOOTH",
"900 1364 OFFCURVE",
"1103 1259 OFFCURVE",
"1103 904 CURVE SMOOTH",
"1103 423 OFFCURVE",
"912 82 OFFCURVE",
"349 82 CURVE SMOOTH",
"240 82 LINE"
);
}
);
width = 1266;
}
);
leftKerningGroup = N;
leftMetricsKey = H;
rightKerningGroup = D;
rightMetricsKey = "=O";
unicode = 0044;
},
{
glyphname = Eth;
lastChange = "2019-06-12 20:13:09 +0000";
layers = (
{
background = {
components = (
{
name = D;
transform = "{1, 0, 0, 1, 73, 0}";
}
);
paths = (
{
closed = 1;
nodes = (
"926 830 OFFCURVE",
"912 846 OFFCURVE",
"890 846 CURVE SMOOTH",
"168 846 LINE SMOOTH",
"144 846 OFFCURVE",
"130 830 OFFCURVE",
"130 802 CURVE SMOOTH",
"130 620 LINE SMOOTH",
"130 586 OFFCURVE",
"142 572 OFFCURVE",
"182 572 CURVE SMOOTH",
"862 572 LINE SMOOTH",
"906 572 OFFCURVE",
"926 586 OFFCURVE",
"926 626 CURVE SMOOTH",
"926 808 LINE SMOOTH"
);
}
);
};
components = (
{
name = D;
transform = "{1, 0, 0, 1, 146, 0}";
}
);
layerId = "258ED206-D907-4350-8EBA-CBDDA1C16BF7";
paths = (
{
closed = 1;
nodes = (
"938 572 LINE",
"978 846 LINE",
"118 846 LINE",
"78 572 LINE"
);
}
);
width = 1634;
},
{
background = {
components = (
{
name = D;
transform = "{1, 0, 0, 1, 16, 0}";
}
);
paths = (
{
closed = 1;
nodes = (
"703 764 OFFCURVE",
"699 770 OFFCURVE",
"691 770 CURVE SMOOTH",
"119 770 LINE SMOOTH",
"109 770 OFFCURVE",
"106 764 OFFCURVE",
"106 752 CURVE SMOOTH",
"106 708 LINE SMOOTH",
"106 694 OFFCURVE",
"109 688 OFFCURVE",
"125 688 CURVE SMOOTH",
"679 688 LINE SMOOTH",
"697 688 OFFCURVE",
"703 694 OFFCURVE",
"703 710 CURVE SMOOTH",
"703 754 LINE SMOOTH"
);
}
);
};
components = (
{
name = D;
transform = "{1, 0, 0, 1, 31, 0}";
}
);
layerId = "91AB5BCA-6A50-42DA-B2F7-8181BF189245";
paths = (
{
closed = 1;
nodes = (
"703 688 LINE",
"703 770 LINE",
"106 770 LINE",
"106 688 LINE"
);
}
);
width = 1297;
}
);
leftKerningGroup = N;
rightKerningGroup = D;
rightMetricsKey = D;
unicode = 00D0;
},
{
glyphname = E;
lastChange = "2019-10-30 02:34:35 +0000";
layers = (
{
anchors = (
{
name = bottom;
position = "{593, 0}";
},
{
name = ogonek;
position = "{1127, 20}";
},
{
name = top;
position = "{791, 1446}";
}
);
background = {
anchors = (
{
name = bottom;
position = "{697, 0}";
},
{
name = ogonek;
position = "{1245, 20}";
},
{
name = top;
position = "{697, 1484}";
}
);
paths = (
{
closed = 1;
nodes = (
"129 50 LINE SMOOTH",
"129 16 OFFCURVE",
"143 0 OFFCURVE",
"183 0 CURVE SMOOTH",
"1253 0 LINE SMOOTH",
"1287 0 OFFCURVE",
"1301 20 OFFCURVE",
"1301 44 CURVE SMOOTH",
"1301 290 LINE SMOOTH",
"1301 318 OFFCURVE",
"1285 328 OFFCURVE",
"1257 328 CURVE SMOOTH",
"606 328 LINE SMOOTH",
"589 328 OFFCURVE",
"583 334 OFFCURVE",
"583 356 CURVE SMOOTH",
"583 556 LINE SMOOTH",
"583 572 OFFCURVE",
"595 584 OFFCURVE",
"615 584 CURVE SMOOTH",
"984 584 LINE SMOOTH",
"1011 584 OFFCURVE",
"1020 600 OFFCURVE",
"1020 618 CURVE SMOOTH",
"1020 866 LINE SMOOTH",
"1020 892 OFFCURVE",
"1007 906 OFFCURVE",
"978 906 CURVE SMOOTH",
"619 906 LINE SMOOTH",
"599 906 OFFCURVE",
"583 920 OFFCURVE",
"583 948 CURVE SMOOTH",
"583 1118 LINE SMOOTH",
"583 1144 OFFCURVE",
"599 1156 OFFCURVE",
"629 1156 CURVE SMOOTH",
"1228 1156 LINE SMOOTH",
"1265 1156 OFFCURVE",
"1281 1178 OFFCURVE",
"1281 1210 CURVE SMOOTH",
"1283 1442 LINE SMOOTH",
"1283 1468 OFFCURVE",
"1270 1484 OFFCURVE",
"1247 1484 CURVE SMOOTH",
"167 1484 LINE SMOOTH",
"143 1484 OFFCURVE",
"129 1468 OFFCURVE",
"129 1438 CURVE SMOOTH"
);
}
);
};
layerId = "258ED206-D907-4350-8EBA-CBDDA1C16BF7";
paths = (
{
closed = 1;
nodes = (
"1125 0 LINE",
"1175 324 LINE",
"499 324 LINE",
"537 570 LINE",
"1099 570 LINE",
"1146 884 LINE",
"587 884 LINE",
"623 1124 LINE",
"1293 1124 LINE",
"1343 1446 LINE",
"283 1446 LINE",
"62 0 LINE"
);
}
);
width = 1302;
},
{
anchors = (
{
name = bottom;
position = "{551, 0}";
},
{
name = ogonek;
position = "{931, 20}";
},
{
name = top;
position = "{715, 1446}";
}
);
background = {
anchors = (
{
name = bottom;
position = "{715, 0}";
},
{
name = ogonek;
position = "{1085, 20}";
},
{
name = top;
position = "{677, 1484}";
}
);
paths = (
{
closed = 1;
nodes = (
"215 20 LINE SMOOTH",
"215 4 OFFCURVE",
"219 0 OFFCURVE",
"233 0 CURVE SMOOTH",
"1093 0 LINE SMOOTH",
"1103 0 OFFCURVE",
"1107 4 OFFCURVE",
"1107 14 CURVE SMOOTH",
"1107 66 LINE SMOOTH",
"1107 78 OFFCURVE",
"1103 80 OFFCURVE",
"1091 80 CURVE SMOOTH",
"325 80 LINE SMOOTH",
"311 80 OFFCURVE",
"307 82 OFFCURVE",
"307 98 CURVE SMOOTH",
"307 692 LINE SMOOTH",
"307 708 OFFCURVE",
"311 710 OFFCURVE",
"325 710 CURVE SMOOTH",
"901 710 LINE SMOOTH",
"913 710 OFFCURVE",
"917 712 OFFCURVE",
"917 724 CURVE SMOOTH",
"917 776 LINE SMOOTH",
"917 786 OFFCURVE",
"913 790 OFFCURVE",
"903 790 CURVE SMOOTH",
"325 790 LINE SMOOTH",
"311 790 OFFCURVE",
"307 792 OFFCURVE",
"307 804 CURVE SMOOTH",
"307 1386 LINE SMOOTH",
"307 1402 OFFCURVE",
"311 1404 OFFCURVE",
"325 1404 CURVE SMOOTH",
"1061 1404 LINE SMOOTH",
"1073 1404 OFFCURVE",
"1077 1406 OFFCURVE",
"1077 1418 CURVE SMOOTH",
"1077 1470 LINE SMOOTH",
"1077 1480 OFFCURVE",
"1073 1484 OFFCURVE",
"1063 1484 CURVE SMOOTH",
"233 1484 LINE SMOOTH",
"219 1484 OFFCURVE",
"215 1480 OFFCURVE",
"215 1464 CURVE SMOOTH"
);
}
);
};
layerId = "91AB5BCA-6A50-42DA-B2F7-8181BF189245";
rightMetricsKey = "=140";
paths = (
{
closed = 1;
nodes = (
"937 0 LINE",
"949 82 LINE",
"231 84 LINE",
"317 690 LINE",
"961 690 LINE",
"971 772 LINE",
"327 772 LINE",
"411 1366 LINE",
"1103 1366 LINE",
"1115 1446 LINE",
"351 1446 LINE",
"147 0 LINE"
);
}
);
width = 1150;
}
);
leftKerningGroup = N;
leftMetricsKey = H;
rightKerningGroup = E;
rightMetricsKey = "=H/1.5";
unicode = 0045;
},
{
glyphname = F;
lastChange = "2019-06-12 20:13:09 +0000";
layers = (
{
background = {
paths = (
{
closed = 1;
nodes = (
"97 50 LINE SMOOTH",
"97 16 OFFCURVE",
"108 0 OFFCURVE",
"150 0 CURVE",
"484 0 LINE SMOOTH",
"531 0 OFFCURVE",
"551 16 OFFCURVE",
"551 58 CURVE SMOOTH",
"551 542 LINE SMOOTH",
"551 560 OFFCURVE",
"562 572 OFFCURVE",
"583 572 CURVE SMOOTH",
"957 572 LINE SMOOTH",
"984 572 OFFCURVE",
"993 586 OFFCURVE",
"993 606 CURVE SMOOTH",
"993 850 LINE SMOOTH",
"993 876 OFFCURVE",
"980 890 OFFCURVE",
"953 890 CURVE SMOOTH",
"587 890 LINE SMOOTH",
"564 890 OFFCURVE",
"551 902 OFFCURVE",
"551 930 CURVE SMOOTH",
"551 1118 LINE SMOOTH",
"551 1144 OFFCURVE",
"564 1156 OFFCURVE",
"597 1156 CURVE SMOOTH",
"1185 1156 LINE SMOOTH",
"1221 1156 OFFCURVE",
"1234 1178 OFFCURVE",
"1234 1210 CURVE SMOOTH",
"1237 1442 LINE SMOOTH",
"1237 1468 OFFCURVE",
"1225 1484 OFFCURVE",
"1201 1484 CURVE SMOOTH",
"135 1484 LINE SMOOTH",
"113 1484 OFFCURVE",
"97 1468 OFFCURVE",
"97 1438 CURVE SMOOTH"
);
}
);
};
layerId = "258ED206-D907-4350-8EBA-CBDDA1C16BF7";
paths = (
{
closed = 1;
nodes = (
"451 0 LINE",
"535 558 LINE",
"1089 558 LINE",
"1137 868 LINE",
"581 868 LINE",
"621 1128 LINE",
"1285 1128 LINE",
"1335 1446 LINE",
"283 1446 LINE",
"62 0 LINE"
);
}
);
width = 1272;
},
{
background = {
paths = (
{
closed = 1;
nodes = (
"225 20 LINE SMOOTH",
"225 4 OFFCURVE",
"229 0 OFFCURVE",
"243 0 CURVE SMOOTH",
"303 0 LINE SMOOTH",
"313 0 OFFCURVE",
"317 4 OFFCURVE",
"317 14 CURVE SMOOTH",
"317 666 LINE SMOOTH",
"317 682 OFFCURVE",
"321 684 OFFCURVE",
"335 684 CURVE SMOOTH",
"931 684 LINE SMOOTH",
"943 684 OFFCURVE",
"947 686 OFFCURVE",
"947 698 CURVE SMOOTH",
"947 750 LINE SMOOTH",
"947 760 OFFCURVE",
"943 764 OFFCURVE",
"933 764 CURVE SMOOTH",
"335 764 LINE SMOOTH",
"321 764 OFFCURVE",
"317 766 OFFCURVE",
"317 778 CURVE SMOOTH",
"317 1386 LINE SMOOTH",
"317 1402 OFFCURVE",
"321 1404 OFFCURVE",
"335 1404 CURVE SMOOTH",
"1051 1404 LINE SMOOTH",
"1063 1404 OFFCURVE",
"1067 1406 OFFCURVE",
"1067 1418 CURVE SMOOTH",
"1067 1470 LINE SMOOTH",
"1067 1480 OFFCURVE",
"1063 1484 OFFCURVE",
"1053 1484 CURVE SMOOTH",
"243 1484 LINE SMOOTH",
"229 1484 OFFCURVE",
"225 1480 OFFCURVE",
"225 1464 CURVE SMOOTH"
);
}
);
};
layerId = "91AB5BCA-6A50-42DA-B2F7-8181BF189245";
paths = (
{
closed = 1;
nodes = (
"227 0 LINE",
"325 692 LINE",
"951 692 LINE",
"961 774 LINE",
"337 774 LINE",
"419 1366 LINE",
"1093 1366 LINE",
"1103 1446 LINE",
"351 1446 LINE",
"149 0 LINE"
);
}
);
width = 1084;
}
);
leftKerningGroup = N;
leftMetricsKey = H;
rightKerningGroup = F;
rightMetricsKey = "=H/2";
unicode = 0046;
},
{
glyphname = G;
lastChange = "2019-07-17 19:36:15 +0000";
layers = (
{
anchors = (
{
name = bottom;
position = "{687, 0}";
},
{
name = top;
position = "{915, 1446}";
}
);
background = {
anchors = (
{
name = bottom;
position = "{793, 0}";
},
{
name = top;
position = "{793, 1484}";
}
);
paths = (
{
closed = 1;
nodes = (
"1025 -20 OFFCURVE",
"1127 80 OFFCURVE",
"1199 150 CURVE SMOOTH",
"1209 162 OFFCURVE",
"1216 162 OFFCURVE",
"1222 154 CURVE SMOOTH",
"1302 38 LINE SMOOTH",
"1321 10 OFFCURVE",
"1342 0 OFFCURVE",
"1365 0 CURVE SMOOTH",
"1441 0 LINE SMOOTH",
"1461 0 OFFCURVE",
"1476 16 OFFCURVE",
"1476 34 CURVE SMOOTH",
"1476 688 LINE SMOOTH",
"1476 724 OFFCURVE",
"1449 750 OFFCURVE",
"1399 750 CURVE SMOOTH",
"840 754 LINE SMOOTH",
"810 754 OFFCURVE",
"798 740 OFFCURVE",
"798 720 CURVE SMOOTH",
"798 528 LINE SMOOTH",
"798 494 OFFCURVE",
"810 484 OFFCURVE",
"837 484 CURVE SMOOTH",
"1025 484 LINE SMOOTH",
"1045 484 OFFCURVE",
"1052 472 OFFCURVE",
"1043 450 CURVE",
"1037 432 LINE",
"1001 340 OFFCURVE",
"934 292 OFFCURVE",
"821 292 CURVE SMOOTH",
"669 292 OFFCURVE",
"565 386 OFFCURVE",
"565 748 CURVE SMOOTH",
"565 1088 OFFCURVE",
"657 1194 OFFCURVE",
"806 1194 CURVE SMOOTH",
"949 1194 OFFCURVE",
"1019 1094 OFFCURVE",
"1039 984 CURVE SMOOTH",
"1045 958 OFFCURVE",
"1048 944 OFFCURVE",
"1079 944 CURVE SMOOTH",
"1422 996 LINE SMOOTH",
"1453 1000 OFFCURVE",
"1461 1010 OFFCURVE",
"1449 1066 CURVE SMOOTH",
"1401 1280 OFFCURVE",
"1176 1504 OFFCURVE",
"815 1504 CURVE SMOOTH",
"388 1504 OFFCURVE",
"90 1198 OFFCURVE",
"90 736 CURVE SMOOTH",
"90 290 OFFCURVE",
"367 -20 OFFCURVE",
"789 -20 CURVE SMOOTH"
);
}
);
};
layerId = "258ED206-D907-4350-8EBA-CBDDA1C16BF7";
rightMetricsKey = "=O*1.5";
paths = (
{
closed = 1;
nodes = (
"917 -20 OFFCURVE",
"1033 86 OFFCURVE",
"1117 160 CURVE",
"1094 0 LINE",
"1348 0 LINE",
"1464 764 LINE",
"806 768 LINE",
"766 506 LINE",
"1016 506 LINE",
"991 454 LINE",
"961 388 OFFCURVE",
"871 318 OFFCURVE",
"762 318 CURVE SMOOTH",
"638 318 OFFCURVE",
"481 376 OFFCURVE",
"535 730 CURVE SMOOTH",
"583 1042 OFFCURVE",
"727 1144 OFFCURVE",
"871 1144 CURVE SMOOTH",
"1006 1144 OFFCURVE",
"1065 1054 OFFCURVE",
"1073 936 CURVE",
"1477 936 LINE",
"1514 1206 OFFCURVE",
"1315 1466 OFFCURVE",
"930 1466 CURVE SMOOTH",
"516 1466 OFFCURVE",
"182 1168 OFFCURVE",
"113 718 CURVE SMOOTH",
"45 282 OFFCURVE",
"271 -20 OFFCURVE",
"680 -20 CURVE SMOOTH"
);
}
);
width = 1557;
},
{
anchors = (
{
name = bottom;
position = "{570, 0}";
},
{
name = top;
position = "{776, 1446}";
}
);
background = {
anchors = (
{
name = bottom;
position = "{706, 0}";
},
{
name = top;
position = "{696, 1484}";
}
);
paths = (
{
closed = 1;
nodes = (
"916 -20 OFFCURVE",
"1062 90 OFFCURVE",
"1140 230 CURVE SMOOTH",
"1148 244 OFFCURVE",
"1156 242 OFFCURVE",
"1156 230 CURVE SMOOTH",
"1156 18 LINE SMOOTH",
"1156 0 OFFCURVE",
"1166 0 OFFCURVE",
"1182 0 CURVE SMOOTH",
"1216 0 LINE SMOOTH",
"1230 0 OFFCURVE",
"1236 4 OFFCURVE",
"1236 22 CURVE SMOOTH",
"1236 742 LINE SMOOTH",
"1236 750 OFFCURVE",
"1232 754 OFFCURVE",
"1224 754 CURVE SMOOTH",
"752 754 LINE SMOOTH",
"746 754 OFFCURVE",
"742 750 OFFCURVE",
"742 742 CURVE SMOOTH",
"742 696 LINE SMOOTH",
"742 688 OFFCURVE",
"746 684 OFFCURVE",
"757 684 CURVE SMOOTH",
"1134 684 LINE SMOOTH",
"1146 684 OFFCURVE",
"1156 682 OFFCURVE",
"1156 668 CURVE SMOOTH",
"1156 510 LINE SMOOTH",
"1156 322 OFFCURVE",
"1012 64 OFFCURVE",
"696 64 CURVE SMOOTH",
"370 64 OFFCURVE",
"200 306 OFFCURVE",
"200 748 CURVE SMOOTH",
"200 1168 OFFCURVE",
"374 1420 OFFCURVE",
"696 1420 CURVE SMOOTH",
"908 1420 OFFCURVE",
"1078 1280 OFFCURVE",
"1110 1102 CURVE SMOOTH",
"1112 1092 OFFCURVE",
"1118 1088 OFFCURVE",
"1124 1090 CURVE SMOOTH",
"1194 1102 LINE SMOOTH",
"1204 1104 OFFCURVE",
"1204 1110 OFFCURVE",
"1204 1118 CURVE SMOOTH",
"1180 1326 OFFCURVE",
"942 1504 OFFCURVE",
"696 1504 CURVE SMOOTH",
"334 1504 OFFCURVE",
"104 1228 OFFCURVE",
"104 736 CURVE SMOOTH",
"104 258 OFFCURVE",
"324 -20 OFFCURVE",
"694 -20 CURVE SMOOTH"
);
}
);
};
layerId = "91AB5BCA-6A50-42DA-B2F7-8181BF189245";
paths = (
{
closed = 1;
nodes = (
"791 -20 OFFCURVE",
"945 100 OFFCURVE",
"1039 252 CURVE",
"1003 0 LINE",
"1076 0 LINE",
"1179 736 LINE",
"733 736 LINE",
"723 666 LINE",
"1097 666 LINE",
"1073 498 LINE SMOOTH",
"1047 314 OFFCURVE",
"882 58 OFFCURVE",
"596 58 CURVE SMOOTH",
"313 58 OFFCURVE",
"168 276 OFFCURVE",
"230 720 CURVE SMOOTH",
"293 1164 OFFCURVE",
"500 1384 OFFCURVE",
"782 1384 CURVE SMOOTH",
"976 1384 OFFCURVE",
"1109 1216 OFFCURVE",
"1112 1034 CURVE",
"1193 1034 LINE",
"1205 1262 OFFCURVE",
"1017 1466 OFFCURVE",
"794 1466 CURVE SMOOTH",
"456 1466 OFFCURVE",
"222 1202 OFFCURVE",
"154 720 CURVE SMOOTH",
"86 234 OFFCURVE",
"247 -20 OFFCURVE",
"585 -20 CURVE SMOOTH"
);
}
);
width = 1339;
}
);
leftKerningGroup = O;
leftMetricsKey = O;
rightKerningGroup = G;
rightMetricsKey = "=H-30";
unicode = 0047;
},
{
glyphname = H;
lastChange = "2019-07-26 22:40:47 +0000";
layers = (
{
anchors = (
{
name = bottom;
position = "{694, 0}";
},
{
name = top;
position = "{914, 1446}";
}
);
background = {
anchors = (
{
name = bottom;
position = "{794, 0}";
},
{
name = top;
position = "{798, 1484}";
}
);
paths = (
{
closed = 1;
nodes = (
"992 594 OFFCURVE",
"1004 580 OFFCURVE",
"1004 564 CURVE SMOOTH",
"1004 58 LINE SMOOTH",
"1004 16 OFFCURVE",
"1024 0 OFFCURVE",
"1070 0 CURVE SMOOTH",
"1404 0 LINE SMOOTH",
"1446 0 OFFCURVE",
"1458 16 OFFCURVE",
"1458 50 CURVE SMOOTH",
"1458 1438 LINE SMOOTH",
"1458 1468 OFFCURVE",
"1442 1484 OFFCURVE",
"1420 1484 CURVE SMOOTH",
"1040 1484 LINE SMOOTH",
"1018 1484 OFFCURVE",
"1004 1468 OFFCURVE",
"1004 1442 CURVE SMOOTH",
"1004 978 LINE SMOOTH",
"1004 952 OFFCURVE",
"990 938 OFFCURVE",
"967 938 CURVE SMOOTH",
"631 938 LINE SMOOTH",
"610 938 OFFCURVE",
"595 952 OFFCURVE",
"595 978 CURVE SMOOTH",
"595 1442 LINE SMOOTH",
"595 1468 OFFCURVE",
"582 1484 OFFCURVE",
"560 1484 CURVE SMOOTH",
"179 1484 LINE SMOOTH",
"158 1484 OFFCURVE",
"142 1468 OFFCURVE",
"142 1438 CURVE SMOOTH",
"142 50 LINE SMOOTH",
"142 16 OFFCURVE",
"154 0 OFFCURVE",
"196 0 CURVE SMOOTH",
"530 0 LINE SMOOTH",
"576 0 OFFCURVE",
"595 16 OFFCURVE",
"595 58 CURVE SMOOTH",
"595 564 LINE SMOOTH",
"595 580 OFFCURVE",
"608 594 OFFCURVE",
"628 594 CURVE SMOOTH",
"971 594 LINE SMOOTH"
);
}
);
};
layerId = "258ED206-D907-4350-8EBA-CBDDA1C16BF7";
paths = (
{
closed = 1;
nodes = (
"451 0 LINE",
"533 580 LINE",
"1032 580 LINE",
"950 0 LINE",
"1339 0 LINE",
"1543 1446 LINE",
"1154 1446 LINE",
"1077 898 LINE",
"578 898 LINE",
"655 1446 LINE",
"266 1446 LINE",
"62 0 LINE"
);
}
);
width = 1547;
},
{
anchors = (
{
name = bottom;
position = "{656, 0}";
},
{
name = top;
position = "{860, 1446}";
}
);
background = {
anchors = (
{
name = bottom;
position = "{698, 0}";
},
{
name = top;
position = "{698, 1484}";
}
);
paths = (
{
closed = 1;
nodes = (
"1098 732 OFFCURVE",
"1102 728 OFFCURVE",
"1102 718 CURVE SMOOTH",
"1102 18 LINE SMOOTH",
"1102 4 OFFCURVE",
"1108 0 OFFCURVE",
"1122 0 CURVE SMOOTH",
"1176 0 LINE SMOOTH",
"1188 0 OFFCURVE",
"1194 6 OFFCURVE",
"1194 20 CURVE SMOOTH",
"1194 1464 LINE SMOOTH",
"1194 1480 OFFCURVE",
"1190 1484 OFFCURVE",
"1176 1484 CURVE SMOOTH",
"1118 1484 LINE SMOOTH",
"1106 1484 OFFCURVE",
"1102 1478 OFFCURVE",
"1102 1466 CURVE SMOOTH",
"1102 828 LINE SMOOTH",
"1102 816 OFFCURVE",
"1098 812 OFFCURVE",
"1086 812 CURVE SMOOTH",
"310 812 LINE SMOOTH",
"296 812 OFFCURVE",
"292 814 OFFCURVE",
"292 830 CURVE SMOOTH",
"292 1464 LINE SMOOTH",
"292 1480 OFFCURVE",
"288 1484 OFFCURVE",
"274 1484 CURVE SMOOTH",
"218 1484 LINE SMOOTH",
"204 1484 OFFCURVE",
"200 1480 OFFCURVE",
"200 1464 CURVE SMOOTH",
"200 20 LINE SMOOTH",
"200 6 OFFCURVE",
"204 0 OFFCURVE",
"218 0 CURVE SMOOTH",
"272 0 LINE SMOOTH",
"286 0 OFFCURVE",
"292 6 OFFCURVE",
"292 18 CURVE SMOOTH",
"292 720 LINE SMOOTH",
"292 726 OFFCURVE",
"296 732 OFFCURVE",
"304 732 CURVE SMOOTH",
"1088 732 LINE SMOOTH"
);
}
);
};
layerId = "91AB5BCA-6A50-42DA-B2F7-8181BF189245";
paths = (
{
closed = 1;
nodes = (
"220 0 LINE",
"320 712 LINE",
"1179 712 LINE",
"1079 0 LINE",
"1151 0 LINE",
"1354 1446 LINE",
"1282 1446 LINE",
"1191 794 LINE",
"331 794 LINE",
"423 1446 LINE",
"351 1446 LINE",
"148 0 LINE"
);
}
);
width = 1444;
}
);
leftKerningGroup = N;
rightKerningGroup = N;
unicode = 0048;
},
{
glyphname = Hbar;
lastChange = "2019-07-26 22:37:05 +0000";
layers = (
{
background = {
components = (
{
name = H;
transform = "{1, 0, 0, 1, 35, 0}";
}
);
paths = (
{
closed = 1;
nodes = (
"1557 1270 OFFCURVE",
"1545 1284 OFFCURVE",
"1525 1284 CURVE SMOOTH",
"29 1284 LINE SMOOTH",
"11 1284 OFFCURVE",
"-1 1270 OFFCURVE",
"-1 1244 CURVE SMOOTH",
"-1 1126 LINE SMOOTH",
"-1 1096 OFFCURVE",
"9 1082 OFFCURVE",
"41 1082 CURVE SMOOTH",
"1501 1082 LINE SMOOTH",
"1539 1082 OFFCURVE",
"1557 1096 OFFCURVE",
"1557 1130 CURVE SMOOTH",
"1557 1248 LINE SMOOTH"
);
}
);
};
components = (
{
name = H;
transform = "{1, 0, 0, 1, 72, 0}";
}
);
layerId = "258ED206-D907-4350-8EBA-CBDDA1C16BF7";
paths = (
{
closed = 1;
nodes = (
"1717 1082 LINE",
"1747 1284 LINE",
"149 1284 LINE",
"119 1082 LINE"
);
}
);
width = 1679;
},
{
background = {
components = (
{
name = H;
transform = "{1, 0, 0, 1, 20, 0}";
}
);
paths = (
{
closed = 1;
nodes = (
"1416 1200 OFFCURVE",
"1412 1206 OFFCURVE",
"1404 1206 CURVE SMOOTH",
"72 1206 LINE SMOOTH",
"62 1206 OFFCURVE",
"58 1200 OFFCURVE",
"58 1188 CURVE SMOOTH",
"58 1146 LINE SMOOTH",
"58 1132 OFFCURVE",
"62 1128 OFFCURVE",
"78 1128 CURVE SMOOTH",
"1392 1128 LINE SMOOTH",
"1410 1128 OFFCURVE",
"1416 1132 OFFCURVE",
"1416 1148 CURVE SMOOTH",
"1416 1190 LINE SMOOTH"
);
}
);
};
components = (
{
name = H;
transform = "{1, 0, 0, 1, 40, 0}";
}
);
layerId = "91AB5BCA-6A50-42DA-B2F7-8181BF189245";
paths = (
{
closed = 1;
nodes = (
"1556 1128 LINE",
"1568 1206 LINE",
"118 1206 LINE",
"106 1128 LINE"
);
}
);
width = 1491;
}
);
leftKerningGroup = N;
rightKerningGroup = N;
unicode = 0126;
},
{
glyphname = I;
lastChange = "2019-06-12 20:13:09 +0000";
layers = (
{
anchors = (
{
name = bottom;
position = "{277, 0}";
},
{
name = ogonek;
position = "{403, 6}";
},
{
name = top;
position = "{477, 1446}";
}
);
background = {
anchors = (
{
name = bottom;
position = "{379, 0}";
},
{
name = ogonek;
position = "{543, 20}";
},
{
name = top;
position = "{381, 1484}";
}
);
paths = (
{
closed = 1;
nodes = (
"169 1484 OFFCURVE",
"153 1468 OFFCURVE",
"153 1438 CURVE SMOOTH",
"153 50 LINE SMOOTH",
"153 16 OFFCURVE",
"165 0 OFFCURVE",
"207 0 CURVE SMOOTH",
"541 0 LINE SMOOTH",
"587 0 OFFCURVE",
"606 16 OFFCURVE",
"606 58 CURVE SMOOTH",
"606 1442 LINE SMOOTH",
"606 1468 OFFCURVE",
"595 1484 OFFCURVE",
"571 1484 CURVE SMOOTH",
"190 1484 LINE SMOOTH"
);
}
);
};
layerId = "258ED206-D907-4350-8EBA-CBDDA1C16BF7";
paths = (
{
closed = 1;
nodes = (
"451 0 LINE",
"669 1446 LINE",
"281 1446 LINE",
"62 0 LINE"
);
}
);
width = 673;
},
{
anchors = (
{
name = bottom;
position = "{187, 0}";
},
{
name = ogonek;
position = "{213, 20}";
},
{
name = top;
position = "{389, 1446}";
}
);
background = {
anchors = (
{
name = bottom;
position = "{297, 0}";
},
{
name = ogonek;
position = "{321, 20}";
},
{
name = top;
position = "{303, 1484}";
}
);
paths = (
{
closed = 1;
nodes = (
"255 1484 OFFCURVE",
"251 1480 OFFCURVE",
"251 1464 CURVE SMOOTH",
"251 20 LINE SMOOTH",
"251 4 OFFCURVE",
"255 0 OFFCURVE",
"273 0 CURVE SMOOTH",
"319 0 LINE SMOOTH",
"339 0 OFFCURVE",
"343 4 OFFCURVE",
"343 24 CURVE SMOOTH",
"343 1464 LINE SMOOTH",
"343 1480 OFFCURVE",
"339 1484 OFFCURVE",
"325 1484 CURVE SMOOTH",
"269 1484 LINE SMOOTH"
);
}
);
};
layerId = "91AB5BCA-6A50-42DA-B2F7-8181BF189245";
paths = (
{
closed = 1;
nodes = (
"221 0 LINE",
"423 1446 LINE",
"351 1446 LINE",
"149 0 LINE"
);
}
);
width = 514;
}
);
leftKerningGroup = N;
leftMetricsKey = H;
rightKerningGroup = N;
rightMetricsKey = H;
unicode = 0049;
},
{
glyphname = J;
lastChange = "2019-06-12 20:13:09 +0000";
layers = (
{
anchors = (
{
name = top;
position = "{659, 1446}";
}
);
background = {
anchors = (
{
name = top;
position = "{449, 1484}";
}
);
paths = (
{
closed = 1;
nodes = (
"803 1442 LINE SMOOTH",
"803 1468 OFFCURVE",
"791 1484 OFFCURVE",
"767 1484 CURVE SMOOTH",
"389 1484 LINE SMOOTH",
"365 1484 OFFCURVE",
"349 1468 OFFCURVE",
"349 1438 CURVE SMOOTH",
"349 536 LINE SMOOTH",
"349 400 OFFCURVE",
"291 350 OFFCURVE",
"193 350 CURVE SMOOTH",
"149 350 OFFCURVE",
"115 360 OFFCURVE",
"83 364 CURVE SMOOTH",
"51 368 OFFCURVE",
"37 348 OFFCURVE",
"35 318 CURVE SMOOTH",
"17 90 LINE SMOOTH",
"13 34 OFFCURVE",
"33 12 OFFCURVE",
"79 4 CURVE SMOOTH",
"169 -12 OFFCURVE",
"245 -20 OFFCURVE",
"327 -20 CURVE SMOOTH",
"639 -20 OFFCURVE",
"803 96 OFFCURVE",
"803 424 CURVE SMOOTH"
);
}
);
};
layerId = "258ED206-D907-4350-8EBA-CBDDA1C16BF7";
paths = (
{
closed = 1;
nodes = (
"561 -20 OFFCURVE",
"663 138 OFFCURVE",
"711 458 CURVE SMOOTH",
"861 1446 LINE",
"475 1446 LINE",
"339 558 LINE SMOOTH",
"317 408 OFFCURVE",
"273 340 OFFCURVE",
"135 340 CURVE SMOOTH",
"93 340 OFFCURVE",
"45 346 OFFCURVE",
"9 350 CURVE",
"-43 0 LINE",
"15 -12 OFFCURVE",
"133 -20 OFFCURVE",
"215 -20 CURVE SMOOTH"
);
}
);
width = 838;
},
{
anchors = (
{
name = top;
position = "{636, 1446}";
}
);
background = {
anchors = (
{
name = top;
position = "{568, 1484}";
}
);
paths = (
{
closed = 1;
nodes = (
"614 1464 LINE SMOOTH",
"614 1478 OFFCURVE",
"610 1484 OFFCURVE",
"598 1484 CURVE SMOOTH",
"538 1484 LINE SMOOTH",
"526 1484 OFFCURVE",
"522 1478 OFFCURVE",
"522 1466 CURVE SMOOTH",
"522 308 LINE SMOOTH",
"522 122 OFFCURVE",
"478 68 OFFCURVE",
"348 68 CURVE SMOOTH",
"250 68 OFFCURVE",
"206 98 OFFCURVE",
"164 118 CURVE SMOOTH",
"156 122 OFFCURVE",
"150 120 OFFCURVE",
"148 110 CURVE SMOOTH",
"130 48 LINE SMOOTH",
"128 40 OFFCURVE",
"132 34 OFFCURVE",
"138 30 CURVE SMOOTH",
"152 20 OFFCURVE",
"242 -20 OFFCURVE",
"352 -20 CURVE SMOOTH",
"546 -20 OFFCURVE",
"614 98 OFFCURVE",
"614 288 CURVE SMOOTH"
);
}
);
};
layerId = "91AB5BCA-6A50-42DA-B2F7-8181BF189245";
paths = (
{
closed = 1;
nodes = (
"414 -20 OFFCURVE",
"482 96 OFFCURVE",
"508 280 CURVE SMOOTH",
"672 1446 LINE",
"601 1446 LINE",
"440 308 LINE SMOOTH",
"416 126 OFFCURVE",
"366 62 OFFCURVE",
"250 62 CURVE SMOOTH",
"156 62 OFFCURVE",
"116 104 OFFCURVE",
"78 124 CURVE",
"48 38 LINE",
"59 26 OFFCURVE",
"138 -20 OFFCURVE",
"242 -20 CURVE SMOOTH"
);
}
);
width = 717;
}
);
leftKerningGroup = J;
leftMetricsKey = X;
rightKerningGroup = U;
rightMetricsKey = U;
unicode = 004A;
},
{
glyphname = K;
lastChange = "2019-06-12 20:13:09 +0000";
layers = (
{
anchors = (
{
name = bottom;
position = "{644, 0}";
},
{
name = top;
position = "{889, 1446}";
}
);
background = {
anchors = (
{
name = bottom;
position = "{747, 0}";
},
{
name = top;
position = "{747, 1484}";
}
);
paths = (
{
closed = 1;
nodes = (
"1059 960 LINE SMOOTH",
"1047 988 OFFCURVE",
"1049 1002 OFFCURVE",
"1064 1024 CURVE SMOOTH",
"1393 1426 LINE SMOOTH",
"1419 1456 OFFCURVE",
"1394 1484 OFFCURVE",
"1351 1484 CURVE SMOOTH",
"1047 1484 LINE SMOOTH",
"999 1484 OFFCURVE",
"982 1472 OFFCURVE",
"961 1442 CURVE SMOOTH",
"593 926 LINE",
"577 906 OFFCURVE",
"562 904 OFFCURVE",
"562 936 CURVE SMOOTH",
"562 1442 LINE SMOOTH",
"562 1468 OFFCURVE",
"551 1484 OFFCURVE",
"527 1484 CURVE SMOOTH",
"146 1484 LINE SMOOTH",
"125 1484 OFFCURVE",
"108 1468 OFFCURVE",
"108 1438 CURVE SMOOTH",
"108 50 LINE SMOOTH",
"108 16 OFFCURVE",
"121 0 OFFCURVE",
"163 0 CURVE SMOOTH",
"497 0 LINE SMOOTH",
"543 0 OFFCURVE",
"562 16 OFFCURVE",
"562 58 CURVE SMOOTH",
"562 360 LINE SMOOTH",
"562 380 OFFCURVE",
"564 392 OFFCURVE",
"575 404 CURVE SMOOTH",
"717 586 LINE SMOOTH",
"737 612 OFFCURVE",
"749 616 OFFCURVE",
"761 596 CURVE SMOOTH",
"1005 40 LINE SMOOTH",
"1019 10 OFFCURVE",
"1043 0 OFFCURVE",
"1077 0 CURVE SMOOTH",
"1467 0 LINE SMOOTH",
"1507 0 OFFCURVE",
"1511 30 OFFCURVE",
"1495 62 CURVE SMOOTH"
);
}
);
};
guideLines = (
{
angle = 54.4985;
position = "{685, 670}";
},
{
angle = -62.8805;
position = "{372, 283}";
}
);
hints = (
{
horizontal = 1;
origin = "{0, 11}";
target = up;
type = BottomGhost;
},
{
horizontal = 1;
origin = "{0, 10}";
target = down;
type = TopGhost;
},
{
place = "{62, 338}";
type = Stem;
}
);
layerId = "258ED206-D907-4350-8EBA-CBDDA1C16BF7";
paths = (
{
closed = 1;
nodes = (
"465 0 LINE",
"522 378 LINE",
"737 610 LINE",
"965 0 LINE",
"1379 0 LINE",
"1055 894 LINE",
"1535 1446 LINE",
"1101 1446 LINE",
"597 862 LINE",
"685 1446 LINE",
"283 1446 LINE",
"62 0 LINE"
);
}
);
width = 1490;
},
{
anchors = (
{
name = bottom;
position = "{555, 0}";
},
{
name = top;
position = "{791, 1446}";
}
);
background = {
anchors = (
{
name = bottom;
position = "{675, 0}";
},
{
name = top;
position = "{735, 1484}";
}
);
paths = (
{
closed = 1;
nodes = (
"675 890 LINE SMOOTH",
"671 898 OFFCURVE",
"671 898 OFFCURVE",
"675 902 CURVE SMOOTH",
"1193 1468 LINE SMOOTH",
"1201 1476 OFFCURVE",
"1199 1484 OFFCURVE",
"1187 1484 CURVE SMOOTH",
"1111 1484 LINE SMOOTH",
"1099 1484 OFFCURVE",
"1095 1482 OFFCURVE",
"1089 1476 CURVE SMOOTH",
"323 644 LINE SMOOTH",
"313 634 OFFCURVE",
"309 634 OFFCURVE",
"309 646 CURVE SMOOTH",
"309 1468 LINE SMOOTH",
"309 1480 OFFCURVE",
"303 1484 OFFCURVE",
"293 1484 CURVE SMOOTH",
"233 1484 LINE SMOOTH",
"221 1484 OFFCURVE",
"217 1478 OFFCURVE",
"217 1468 CURVE SMOOTH",
"217 18 LINE SMOOTH",
"217 4 OFFCURVE",
"223 0 OFFCURVE",
"237 0 CURVE SMOOTH",
"289 0 LINE SMOOTH",
"303 0 OFFCURVE",
"309 6 OFFCURVE",
"309 18 CURVE SMOOTH",
"309 492 LINE SMOOTH",
"309 508 OFFCURVE",
"313 514 OFFCURVE",
"325 526 CURVE SMOOTH",
"589 818 LINE SMOOTH",
"599 828 OFFCURVE",
"605 830 OFFCURVE",
"613 818 CURVE SMOOTH",
"1129 10 LINE SMOOTH",
"1133 4 OFFCURVE",
"1141 0 OFFCURVE",
"1151 0 CURVE SMOOTH",
"1229 0 LINE SMOOTH",
"1237 0 OFFCURVE",
"1241 6 OFFCURVE",
"1235 14 CURVE SMOOTH"
);
}
);
};
layerId = "91AB5BCA-6A50-42DA-B2F7-8181BF189245";
rightMetricsKey = "=X/1.25";
paths = (
{
closed = 1;
nodes = (
"223 0 LINE",
"293 496 LINE",
"601 814 LINE",
"965 0 LINE",
"1059 0 LINE",
"671 876 LINE",
"1231 1446 LINE",
"1133 1446 LINE",
"309 612 LINE",
"425 1446 LINE",
"351 1446 LINE",
"147 0 LINE"
);
}
);
width = 1224;
}
);
leftKerningGroup = N;
leftMetricsKey = H;
rightKerningGroup = K;
rightMetricsKey = "=X*1.25";
unicode = 004B;
},
{
glyphname = L;
lastChange = "2020-01-08 04:42:40 +0000";
layers = (
{
anchors = (
{
name = bottom;
position = "{537, 0}";
},
{
name = caron;
position = "{900, 1446}";
},
{
name = top;
position = "{467, 1446}";
}
);
background = {
anchors = (
{
name = bottom;
position = "{635, 0}";
},
{
name = top;
position = "{343, 1484}";
},
{
name = topright;
position = "{1027, 1484}";
}
);
paths = (
{
closed = 1;
nodes = (
"111 50 LINE SMOOTH",
"111 16 OFFCURVE",
"123 0 OFFCURVE",
"165 0 CURVE SMOOTH",
"1186 0 LINE SMOOTH",
"1221 0 OFFCURVE",
"1237 20 OFFCURVE",
"1237 44 CURVE SMOOTH",
"1237 290 LINE SMOOTH",
"1237 318 OFFCURVE",
"1219 328 OFFCURVE",
"1190 328 CURVE SMOOTH",
"589 328 LINE SMOOTH",
"571 328 OFFCURVE",
"564 334 OFFCURVE",
"564 356 CURVE SMOOTH",
"564 1442 LINE SMOOTH",
"564 1468 OFFCURVE",
"553 1484 OFFCURVE",
"529 1484 CURVE SMOOTH",
"148 1484 LINE SMOOTH",
"127 1484 OFFCURVE",
"111 1468 OFFCURVE",
"111 1438 CURVE SMOOTH"
);
}
);
};
layerId = "258ED206-D907-4350-8EBA-CBDDA1C16BF7";
rightMetricsKey = "=H/2.5";
paths = (
{
closed = 1;
nodes = (
"1024 0 LINE",
"1073 320 LINE",
"499 320 LINE",
"669 1446 LINE",
"283 1446 LINE",
"62 0 LINE"
);
}
);
width = 1155;
},
{
anchors = (
{
name = bottom;
position = "{515, 0}";
},
{
name = caron;
position = "{856, 1446}";
},
{
name = top;
position = "{391, 1446}";
}
);
background = {
anchors = (
{
name = bottom;
position = "{633, 0}";
},
{
name = top;
position = "{269, 1484}";
},
{
name = topright;
position = "{841, 1484}";
}
);
paths = (
{
closed = 1;
nodes = (
"223 20 LINE SMOOTH",
"223 6 OFFCURVE",
"227 0 OFFCURVE",
"241 0 CURVE",
"1061 0 LINE",
"1071 0 OFFCURVE",
"1075 4 OFFCURVE",
"1075 14 CURVE SMOOTH",
"1075 66 LINE SMOOTH",
"1075 78 OFFCURVE",
"1071 80 OFFCURVE",
"1059 80 CURVE SMOOTH",
"333 80 LINE SMOOTH",
"319 80 OFFCURVE",
"315 82 OFFCURVE",
"315 98 CURVE SMOOTH",
"315 1464 LINE SMOOTH",
"315 1480 OFFCURVE",
"311 1484 OFFCURVE",
"297 1484 CURVE SMOOTH",
"241 1484 LINE SMOOTH",
"227 1484 OFFCURVE",
"223 1480 OFFCURVE",
"223 1464 CURVE SMOOTH"
);
}
);
};
layerId = "91AB5BCA-6A50-42DA-B2F7-8181BF189245";
paths = (
{
closed = 1;
nodes = (
"905 0 LINE",
"917 86 LINE",
"237 86 LINE",
"429 1446 LINE",
"351 1446 LINE",
"147 0 LINE"
);
}
);
width = 1093;
}
);
leftKerningGroup = N;
leftMetricsKey = H;
rightKerningGroup = L;
rightMetricsKey = X;
unicode = 004C;
},
{
glyphname = Lslash;
lastChange = "2019-06-12 20:13:09 +0000";
layers = (
{
background = {
components = (
{
name = L;
transform = "{1, 0, 0, 1, 44, 0}";
}
);
paths = (
{
closed = 1;
nodes = (
"922 1072 OFFCURVE",
"908 1086 OFFCURVE",
"874 1076 CURVE SMOOTH",
"86 866 LINE SMOOTH",
"62 860 OFFCURVE",
"48 850 OFFCURVE",
"48 820 CURVE SMOOTH",
"48 586 LINE SMOOTH",
"48 554 OFFCURVE",
"60 540 OFFCURVE",
"98 552 CURVE SMOOTH",
"882 774 LINE SMOOTH",
"910 782 OFFCURVE",
"922 798 OFFCURVE",
"922 820 CURVE SMOOTH",
"922 1042 LINE SMOOTH"
);
}
);
};
components = (
{
name = L;
transform = "{1, 0, 0, 1, 88, 0}";
}
);
layerId = "258ED206-D907-4350-8EBA-CBDDA1C16BF7";
paths = (
{
closed = 1;
nodes = (
"922 786 LINE",
"922 1088 LINE",
"48 856 LINE",
"48 538 LINE"
);
}
);
width = 1243;
},
{
background = {
components = (
{
name = L;
transform = "{1, 0, 0, 1, 8, 0}";
}
);
paths = (
{
closed = 1;
nodes = (
"661 850 OFFCURVE",
"657 854 OFFCURVE",
"647 852 CURVE SMOOTH",
"97 712 LINE SMOOTH",
"91 710 OFFCURVE",
"87 704 OFFCURVE",
"87 694 CURVE SMOOTH",
"87 648 LINE SMOOTH",
"87 638 OFFCURVE",
"91 636 OFFCURVE",
"101 638 CURVE SMOOTH",
"649 780 LINE SMOOTH",
"657 782 OFFCURVE",
"661 788 OFFCURVE",
"661 796 CURVE SMOOTH",
"661 842 LINE SMOOTH"
);
}
);
};
components = (
{
name = L;
transform = "{1, 0, 0, 1, 18, 0}";
}
);
layerId = "91AB5BCA-6A50-42DA-B2F7-8181BF189245";
paths = (
{
closed = 1;
nodes = (
"661 784 LINE",
"661 856 LINE",
"87 710 LINE",
"87 634 LINE"
);
}
);
width = 1111;
}
);
leftKerningGroup = N;
rightKerningGroup = L;
rightMetricsKey = L;
unicode = 0141;
},
{
glyphname = M;
lastChange = "2019-06-12 20:13:09 +0000";
layers = (
{
background = {
paths = (
{
closed = 1;
nodes = (
"457 0 LINE SMOOTH",
"493 0 OFFCURVE",
"501 8 OFFCURVE",
"501 44 CURVE SMOOTH",
"501 928 LINE SMOOTH",
"501 954 OFFCURVE",
"515 962 OFFCURVE",
"524 930 CURVE SMOOTH",
"812 36 LINE SMOOTH",
"821 12 OFFCURVE",
"837 0 OFFCURVE",
"861 0 CURVE SMOOTH",
"1071 0 LINE SMOOTH",
"1093 0 OFFCURVE",
"1111 14 OFFCURVE",
"1119 36 CURVE SMOOTH",
"1407 946 LINE SMOOTH",
"1415 970 OFFCURVE",
"1431 970 OFFCURVE",
"1431 948 CURVE SMOOTH",
"1431 50 LINE SMOOTH",
"1431 16 OFFCURVE",
"1442 0 OFFCURVE",
"1482 0 CURVE SMOOTH",
"1821 0 LINE SMOOTH",
"1867 0 OFFCURVE",
"1885 16 OFFCURVE",
"1885 58 CURVE SMOOTH",
"1885 1442 LINE SMOOTH",
"1885 1468 OFFCURVE",
"1873 1484 OFFCURVE",
"1849 1484 CURVE SMOOTH",
"1270 1484 LINE SMOOTH",
"1243 1484 OFFCURVE",
"1227 1462 OFFCURVE",
"1217 1426 CURVE SMOOTH",
"1031 812 LINE SMOOTH",
"1024 794 OFFCURVE",
"1013 790 OFFCURVE",
"1005 812 CURVE SMOOTH",
"797 1448 LINE SMOOTH",
"787 1476 OFFCURVE",
"774 1484 OFFCURVE",
"741 1484 CURVE SMOOTH",
"181 1484 LINE SMOOTH",
"150 1484 OFFCURVE",
"139 1470 OFFCURVE",
"139 1438 CURVE SMOOTH",
"139 56 LINE SMOOTH",
"139 22 OFFCURVE",
"159 0 OFFCURVE",
"190 0 CURVE SMOOTH"
);
}
);
};
guideLines = (
{
angle = -105;
position = "{477, 261}";
},
{
angle = 105;
position = "{477, 261}";
}
);
layerId = "258ED206-D907-4350-8EBA-CBDDA1C16BF7";
paths = (
{
closed = 1;
nodes = (
"449 0 LINE",
"608 1048 LINE",
"730 0 LINE",
"1009 0 LINE",
"1447 1048 LINE",
"1289 0 LINE",
"1677 0 LINE",
"1894 1446 LINE",
"1323 1446 LINE",
"955 564 LINE",
"856 1446 LINE",
"281 1446 LINE",
"62 0 LINE"
);
}
);
width = 1898;
},
{
background = {
guideLines = (
{
position = "{35, 566}";
showMeasurement = 1;
}
);
paths = (
{
closed = 1;
nodes = (
"267 0 LINE SMOOTH",
"281 0 OFFCURVE",
"287 6 OFFCURVE",
"287 18 CURVE SMOOTH",
"287 1244 LINE SMOOTH",
"287 1252 OFFCURVE",
"291 1250 OFFCURVE",
"293 1244 CURVE SMOOTH",
"781 20 LINE SMOOTH",
"787 6 OFFCURVE",
"797 0 OFFCURVE",
"819 0 CURVE SMOOTH",
"873 0 LINE SMOOTH",
"891 0 OFFCURVE",
"899 6 OFFCURVE",
"905 22 CURVE SMOOTH",
"1403 1254 LINE SMOOTH",
"1405 1260 OFFCURVE",
"1409 1264 OFFCURVE",
"1409 1254 CURVE SMOOTH",
"1409 18 LINE SMOOTH",
"1409 4 OFFCURVE",
"1415 0 OFFCURVE",
"1429 0 CURVE SMOOTH",
"1483 0 LINE SMOOTH",
"1495 0 OFFCURVE",
"1501 6 OFFCURVE",
"1501 20 CURVE SMOOTH",
"1501 1464 LINE SMOOTH",
"1501 1480 OFFCURVE",
"1497 1484 OFFCURVE",
"1483 1484 CURVE SMOOTH",
"1425 1484 LINE SMOOTH",
"1413 1484 OFFCURVE",
"1407 1480 OFFCURVE",
"1403 1470 CURVE SMOOTH",
"861 130 LINE SMOOTH",
"849 102 OFFCURVE",
"839 102 OFFCURVE",
"829 128 CURVE SMOOTH",
"295 1468 LINE",
"291 1480 OFFCURVE",
"285 1484 OFFCURVE",
"269 1484 CURVE SMOOTH",
"217 1484 LINE SMOOTH",
"203 1484 OFFCURVE",
"199 1480 OFFCURVE",
"199 1464 CURVE SMOOTH",
"199 20 LINE SMOOTH",
"199 6 OFFCURVE",
"203 0 OFFCURVE",
"217 0 CURVE SMOOTH"
);
}
);
};
guideLines = (
{
position = "{106, 525}";
showMeasurement = 1;
},
{
angle = 68.255;
position = "{388, 0}";
}
);
layerId = "91AB5BCA-6A50-42DA-B2F7-8181BF189245";
paths = (
{
closed = 1;
nodes = (
"227 0 LINE",
"399 1216 LINE",
"675 0 LINE",
"781 0 LINE",
"1407 1232 LINE",
"1233 0 LINE",
"1313 0 LINE",
"1515 1446 LINE",
"1437 1446 LINE",
"739 88 LINE",
"433 1446 LINE",
"351 1446 LINE",
"149 0 LINE"
);
}
);
width = 1606;
}
);
leftKerningGroup = N;
leftMetricsKey = "=H";
rightKerningGroup = N;
rightMetricsKey = H;
unicode = 004D;
},
{
glyphname = N;
lastChange = "2019-06-12 20:13:09 +0000";
layers = (
{
anchors = (
{
name = bottom;
position = "{730, 0}";
},
{
name = top;
position = "{951, 1446}";
}
);
background = {
anchors = (
{
name = bottom;
position = "{839, 0}";
},
{
name = top;
position = "{839, 1484}";
}
);
paths = (
{
closed = 1;
nodes = (
"1144 1484 OFFCURVE",
"1131 1468 OFFCURVE",
"1131 1442 CURVE SMOOTH",
"1131 788 LINE SMOOTH",
"1131 756 OFFCURVE",
"1117 756 OFFCURVE",
"1099 780 CURVE SMOOTH",
"619 1448 LINE SMOOTH",
"597 1478 OFFCURVE",
"585 1484 OFFCURVE",
"551 1484 CURVE SMOOTH",
"225 1484 LINE SMOOTH",
"195 1484 OFFCURVE",
"181 1470 OFFCURVE",
"181 1438 CURVE SMOOTH",
"181 40 LINE SMOOTH",
"181 10 OFFCURVE",
"201 0 OFFCURVE",
"230 0 CURVE SMOOTH",
"503 0 LINE SMOOTH",
"539 0 OFFCURVE",
"553 12 OFFCURVE",
"551 44 CURVE SMOOTH",
"551 772 LINE SMOOTH",
"551 786 OFFCURVE",
"561 790 OFFCURVE",
"571 776 CURVE SMOOTH",
"1121 30 LINE SMOOTH",
"1141 4 OFFCURVE",
"1153 0 OFFCURVE",
"1175 0 CURVE SMOOTH",
"1449 0 LINE SMOOTH",
"1475 0 OFFCURVE",
"1495 14 OFFCURVE",
"1495 36 CURVE SMOOTH",
"1495 1450 LINE SMOOTH",
"1495 1472 OFFCURVE",
"1484 1484 OFFCURVE",
"1465 1484 CURVE SMOOTH",
"1175 1484 LINE SMOOTH"
);
}
);
};
guideLines = (
{
angle = 125.0467;
position = "{545, 296}";
}
);
layerId = "258ED206-D907-4350-8EBA-CBDDA1C16BF7";
paths = (
{
closed = 1;
nodes = (
"451 0 LINE",
"581 862 LINE",
"1051 0 LINE",
"1400 0 LINE",
"1621 1446 LINE",
"1232 1446 LINE",
"1111 640 LINE",
"673 1446 LINE",
"283 1446 LINE",
"62 0 LINE"
);
}
);
width = 1625;
},
{
anchors = (
{
name = bottom;
position = "{569, 0}";
},
{
name = top;
position = "{817, 1446}";
}
);
background = {
anchors = (
{
name = bottom;
position = "{699, 0}";
},
{
name = top;
position = "{769, 1484}";
}
);
guideLines = (
{
position = "{43, 576}";
showMeasurement = 1;
}
);
paths = (
{
closed = 1;
nodes = (
"1179 1484 OFFCURVE",
"1175 1478 OFFCURVE",
"1175 1466 CURVE SMOOTH",
"1175 214 LINE SMOOTH",
"1175 202 OFFCURVE",
"1161 190 OFFCURVE",
"1147 210 CURVE SMOOTH",
"293 1470 LINE SMOOTH",
"285 1482 OFFCURVE",
"279 1484 OFFCURVE",
"263 1484 CURVE SMOOTH",
"227 1484 LINE",
"213 1484 OFFCURVE",
"209 1480 OFFCURVE",
"209 1464 CURVE SMOOTH",
"209 20 LINE SMOOTH",
"209 6 OFFCURVE",
"213 0 OFFCURVE",
"227 0 CURVE SMOOTH",
"277 0 LINE SMOOTH",
"291 0 OFFCURVE",
"297 6 OFFCURVE",
"297 18 CURVE SMOOTH",
"297 1274 LINE SMOOTH",
"297 1290 OFFCURVE",
"307 1294 OFFCURVE",
"321 1274 CURVE SMOOTH",
"1177 12 LINE SMOOTH",
"1187 -2 OFFCURVE",
"1199 0 OFFCURVE",
"1215 0 CURVE SMOOTH",
"1245 0 LINE SMOOTH",
"1257 0 OFFCURVE",
"1263 6 OFFCURVE",
"1263 20 CURVE SMOOTH",
"1263 1464 LINE SMOOTH",
"1263 1480 OFFCURVE",
"1259 1484 OFFCURVE",
"1245 1484 CURVE SMOOTH",
"1191 1484 LINE SMOOTH"
);
}
);
};
guideLines = (
{
position = "{114, 534}";
showMeasurement = 1;
},
{
angle = 123.9688;
position = "{116, 610}";
}
);
layerId = "91AB5BCA-6A50-42DA-B2F7-8181BF189245";
paths = (
{
closed = 1;
nodes = (
"219 0 LINE",
"401 1286 LINE",
"1017 0 LINE",
"1079 0 LINE",
"1283 1446 LINE",
"1211 1446 LINE",
"1029 156 LINE",
"409 1446 LINE",
"351 1446 LINE",
"147 0 LINE"
);
}
);
width = 1372;
}
);
leftKerningGroup = N;
leftMetricsKey = H;
rightKerningGroup = N;
rightMetricsKey = H;
unicode = 004E;
},
{
glyphname = Eng;
lastChange = "2019-06-12 20:13:09 +0000";
layers = (
{
background = {
paths = (
{
closed = 1;
nodes = (
"1114 1484 LINE SMOOTH",
"1084 1484 OFFCURVE",
"1070 1468 OFFCURVE",
"1070 1442 CURVE SMOOTH",
"1070 868 LINE SMOOTH",
"1070 836 OFFCURVE",
"1056 836 OFFCURVE",
"1038 860 CURVE",
"558 1448 LINE SMOOTH",
"534 1478 OFFCURVE",
"524 1484 OFFCURVE",
"490 1484 CURVE SMOOTH",
"164 1484 LINE SMOOTH",
"134 1484 OFFCURVE",
"120 1470 OFFCURVE",
"120 1438 CURVE SMOOTH",
"120 40 LINE SMOOTH",
"120 10 OFFCURVE",
"140 0 OFFCURVE",
"170 0 CURVE SMOOTH",
"442 0 LINE SMOOTH",
"478 0 OFFCURVE",
"492 12 OFFCURVE",
"490 44 CURVE",
"490 772 LINE",
"490 786 OFFCURVE",
"498 790 OFFCURVE",
"510 776 CURVE SMOOTH",
"990 194 LINE",
"990 176 LINE SMOOTH",
"984 62 OFFCURVE",
"924 20 OFFCURVE",
"834 20 CURVE SMOOTH",
"790 20 OFFCURVE",
"744 30 OFFCURVE",
"712 34 CURVE SMOOTH",
"680 38 OFFCURVE",
"666 18 OFFCURVE",
"664 -12 CURVE SMOOTH",
"646 -240 LINE SMOOTH",
"642 -296 OFFCURVE",
"662 -318 OFFCURVE",
"708 -326 CURVE SMOOTH",
"798 -342 OFFCURVE",
"886 -350 OFFCURVE",
"968 -350 CURVE SMOOTH",
"1272 -350 OFFCURVE",
"1434 -228 OFFCURVE",
"1434 94 CURVE SMOOTH",
"1434 1450 LINE SMOOTH",
"1434 1472 OFFCURVE",
"1424 1484 OFFCURVE",
"1404 1484 CURVE SMOOTH"
);
}
);
};
components = (
{
name = N;
},
{
alignment = -1;
name = "_j-hook";
transform = "{1, 0, 0, 1, 668, -460}";
}
);
layerId = "258ED206-D907-4350-8EBA-CBDDA1C16BF7";
width = 1625;
},
{
background = {
paths = (
{
closed = 1;
nodes = (
"1206 1484 LINE SMOOTH",
"1194 1484 OFFCURVE",
"1190 1478 OFFCURVE",
"1190 1466 CURVE SMOOTH",
"1190 214 LINE SMOOTH",
"1190 202 OFFCURVE",
"1176 188 OFFCURVE",
"1162 208 CURVE SMOOTH",
"310 1470 LINE SMOOTH",
"302 1482 OFFCURVE",
"296 1484 OFFCURVE",
"282 1484 CURVE SMOOTH",
"240 1484 LINE SMOOTH",
"226 1484 OFFCURVE",
"222 1480 OFFCURVE",
"222 1464 CURVE SMOOTH",
"222 20 LINE SMOOTH",
"222 6 OFFCURVE",
"226 0 OFFCURVE",
"240 0 CURVE SMOOTH",
"290 0 LINE SMOOTH",
"304 0 OFFCURVE",
"310 6 OFFCURVE",
"310 18 CURVE SMOOTH",
"310 1280 LINE SMOOTH",
"310 1296 OFFCURVE",
"314 1300 OFFCURVE",
"328 1280 CURVE SMOOTH",
"1184 24 LINE",
"1184 -82 LINE SMOOTH",
"1184 -224 OFFCURVE",
"1122 -270 OFFCURVE",
"1014 -270 CURVE SMOOTH",
"954 -270 OFFCURVE",
"906 -256 OFFCURVE",
"874 -244 CURVE SMOOTH",
"864 -240 OFFCURVE",
"860 -242 OFFCURVE",
"858 -252 CURVE",
"852 -302 LINE",
"852 -310 OFFCURVE",
"854 -316 OFFCURVE",
"860 -320 CURVE SMOOTH",
"874 -330 OFFCURVE",
"940 -350 OFFCURVE",
"1022 -350 CURVE SMOOTH",
"1210 -350 OFFCURVE",
"1276 -248 OFFCURVE",
"1276 -92 CURVE SMOOTH",
"1276 1464 LINE SMOOTH",
"1276 1480 OFFCURVE",
"1272 1484 OFFCURVE",
"1258 1484 CURVE SMOOTH"
);
}
);
};
components = (
{
name = N;
},
{
alignment = -1;
name = "_j-hook";
transform = "{1, 0, 0, 1, 610, -460}";
}
);
layerId = "91AB5BCA-6A50-42DA-B2F7-8181BF189245";
width = 1372;
}
);
leftKerningGroup = N;
leftMetricsKey = N;
rightKerningGroup = N;
rightMetricsKey = N;
unicode = 014A;
},
{
glyphname = O;
lastChange = "2020-01-08 00:40:24 +0000";
layers = (
{
anchors = (
{
name = bottom;
position = "{704, 0}";
},
{
name = horn;
position = "{1354, 1094}";
},
{
name = ogonek;
position = "{885, 20}";
},
{
name = top;
position = "{902, 1446}";
}
);
background = {
anchors = (
{
name = bottom;
position = "{812, 0}";
},
{
name = ogonek;
position = "{994, 20}";
},
{
name = top;
position = "{809, 1484}";
}
);
paths = (
{
closed = 1;
nodes = (
"1246 -20 OFFCURVE",
"1526 278 OFFCURVE",
"1526 738 CURVE SMOOTH",
"1526 1202 OFFCURVE",
"1240 1504 OFFCURVE",
"811 1504 CURVE SMOOTH",
"376 1504 OFFCURVE",
"91 1202 OFFCURVE",
"91 738 CURVE SMOOTH",
"91 276 OFFCURVE",
"368 -20 OFFCURVE",
"811 -20 CURVE SMOOTH"
);
},
{
closed = 1;
nodes = (
"633 292 OFFCURVE",
"566 412 OFFCURVE",
"566 732 CURVE SMOOTH",
"566 1062 OFFCURVE",
"637 1196 OFFCURVE",
"811 1196 CURVE SMOOTH",
"980 1196 OFFCURVE",
"1051 1062 OFFCURVE",
"1051 732 CURVE SMOOTH",
"1051 412 OFFCURVE",
"984 292 OFFCURVE",
"811 292 CURVE SMOOTH"
);
}
);
};
guideLines = (
{
angle = 90;
position = "{-500, 389}";
}
);
layerId = "258ED206-D907-4350-8EBA-CBDDA1C16BF7";
paths = (
{
closed = 1;
nodes = (
"1122 -20 OFFCURVE",
"1438 272 OFFCURVE",
"1507 720 CURVE SMOOTH",
"1574 1172 OFFCURVE",
"1343 1466 OFFCURVE",
"925 1466 CURVE SMOOTH",
"507 1466 OFFCURVE",
"183 1172 OFFCURVE",
"114 720 CURVE SMOOTH",
"46 270 OFFCURVE",
"272 -20 OFFCURVE",
"700 -20 CURVE SMOOTH"
);
},
{
closed = 1;
nodes = (
"588 292 OFFCURVE",
"488 402 OFFCURVE",
"534 714 CURVE SMOOTH",
"584 1036 OFFCURVE",
"719 1154 OFFCURVE",
"878 1154 CURVE SMOOTH",
"1036 1154 OFFCURVE",
"1135 1036 OFFCURVE",
"1084 714 CURVE SMOOTH",
"1038 402 OFFCURVE",
"906 292 OFFCURVE",
"746 292 CURVE SMOOTH"
);
}
);
width = 1564;
},
{
anchors = (
{
name = bottom;
position = "{597, 0}";
},
{
name = horn;
position = "{1113, 1212}";
},
{
name = ogonek;
position = "{726, 18}";
},
{
name = top;
position = "{801, 1446}";
}
);
background = {
anchors = (
{
name = bottom;
position = "{719, 0}";
},
{
name = ogonek;
position = "{859, 18}";
},
{
name = top;
position = "{719, 1484}";
}
);
paths = (
{
closed = 1;
nodes = (
"1091 -20 OFFCURVE",
"1317 244 OFFCURVE",
"1317 738 CURVE SMOOTH",
"1317 1236 OFFCURVE",
"1091 1504 OFFCURVE",
"717 1504 CURVE SMOOTH",
"341 1504 OFFCURVE",
"113 1234 OFFCURVE",
"113 734 CURVE SMOOTH",
"113 242 OFFCURVE",
"337 -20 OFFCURVE",
"715 -20 CURVE SMOOTH"
);
},
{
closed = 1;
nodes = (
"387 64 OFFCURVE",
"209 286 OFFCURVE",
"209 738 CURVE SMOOTH",
"209 1194 OFFCURVE",
"387 1420 OFFCURVE",
"717 1420 CURVE SMOOTH",
"1045 1420 OFFCURVE",
"1221 1196 OFFCURVE",
"1221 738 CURVE SMOOTH",
"1221 284 OFFCURVE",
"1049 64 OFFCURVE",
"719 64 CURVE SMOOTH"
);
}
);
};
guideLines = (
{
angle = 90;
position = "{-459, 400}";
},
{
angle = 90;
position = "{384, 593}";
}
);
layerId = "91AB5BCA-6A50-42DA-B2F7-8181BF189245";
paths = (
{
closed = 1;
nodes = (
"927 -20 OFFCURVE",
"1165 238 OFFCURVE",
"1233 720 CURVE SMOOTH",
"1301 1206 OFFCURVE",
"1137 1466 OFFCURVE",
"801 1466 CURVE SMOOTH",
"463 1466 OFFCURVE",
"221 1204 OFFCURVE",
"153 716 CURVE SMOOTH",
"85 236 OFFCURVE",
"251 -20 OFFCURVE",
"591 -20 CURVE SMOOTH"
);
},
{
closed = 1;
nodes = (
"307 62 OFFCURVE",
"173 278 OFFCURVE",
"235 720 CURVE SMOOTH",
"297 1164 OFFCURVE",
"493 1384 OFFCURVE",
"789 1384 CURVE SMOOTH",
"1085 1384 OFFCURVE",
"1215 1166 OFFCURVE",
"1153 720 CURVE SMOOTH",
"1091 276 OFFCURVE",
"901 62 OFFCURVE",
"605 62 CURVE SMOOTH"
);
}
);
width = 1329;
}
);
leftKerningGroup = O;
rightKerningGroup = O;
unicode = 004F;
},
{
glyphname = Oslash;
lastChange = "2019-06-12 20:13:09 +0000";
layers = (
{
anchors = (
{
name = top;
position = "{928, 1446}";
}
);
background = {
anchors = (
{
name = top;
position = "{818, 1446}";
}
);
paths = (
{
closed = 1;
nodes = (
"1460 1446 LINE SMOOTH",
"1444 1462 OFFCURVE",
"1420 1458 OFFCURVE",
"1400 1438 CURVE SMOOTH",
"1272 1314 LINE",
"1156 1412 OFFCURVE",
"1002 1466 OFFCURVE",
"820 1466 CURVE SMOOTH",
"396 1466 OFFCURVE",
"118 1172 OFFCURVE",
"118 720 CURVE SMOOTH",
"118 552 OFFCURVE",
"156 408 OFFCURVE",
"224 292 CURVE",
"92 164 LINE SMOOTH",
"70 140 OFFCURVE",
"72 120 OFFCURVE",
"100 92 CURVE SMOOTH",
"176 14 LINE SMOOTH",
"208 -18 OFFCURVE",
"232 -16 OFFCURVE",
"260 14 CURVE SMOOTH",
"372 122 LINE",
"488 32 OFFCURVE",
"640 -20 OFFCURVE",
"820 -20 CURVE SMOOTH",
"1246 -20 OFFCURVE",
"1518 272 OFFCURVE",
"1518 720 CURVE SMOOTH",
"1518 884 OFFCURVE",
"1482 1026 OFFCURVE",
"1414 1140 CURVE",
"1562 1286 LINE",
"1582 1302 OFFCURVE",
"1580 1322 OFFCURVE",
"1564 1338 CURVE SMOOTH"
);
},
{
closed = 1;
nodes = (
"582 1036 OFFCURVE",
"650 1166 OFFCURVE",
"820 1166 CURVE SMOOTH",
"906 1166 OFFCURVE",
"966 1132 OFFCURVE",
"1004 1052 CURVE",
"584 642 LINE",
"582 666 OFFCURVE",
"582 690 OFFCURVE",
"582 714 CURVE"
);
},
{
closed = 1;
nodes = (
"1054 402 OFFCURVE",
"990 284 OFFCURVE",
"820 284 CURVE SMOOTH",
"734 284 OFFCURVE",
"674 314 OFFCURVE",
"636 380 CURVE",
"1052 788 LINE",
"1054 762 OFFCURVE",
"1054 740 OFFCURVE",
"1054 714 CURVE SMOOTH"
);
}
);
};
layerId = "258ED206-D907-4350-8EBA-CBDDA1C16BF7";
paths = (
{
closed = 1;
nodes = (
"284 122 LINE",
"386 32 OFFCURVE",
"528 -20 OFFCURVE",
"708 -20 CURVE SMOOTH",
"1130 -20 OFFCURVE",
"1446 272 OFFCURVE",
"1514 720 CURVE SMOOTH",
"1538 884 OFFCURVE",
"1524 1026 OFFCURVE",
"1474 1140 CURVE",
"1672 1312 LINE",
"1546 1472 LINE",
"1358 1314 LINE",
"1258 1412 OFFCURVE",
"1114 1466 OFFCURVE",
"932 1466 CURVE SMOOTH",
"512 1466 OFFCURVE",
"190 1172 OFFCURVE",
"122 720 CURVE SMOOTH",
"96 552 OFFCURVE",
"112 408 OFFCURVE",
"162 292 CURVE",
"-24 134 LINE",
"106 -28 LINE"
);
},
{
closed = 1;
nodes = (
"668 284 OFFCURVE",
"614 314 OFFCURVE",
"586 380 CURVE",
"1062 790 LINE",
"1044 670 OFFCURVE",
"1024 576 OFFCURVE",
"998 502 CURVE SMOOTH",
"944 348 OFFCURVE",
"866 284 OFFCURVE",
"754 284 CURVE SMOOTH"
);
},
{
closed = 1;
nodes = (
"586 740 OFFCURVE",
"603 824 OFFCURVE",
"626 894 CURVE SMOOTH",
"682 1084 OFFCURVE",
"764 1166 OFFCURVE",
"888 1166 CURVE SMOOTH",
"972 1166 OFFCURVE",
"1028 1132 OFFCURVE",
"1052 1052 CURVE",
"572 640 LINE"
);
}
);
width = 1600;
},
{
anchors = (
{
name = top;
position = "{805, 1446}";
}
);
background = {
anchors = (
{
name = top;
position = "{703, 1446}";
}
);
paths = (
{
closed = 1;
nodes = (
"1295 1460 LINE",
"1287 1468 OFFCURVE",
"1279 1464 OFFCURVE",
"1271 1454 CURVE",
"1125 1286 LINE",
"1023 1404 OFFCURVE",
"881 1466 OFFCURVE",
"703 1466 CURVE SMOOTH",
"337 1466 OFFCURVE",
"115 1204 OFFCURVE",
"115 716 CURVE SMOOTH",
"115 518 OFFCURVE",
"151 358 OFFCURVE",
"221 240 CURVE",
"57 50 LINE",
"49 40 OFFCURVE",
"51 36 OFFCURVE",
"65 22 CURVE SMOOTH",
"99 -10 LINE",
"115 -22 OFFCURVE",
"125 -22 OFFCURVE",
"135 -6 CURVE",
"279 158 LINE",
"377 40 OFFCURVE",
"521 -20 OFFCURVE",
"701 -20 CURVE SMOOTH",
"1067 -20 OFFCURVE",
"1289 238 OFFCURVE",
"1289 720 CURVE SMOOTH",
"1289 920 OFFCURVE",
"1251 1082 OFFCURVE",
"1181 1204 CURVE",
"1347 1396 LINE",
"1353 1404 OFFCURVE",
"1351 1412 OFFCURVE",
"1345 1418 CURVE"
);
},
{
closed = 1;
nodes = (
"213 1164 OFFCURVE",
"381 1382 OFFCURVE",
"703 1382 CURVE SMOOTH",
"863 1382 OFFCURVE",
"983 1328 OFFCURVE",
"1065 1218 CURVE",
"285 314 LINE",
"237 418 OFFCURVE",
"213 552 OFFCURVE",
"213 720 CURVE SMOOTH"
);
},
{
closed = 1;
nodes = (
"1189 276 OFFCURVE",
"1027 64 OFFCURVE",
"705 64 CURVE SMOOTH",
"543 64 OFFCURVE",
"421 118 OFFCURVE",
"337 228 CURVE",
"1117 1132 LINE",
"1165 1026 OFFCURVE",
"1189 890 OFFCURVE",
"1189 720 CURVE SMOOTH"
);
}
);
};
layerId = "91AB5BCA-6A50-42DA-B2F7-8181BF189245";
paths = (
{
closed = 1;
nodes = (
"233 158 LINE",
"307 40 OFFCURVE",
"431 -20 OFFCURVE",
"597 -20 CURVE SMOOTH",
"933 -20 OFFCURVE",
"1175 238 OFFCURVE",
"1241 720 CURVE SMOOTH",
"1269 920 OFFCURVE",
"1257 1082 OFFCURVE",
"1211 1204 CURVE",
"1401 1408 LINE",
"1343 1470 LINE",
"1171 1286 LINE",
"1093 1404 OFFCURVE",
"971 1466 OFFCURVE",
"807 1466 CURVE SMOOTH",
"471 1466 OFFCURVE",
"229 1204 OFFCURVE",
"161 716 CURVE SMOOTH",
"133 518 OFFCURVE",
"143 358 OFFCURVE",
"191 240 CURVE",
"3 38 LINE",
"59 -26 LINE"
);
},
{
closed = 1;
nodes = (
"463 64 OFFCURVE",
"359 118 OFFCURVE",
"297 228 CURVE",
"1141 1132 LINE",
"1171 1026 OFFCURVE",
"1173 890 OFFCURVE",
"1149 720 CURVE SMOOTH",
"1087 276 OFFCURVE",
"909 64 OFFCURVE",
"613 64 CURVE SMOOTH"
);
},
{
closed = 1;
nodes = (
"231 418 OFFCURVE",
"229 552 OFFCURVE",
"251 720 CURVE SMOOTH",
"315 1164 OFFCURVE",
"499 1382 OFFCURVE",
"795 1382 CURVE SMOOTH",
"943 1382 OFFCURVE",
"1045 1328 OFFCURVE",
"1105 1218 CURVE",
"261 314 LINE"
);
}
);
width = 1346;
}
);
leftKerningGroup = Oslash;
rightKerningGroup = Oslash;
unicode = 00D8;
},
{
glyphname = OE;
lastChange = "2019-11-04 23:36:04 +0000";
layers = (
{
background = {
paths = (
{
closed = 1;
nodes = (
"1426 328 LINE",
"1426 584 LINE",
"1864 584 LINE",
"1864 906 LINE",
"1426 906 LINE",
"1426 1156 LINE",
"2124 1156 LINE",
"2126 1484 LINE",
"1162 1484 LINE",
"1038 1484 LINE",
"968 1498 OFFCURVE",
"882 1504 OFFCURVE",
"780 1504 CURVE SMOOTH",
"298 1504 OFFCURVE",
"13 1202 OFFCURVE",
"13 738 CURVE SMOOTH",
"13 276 OFFCURVE",
"290 -20 OFFCURVE",
"756 -20 CURVE SMOOTH",
"868 -20 OFFCURVE",
"962 -14 OFFCURVE",
"1038 0 CURVE",
"1139 0 LINE",
"1152 0 OFFCURVE",
"1166 0 OFFCURVE",
"1181 0 CURVE",
"2097 0 LINE SMOOTH",
"2130 0 OFFCURVE",
"2145 20 OFFCURVE",
"2145 44 CURVE SMOOTH",
"2145 290 LINE SMOOTH",
"2145 318 OFFCURVE",
"2128 328 OFFCURVE",
"2101 328 CURVE SMOOTH"
);
},
{
closed = 1;
nodes = (
"555 292 OFFCURVE",
"488 412 OFFCURVE",
"488 732 CURVE SMOOTH",
"488 1062 OFFCURVE",
"559 1196 OFFCURVE",
"733 1196 CURVE SMOOTH",
"902 1196 OFFCURVE",
"973 1062 OFFCURVE",
"973 732 CURVE SMOOTH",
"973 412 OFFCURVE",
"906 292 OFFCURVE",
"733 292 CURVE SMOOTH"
);
}
);
};
components = (
{
alignment = -1;
name = O;
},
{
alignment = -1;
name = E;
transform = "{1, 0, 0, 1, 949, 0}";
}
);
layerId = "258ED206-D907-4350-8EBA-CBDDA1C16BF7";
width = 2251;
},
{
background = {
paths = (
{
closed = 1;
nodes = (
"1345 80 LINE SMOOTH",
"1331 80 OFFCURVE",
"1327 82 OFFCURVE",
"1327 98 CURVE SMOOTH",
"1327 692 LINE SMOOTH",
"1327 708 OFFCURVE",
"1331 710 OFFCURVE",
"1345 710 CURVE SMOOTH",
"1899 710 LINE SMOOTH",
"1911 710 OFFCURVE",
"1915 712 OFFCURVE",
"1915 724 CURVE SMOOTH",
"1915 776 LINE SMOOTH",
"1915 786 OFFCURVE",
"1911 790 OFFCURVE",
"1901 790 CURVE SMOOTH",
"1345 790 LINE SMOOTH",
"1331 790 OFFCURVE",
"1327 792 OFFCURVE",
"1327 804 CURVE SMOOTH",
"1327 1386 LINE SMOOTH",
"1327 1402 OFFCURVE",
"1331 1404 OFFCURVE",
"1345 1404 CURVE SMOOTH",
"2061 1404 LINE SMOOTH",
"2073 1404 OFFCURVE",
"2077 1406 OFFCURVE",
"2077 1418 CURVE SMOOTH",
"2077 1470 LINE SMOOTH",
"2077 1480 OFFCURVE",
"2073 1484 OFFCURVE",
"2063 1484 CURVE SMOOTH",
"1253 1484 LINE SMOOTH",
"1239 1484 OFFCURVE",
"1235 1480 OFFCURVE",
"1235 1464 CURVE SMOOTH",
"1235 1200 LINE",
"1135 1400 OFFCURVE",
"961 1504 OFFCURVE",
"727 1504 CURVE SMOOTH",
"351 1504 OFFCURVE",
"123 1234 OFFCURVE",
"123 734 CURVE SMOOTH",
"123 242 OFFCURVE",
"347 -20 OFFCURVE",
"726 -20 CURVE SMOOTH",
"959 -20 OFFCURVE",
"1135 82 OFFCURVE",
"1235 280 CURVE",
"1235 20 LINE SMOOTH",
"1235 4 OFFCURVE",
"1239 0 OFFCURVE",
"1253 0 CURVE SMOOTH",
"2093 0 LINE SMOOTH",
"2103 0 OFFCURVE",
"2107 4 OFFCURVE",
"2107 14 CURVE SMOOTH",
"2107 66 LINE SMOOTH",
"2107 78 OFFCURVE",
"2103 80 OFFCURVE",
"2091 80 CURVE SMOOTH"
);
},
{
closed = 1;
nodes = (
"397 64 OFFCURVE",
"219 286 OFFCURVE",
"219 738 CURVE SMOOTH",
"219 1194 OFFCURVE",
"397 1420 OFFCURVE",
"727 1420 CURVE SMOOTH",
"1055 1420 OFFCURVE",
"1226 1196 OFFCURVE",
"1226 738 CURVE SMOOTH",
"1226 284 OFFCURVE",
"1059 64 OFFCURVE",
"729 64 CURVE SMOOTH"
);
}
);
};
components = (
{
alignment = -1;
name = O;
},
{
alignment = -1;
name = E;
transform = "{1, 0, 0, 1, 924, 0}";
}
);
layerId = "91AB5BCA-6A50-42DA-B2F7-8181BF189245";
width = 2074;
}
);
leftKerningGroup = O;
leftMetricsKey = O;
rightKerningGroup = E;
rightMetricsKey = E;
unicode = 0152;
},
{
glyphname = P;
lastChange = "2019-11-13 18:58:25 +0000";
layers = (
{
background = {
paths = (
{
closed = 1;
nodes = (
"1417 1324 OFFCURVE",
"1143 1484 OFFCURVE",
"814 1484 CURVE SMOOTH",
"153 1484 LINE SMOOTH",
"129 1484 OFFCURVE",
"115 1468 OFFCURVE",
"115 1438 CURVE SMOOTH",
"115 50 LINE SMOOTH",
"115 16 OFFCURVE",
"127 0 OFFCURVE",
"167 0 CURVE SMOOTH",
"503 0 LINE SMOOTH",
"549 0 OFFCURVE",
"569 16 OFFCURVE",
"569 58 CURVE SMOOTH",
"569 510 LINE SMOOTH",
"569 524 OFFCURVE",
"575 532 OFFCURVE",
"593 532 CURVE SMOOTH",
"867 532 LINE SMOOTH",
"1192 532 OFFCURVE",
"1417 710 OFFCURVE",
"1417 1002 CURVE SMOOTH"
);
},
{
closed = 1;
nodes = (
"953 922 OFFCURVE",
"894 852 OFFCURVE",
"799 852 CURVE SMOOTH",
"602 852 LINE SMOOTH",
"577 852 OFFCURVE",
"569 866 OFFCURVE",
"569 896 CURVE SMOOTH",
"569 1122 LINE SMOOTH",
"569 1152 OFFCURVE",
"581 1164 OFFCURVE",
"615 1164 CURVE SMOOTH",
"787 1164 LINE SMOOTH",
"879 1164 OFFCURVE",
"953 1104 OFFCURVE",
"953 1008 CURVE SMOOTH"
);
}
);
};
layerId = "258ED206-D907-4350-8EBA-CBDDA1C16BF7";
rightMetricsKey = "=X*2";
paths = (
{
closed = 1;
nodes = (
"451 0 LINE",
"527 498 LINE",
"757 498 LINE SMOOTH",
"1073 498 OFFCURVE",
"1297 670 OFFCURVE",
"1341 956 CURVE SMOOTH",
"1389 1270 OFFCURVE",
"1169 1446 OFFCURVE",
"851 1446 CURVE SMOOTH",
"283 1446 LINE",
"62 0 LINE"
);
},
{
closed = 1;
nodes = (
"623 1158 LINE",
"845 1158 LINE SMOOTH",
"931 1158 OFFCURVE",
"1003 1076 OFFCURVE",
"989 976 CURVE SMOOTH",
"975 882 OFFCURVE",
"887 788 OFFCURVE",
"789 788 CURVE SMOOTH",
"566 788 LINE"
);
}
);
width = 1339;
},
{
background = {
paths = (
{
closed = 1;
nodes = (
"1213 1368 OFFCURVE",
"991 1484 OFFCURVE",
"681 1484 CURVE SMOOTH",
"237 1484 LINE SMOOTH",
"223 1484 OFFCURVE",
"219 1480 OFFCURVE",
"219 1464 CURVE SMOOTH",
"219 16 LINE SMOOTH",
"219 6 OFFCURVE",
"225 0 OFFCURVE",
"235 0 CURVE SMOOTH",
"295 0 LINE SMOOTH",
"305 0 OFFCURVE",
"311 6 OFFCURVE",
"311 18 CURVE SMOOTH",
"311 636 LINE SMOOTH",
"311 648 OFFCURVE",
"315 654 OFFCURVE",
"327 654 CURVE SMOOTH",
"693 654 LINE SMOOTH",
"995 654 OFFCURVE",
"1213 774 OFFCURVE",
"1213 1070 CURVE SMOOTH"
);
},
{
closed = 1;
nodes = (
"1117 830 OFFCURVE",
"949 734 OFFCURVE",
"693 734 CURVE SMOOTH",
"325 734 LINE SMOOTH",
"315 734 OFFCURVE",
"311 740 OFFCURVE",
"311 754 CURVE SMOOTH",
"311 1388 LINE SMOOTH",
"311 1400 OFFCURVE",
"317 1404 OFFCURVE",
"329 1404 CURVE SMOOTH",
"679 1404 LINE SMOOTH",
"949 1404 OFFCURVE",
"1117 1324 OFFCURVE",
"1117 1076 CURVE SMOOTH"
);
}
);
};
layerId = "91AB5BCA-6A50-42DA-B2F7-8181BF189245";
rightMetricsKey = "=X/2";
paths = (
{
closed = 1;
nodes = (
"227 0 LINE",
"305 554 LINE",
"646 554 LINE SMOOTH",
"919 554 OFFCURVE",
"1137 716 OFFCURVE",
"1179 1006 CURVE SMOOTH",
"1219 1296 OFFCURVE",
"1041 1446 OFFCURVE",
"761 1446 CURVE SMOOTH",
"351 1446 LINE",
"149 0 LINE"
);
},
{
closed = 1;
nodes = (
"419 1362 LINE",
"747 1362 LINE SMOOTH",
"991 1362 OFFCURVE",
"1131 1252 OFFCURVE",
"1099 1012 CURVE SMOOTH",
"1065 772 OFFCURVE",
"889 640 OFFCURVE",
"659 640 CURVE SMOOTH",
"317 640 LINE"
);
}
);
width = 1168;
}
);
leftKerningGroup = N;
leftMetricsKey = H;
rightKerningGroup = P;
rightMetricsKey = "=O";
unicode = 0050;
},
{
glyphname = Thorn;
lastChange = "2019-07-29 22:34:24 +0000";
layers = (
{
background = {
paths = (
{
closed = 1;
nodes = (
"1448 1060 OFFCURVE",
"1174 1216 OFFCURVE",
"846 1216 CURVE SMOOTH",
"594 1216 LINE SMOOTH",
"579 1216 OFFCURVE",
"574 1224 OFFCURVE",
"574 1240 CURVE SMOOTH",
"574 1442 LINE SMOOTH",
"574 1468 OFFCURVE",
"562 1484 OFFCURVE",
"537 1484 CURVE SMOOTH",
"158 1484 LINE SMOOTH",
"136 1484 OFFCURVE",
"119 1468 OFFCURVE",
"119 1438 CURVE SMOOTH",
"119 50 LINE SMOOTH",
"119 16 OFFCURVE",
"132 0 OFFCURVE",
"172 0 CURVE SMOOTH",
"508 0 LINE SMOOTH",
"554 0 OFFCURVE",
"574 16 OFFCURVE",
"574 58 CURVE SMOOTH",
"574 262 LINE SMOOTH",
"574 276 OFFCURVE",
"579 284 OFFCURVE",
"598 284 CURVE SMOOTH",
"898 284 LINE SMOOTH",
"1224 284 OFFCURVE",
"1448 458 OFFCURVE",
"1448 744 CURVE SMOOTH"
);
},
{
closed = 1;
nodes = (
"984 670 OFFCURVE",
"926 604 OFFCURVE",
"829 604 CURVE SMOOTH",
"608 604 LINE SMOOTH",
"581 604 OFFCURVE",
"574 618 OFFCURVE",
"574 648 CURVE SMOOTH",
"574 854 LINE SMOOTH",
"574 884 OFFCURVE",
"586 896 OFFCURVE",
"619 896 CURVE SMOOTH",
"818 896 LINE SMOOTH",
"909 896 OFFCURVE",
"984 840 OFFCURVE",
"984 750 CURVE SMOOTH"
);
}
);
};
layerId = "258ED206-D907-4350-8EBA-CBDDA1C16BF7";
paths = (
{
closed = 1;
nodes = (
"1427 1032 OFFCURVE",
"1211 1186 OFFCURVE",
"881 1186 CURVE SMOOTH",
"617 1186 LINE",
"654 1446 LINE",
"266 1446 LINE",
"62 0 LINE",
"450 0 LINE",
"489 276 LINE",
"753 276 LINE SMOOTH",
"1083 276 OFFCURVE",
"1345 444 OFFCURVE",
"1385 727 CURVE SMOOTH"
);
},
{
closed = 1;
nodes = (
"966 637 OFFCURVE",
"862 588 OFFCURVE",
"797 588 CURVE SMOOTH",
"533 588 LINE",
"573 875 LINE",
"837 874 LINE SMOOTH",
"902 874 OFFCURVE",
"991 817 OFFCURVE",
"979 727 CURVE SMOOTH"
);
}
);
width = 1415;
},
{
background = {
paths = (
{
closed = 1;
nodes = (
"1207 1044 OFFCURVE",
"987 1158 OFFCURVE",
"675 1158 CURVE SMOOTH",
"317 1158 LINE SMOOTH",
"309 1158 OFFCURVE",
"305 1162 OFFCURVE",
"305 1168 CURVE SMOOTH",
"305 1464 LINE SMOOTH",
"305 1480 OFFCURVE",
"301 1484 OFFCURVE",
"287 1484 CURVE SMOOTH",
"231 1484 LINE SMOOTH",
"217 1484 OFFCURVE",
"213 1480 OFFCURVE",
"213 1464 CURVE SMOOTH",
"213 16 LINE SMOOTH",
"213 6 OFFCURVE",
"219 0 OFFCURVE",
"229 0 CURVE SMOOTH",
"289 0 LINE SMOOTH",
"299 0 OFFCURVE",
"305 6 OFFCURVE",
"305 18 CURVE SMOOTH",
"305 346 LINE SMOOTH",
"305 358 OFFCURVE",
"309 364 OFFCURVE",
"321 364 CURVE SMOOTH",
"687 364 LINE SMOOTH",
"987 364 OFFCURVE",
"1207 478 OFFCURVE",
"1207 780 CURVE SMOOTH"
);
},
{
closed = 1;
nodes = (
"1111 536 OFFCURVE",
"943 444 OFFCURVE",
"687 444 CURVE SMOOTH",
"319 444 LINE SMOOTH",
"309 444 OFFCURVE",
"305 450 OFFCURVE",
"305 464 CURVE SMOOTH",
"305 1062 LINE SMOOTH",
"305 1074 OFFCURVE",
"311 1078 OFFCURVE",
"323 1078 CURVE SMOOTH",
"673 1078 LINE SMOOTH",
"943 1078 OFFCURVE",
"1111 1002 OFFCURVE",
"1111 780 CURVE SMOOTH"
);
}
);
};
layerId = "91AB5BCA-6A50-42DA-B2F7-8181BF189245";
paths = (
{
closed = 1;
nodes = (
"1186 1018 OFFCURVE",
"1003 1130 OFFCURVE",
"720 1130 CURVE SMOOTH",
"387 1130 LINE",
"431 1446 LINE",
"351 1446 LINE",
"148 0 LINE",
"228 0 LINE",
"278 354 LINE",
"622 354 LINE SMOOTH",
"894 354 OFFCURVE",
"1108 466 OFFCURVE",
"1149 760 CURVE SMOOTH"
);
},
{
closed = 1;
nodes = (
"1040 522 OFFCURVE",
"865 436 OFFCURVE",
"634 436 CURVE SMOOTH",
"289 436 LINE",
"375 1048 LINE",
"707 1048 LINE SMOOTH",
"951 1048 OFFCURVE",
"1104 976 OFFCURVE",
"1073 760 CURVE SMOOTH"
);
}
);
width = 1173;
}
);
leftKerningGroup = N;
leftMetricsKey = P;
rightKerningGroup = P;
rightMetricsKey = P;
unicode = 00DE;
},
{
glyphname = Q;
lastChange = "2019-06-12 20:13:09 +0000";
layers = (
{
background = {
paths = (
{
closed = 1;
nodes = (
"74 276 OFFCURVE",
"352 -20 OFFCURVE",
"794 -20 CURVE SMOOTH",
"847 -20 OFFCURVE",
"889 -18 OFFCURVE",
"936 -12 CURVE SMOOTH",
"950 -10 OFFCURVE",
"960 -12 OFFCURVE",
"967 -20 CURVE SMOOTH",
"1080 -168 OFFCURVE",
"1225 -256 OFFCURVE",
"1425 -256 CURVE SMOOTH",
"1488 -256 OFFCURVE",
"1513 -244 OFFCURVE",
"1513 -194 CURVE SMOOTH",
"1513 26 LINE SMOOTH",
"1513 40 OFFCURVE",
"1507 56 OFFCURVE",
"1478 60 CURVE SMOOTH",
"1393 72 OFFCURVE",
"1299 122 OFFCURVE",
"1299 156 CURVE SMOOTH",
"1299 164 OFFCURVE",
"1299 168 OFFCURVE",
"1303 172 CURVE",
"1436 304 OFFCURVE",
"1513 498 OFFCURVE",
"1513 738 CURVE SMOOTH",
"1513 1202 OFFCURVE",
"1227 1504 OFFCURVE",
"794 1504 CURVE SMOOTH",
"360 1504 OFFCURVE",
"74 1202 OFFCURVE",
"74 738 CURVE SMOOTH"
);
},
{
closed = 1;
nodes = (
"551 1064 OFFCURVE",
"620 1196 OFFCURVE",
"794 1196 CURVE SMOOTH",
"967 1196 OFFCURVE",
"1036 1064 OFFCURVE",
"1036 734 CURVE SMOOTH",
"1036 412 OFFCURVE",
"971 292 OFFCURVE",
"794 292 CURVE SMOOTH",
"616 292 OFFCURVE",
"551 412 OFFCURVE",
"551 734 CURVE SMOOTH"
);
}
);
};
layerId = "258ED206-D907-4350-8EBA-CBDDA1C16BF7";
rightMetricsKey = "=O*1.25";
paths = (
{
closed = 1;
nodes = (
"1406 54 LINE",
"1309 54 OFFCURVE",
"1227 104 OFFCURVE",
"1221 160 CURVE",
"1370 300 OFFCURVE",
"1473 486 OFFCURVE",
"1509 720 CURVE SMOOTH",
"1576 1172 OFFCURVE",
"1345 1466 OFFCURVE",
"925 1466 CURVE SMOOTH",
"507 1466 OFFCURVE",
"183 1172 OFFCURVE",
"114 720 CURVE SMOOTH",
"46 270 OFFCURVE",
"272 -20 OFFCURVE",
"700 -20 CURVE SMOOTH",
"750 -20 OFFCURVE",
"790 -18 OFFCURVE",
"860 -10 CURVE",
"998 -226 OFFCURVE",
"1130 -250 OFFCURVE",
"1360 -250 CURVE"
);
},
{
closed = 1;
nodes = (
"576 292 OFFCURVE",
"490 402 OFFCURVE",
"536 716 CURVE SMOOTH",
"586 1038 OFFCURVE",
"710 1154 OFFCURVE",
"878 1154 CURVE SMOOTH",
"1044 1154 OFFCURVE",
"1135 1038 OFFCURVE",
"1086 716 CURVE SMOOTH",
"1038 402 OFFCURVE",
"918 292 OFFCURVE",
"746 292 CURVE SMOOTH"
);
}
);
width = 1587;
},
{
background = {
paths = (
{
closed = 1;
nodes = (
"98 232 OFFCURVE",
"332 -20 OFFCURVE",
"700 -20 CURVE SMOOTH",
"752 -20 OFFCURVE",
"812 -14 OFFCURVE",
"862 -2 CURVE SMOOTH",
"876 2 OFFCURVE",
"886 -2 OFFCURVE",
"892 -10 CURVE SMOOTH",
"1022 -192 OFFCURVE",
"1154 -244 OFFCURVE",
"1242 -244 CURVE SMOOTH",
"1270 -244 OFFCURVE",
"1282 -240 OFFCURVE",
"1282 -218 CURVE SMOOTH",
"1282 -174 LINE SMOOTH",
"1282 -168 OFFCURVE",
"1280 -162 OFFCURVE",
"1269 -160 CURVE SMOOTH",
"1118 -140 OFFCURVE",
"984 -22 OFFCURVE",
"984 32 CURVE SMOOTH",
"984 40 OFFCURVE",
"986 44 OFFCURVE",
"996 50 CURVE SMOOTH",
"1190 166 OFFCURVE",
"1302 378 OFFCURVE",
"1302 738 CURVE SMOOTH",
"1302 1240 OFFCURVE",
"1076 1504 OFFCURVE",
"700 1504 CURVE SMOOTH",
"324 1504 OFFCURVE",
"98 1240 OFFCURVE",
"98 738 CURVE SMOOTH"
);
},
{
closed = 1;
nodes = (
"194 1184 OFFCURVE",
"366 1420 OFFCURVE",
"700 1420 CURVE SMOOTH",
"1034 1420 OFFCURVE",
"1206 1184 OFFCURVE",
"1206 738 CURVE SMOOTH",
"1206 282 OFFCURVE",
"1028 64 OFFCURVE",
"700 64 CURVE SMOOTH",
"372 64 OFFCURVE",
"194 282 OFFCURVE",
"194 734 CURVE SMOOTH"
);
}
);
};
layerId = "91AB5BCA-6A50-42DA-B2F7-8181BF189245";
rightMetricsKey = "=O*1.25";
paths = (
{
closed = 1;
nodes = (
"1094 -158 LINE",
"978 -152 OFFCURVE",
"882 -100 OFFCURVE",
"840 36 CURVE",
"1072 158 OFFCURVE",
"1188 388 OFFCURVE",
"1234 720 CURVE SMOOTH",
"1302 1210 OFFCURVE",
"1136 1466 OFFCURVE",
"800 1466 CURVE SMOOTH",
"462 1466 OFFCURVE",
"222 1210 OFFCURVE",
"154 720 CURVE SMOOTH",
"84 226 OFFCURVE",
"262 -20 OFFCURVE",
"590 -20 CURVE SMOOTH",
"642 -20 OFFCURVE",
"694 -12 OFFCURVE",
"756 2 CURVE",
"822 -196 OFFCURVE",
"994 -238 OFFCURVE",
"1082 -238 CURVE"
);
},
{
closed = 1;
nodes = (
"308 62 OFFCURVE",
"172 274 OFFCURVE",
"234 716 CURVE SMOOTH",
"296 1154 OFFCURVE",
"488 1384 OFFCURVE",
"788 1384 CURVE SMOOTH",
"1088 1384 OFFCURVE",
"1216 1154 OFFCURVE",
"1154 720 CURVE SMOOTH",
"1092 274 OFFCURVE",
"896 62 OFFCURVE",
"603 62 CURVE SMOOTH"
);
}
);
width = 1361;
}
);
leftKerningGroup = O;
leftMetricsKey = O;
rightKerningGroup = O;
rightMetricsKey = "=O*1.25";
unicode = 0051;
},
{
glyphname = R;
lastChange = "2019-08-05 21:58:06 +0000";
layers = (
{
anchors = (
{
name = bottom;
position = "{643, 0}";
},
{
name = top;
position = "{843, 1446}";
}
);
background = {
anchors = (
{
name = bottom;
position = "{745, 0}";
},
{
name = top;
position = "{725, 1484}";
}
);
paths = (
{
closed = 1;
nodes = (
"1159 624 LINE SMOOTH",
"1153 640 OFFCURVE",
"1153 656 OFFCURVE",
"1167 662 CURVE SMOOTH",
"1319 720 OFFCURVE",
"1429 872 OFFCURVE",
"1429 1060 CURVE SMOOTH",
"1429 1328 OFFCURVE",
"1205 1484 OFFCURVE",
"819 1484 CURVE SMOOTH",
"150 1484 LINE SMOOTH",
"127 1484 OFFCURVE",
"113 1468 OFFCURVE",
"113 1438 CURVE SMOOTH",
"113 50 LINE SMOOTH",
"113 16 OFFCURVE",
"125 0 OFFCURVE",
"165 0 CURVE SMOOTH",
"501 0 LINE SMOOTH",
"547 0 OFFCURVE",
"566 16 OFFCURVE",
"566 58 CURVE SMOOTH",
"566 568 LINE SMOOTH",
"566 574 OFFCURVE",
"573 590 OFFCURVE",
"591 590 CURVE SMOOTH",
"683 590 LINE SMOOTH",
"721 590 OFFCURVE",
"737 580 OFFCURVE",
"745 558 CURVE SMOOTH",
"933 42 LINE SMOOTH",
"940 14 OFFCURVE",
"959 0 OFFCURVE",
"987 0 CURVE SMOOTH",
"1375 0 LINE SMOOTH",
"1407 0 OFFCURVE",
"1425 30 OFFCURVE",
"1411 64 CURVE SMOOTH"
);
},
{
closed = 1;
nodes = (
"601 888 LINE SMOOTH",
"575 888 OFFCURVE",
"566 900 OFFCURVE",
"566 930 CURVE SMOOTH",
"566 1148 LINE SMOOTH",
"566 1178 OFFCURVE",
"579 1188 OFFCURVE",
"613 1188 CURVE SMOOTH",
"789 1188 LINE SMOOTH",
"879 1188 OFFCURVE",
"959 1134 OFFCURVE",
"959 1032 CURVE SMOOTH",
"959 946 OFFCURVE",
"903 888 OFFCURVE",
"801 888 CURVE SMOOTH"
);
}
);
};
layerId = "258ED206-D907-4350-8EBA-CBDDA1C16BF7";
rightMetricsKey = "=H/1.5";
paths = (
{
closed = 1;
nodes = (
"449 0 LINE",
"524 498 LINE",
"728 498 LINE",
"861 0 LINE",
"1257 0 LINE",
"1089 560 LINE",
"1234 642 OFFCURVE",
"1347 758 OFFCURVE",
"1381 980 CURVE SMOOTH",
"1421 1242 OFFCURVE",
"1307 1446 OFFCURVE",
"933 1446 CURVE SMOOTH",
"281 1446 LINE",
"62 0 LINE"
);
},
{
closed = 1;
nodes = (
"625 1158 LINE",
"847 1158 LINE SMOOTH",
"933 1158 OFFCURVE",
"1007 1076 OFFCURVE",
"991 976 CURVE SMOOTH",
"977 882 OFFCURVE",
"889 788 OFFCURVE",
"791 788 CURVE SMOOTH",
"569 788 LINE"
);
}
);
width = 1420;
},
{
anchors = (
{
name = bottom;
position = "{545, 0}";
},
{
name = top;
position = "{735, 1446}";
}
);
background = {
anchors = (
{
name = bottom;
position = "{661, 0}";
},
{
name = top;
position = "{647, 1484}";
}
);
paths = (
{
closed = 1;
nodes = (
"885 718 LINE",
"883 724 OFFCURVE",
"885 730 OFFCURVE",
"893 732 CURVE SMOOTH",
"1031 768 OFFCURVE",
"1197 870 OFFCURVE",
"1197 1116 CURVE SMOOTH",
"1197 1360 OFFCURVE",
"1029 1484 OFFCURVE",
"741 1484 CURVE SMOOTH",
"225 1484 LINE SMOOTH",
"211 1484 OFFCURVE",
"207 1480 OFFCURVE",
"207 1464 CURVE SMOOTH",
"207 18 LINE SMOOTH",
"207 6 OFFCURVE",
"211 0 OFFCURVE",
"227 0 CURVE SMOOTH",
"279 0 LINE SMOOTH",
"295 0 OFFCURVE",
"299 6 OFFCURVE",
"299 22 CURVE SMOOTH",
"299 688 LINE SMOOTH",
"299 702 OFFCURVE",
"305 710 OFFCURVE",
"323 710 CURVE SMOOTH",
"755 710 LINE SMOOTH",
"781 710 OFFCURVE",
"791 704 OFFCURVE",
"797 690 CURVE SMOOTH",
"1081 18 LINE SMOOTH",
"1087 6 OFFCURVE",
"1091 0 OFFCURVE",
"1105 0 CURVE SMOOTH",
"1161 0 LINE SMOOTH",
"1175 0 OFFCURVE",
"1183 14 OFFCURVE",
"1177 28 CURVE SMOOTH"
);
},
{
closed = 1;
nodes = (
"313 790 LINE SMOOTH",
"303 790 OFFCURVE",
"299 796 OFFCURVE",
"299 808 CURVE SMOOTH",
"299 1388 LINE SMOOTH",
"299 1400 OFFCURVE",
"305 1404 OFFCURVE",
"321 1404 CURVE SMOOTH",
"739 1404 LINE SMOOTH",
"981 1404 OFFCURVE",
"1101 1306 OFFCURVE",
"1101 1102 CURVE SMOOTH",
"1101 878 OFFCURVE",
"957 790 OFFCURVE",
"671 790 CURVE SMOOTH"
);
}
);
};
layerId = "91AB5BCA-6A50-42DA-B2F7-8181BF189245";
paths = (
{
closed = 1;
nodes = (
"219 0 LINE",
"317 688 LINE",
"763 688 LINE",
"935 0 LINE",
"1017 0 LINE",
"841 706 LINE",
"975 742 OFFCURVE",
"1145 846 OFFCURVE",
"1179 1088 CURVE SMOOTH",
"1211 1326 OFFCURVE",
"1077 1446 OFFCURVE",
"819 1446 CURVE SMOOTH",
"351 1446 LINE",
"147 0 LINE"
);
},
{
closed = 1;
nodes = (
"411 1366 LINE",
"807 1366 LINE SMOOTH",
"1025 1366 OFFCURVE",
"1127 1280 OFFCURVE",
"1099 1074 CURVE SMOOTH",
"1069 856 OFFCURVE",
"919 770 OFFCURVE",
"663 770 CURVE SMOOTH",
"327 770 LINE"
);
}
);
width = 1244;
}
);
leftKerningGroup = N;
leftMetricsKey = H;
rightKerningGroup = R;
rightMetricsKey = "=X+30";
unicode = 0052;
},
{
glyphname = S;
lastChange = "2019-07-17 19:35:23 +0000";
layers = (
{
anchors = (
{
name = bottom;
position = "{650, 0}";
},
{
name = top;
position = "{870, 1446}";
}
);
background = {
anchors = (
{
name = bottom;
position = "{757, 0}";
},
{
name = top;
position = "{757, 1484}";
}
);
paths = (
{
closed = 1;
nodes = (
"1062 1058 OFFCURVE",
"1074 1056 OFFCURVE",
"1095 1070 CURVE SMOOTH",
"1312 1228 LINE SMOOTH",
"1338 1248 OFFCURVE",
"1324 1270 OFFCURVE",
"1312 1288 CURVE SMOOTH",
"1221 1418 OFFCURVE",
"994 1504 OFFCURVE",
"757 1504 CURVE SMOOTH",
"378 1504 OFFCURVE",
"141 1290 OFFCURVE",
"141 1030 CURVE SMOOTH",
"141 820 OFFCURVE",
"292 646 OFFCURVE",
"532 586 CURVE SMOOTH",
"836 512 LINE SMOOTH",
"922 492 OFFCURVE",
"962 452 OFFCURVE",
"962 404 CURVE SMOOTH",
"962 330 OFFCURVE",
"866 288 OFFCURVE",
"721 288 CURVE SMOOTH",
"562 288 OFFCURVE",
"484 334 OFFCURVE",
"396 448 CURVE SMOOTH",
"380 468 OFFCURVE",
"356 476 OFFCURVE",
"320 452 CURVE SMOOTH",
"114 310 LINE SMOOTH",
"86 288 OFFCURVE",
"86 272 OFFCURVE",
"102 244 CURVE SMOOTH",
"196 86 OFFCURVE",
"462 -20 OFFCURVE",
"754 -20 CURVE SMOOTH",
"1148 -20 OFFCURVE",
"1394 172 OFFCURVE",
"1394 468 CURVE SMOOTH",
"1394 674 OFFCURVE",
"1278 842 OFFCURVE",
"1028 904 CURVE SMOOTH",
"696 990 LINE SMOOTH",
"597 1014 OFFCURVE",
"568 1056 OFFCURVE",
"568 1092 CURVE SMOOTH",
"568 1142 OFFCURVE",
"622 1194 OFFCURVE",
"772 1194 CURVE SMOOTH",
"929 1194 OFFCURVE",
"986 1138 OFFCURVE",
"1034 1086 CURVE SMOOTH"
);
}
);
};
guideLines = (
{
angle = 214.3236;
position = "{683, 302}";
}
);
layerId = "258ED206-D907-4350-8EBA-CBDDA1C16BF7";
leftMetricsKey = "=O";
rightMetricsKey = "=O/1.1";
paths = (
{
closed = 1;
nodes = (
"1015 -20 OFFCURVE",
"1312 164 OFFCURVE",
"1349 410 CURVE SMOOTH",
"1370 554 OFFCURVE",
"1385 814 OFFCURVE",
"978 886 CURVE SMOOTH",
"761 924 LINE SMOOTH",
"639 946 OFFCURVE",
"612 984 OFFCURVE",
"622 1050 CURVE SMOOTH",
"630 1102 OFFCURVE",
"685 1164 OFFCURVE",
"836 1164 CURVE SMOOTH",
"971 1164 OFFCURVE",
"1044 1120 OFFCURVE",
"1038 1008 CURVE",
"1431 1008 LINE",
"1440 1246 OFFCURVE",
"1225 1464 OFFCURVE",
"872 1464 CURVE SMOOTH",
"542 1464 OFFCURVE",
"242 1294 OFFCURVE",
"200 1002 CURVE SMOOTH",
"168 756 OFFCURVE",
"294 612 OFFCURVE",
"515 576 CURVE SMOOTH",
"732 538 LINE SMOOTH",
"851 518 OFFCURVE",
"967 498 OFFCURVE",
"954 410 CURVE SMOOTH",
"938 308 OFFCURVE",
"818 278 OFFCURVE",
"696 278 CURVE SMOOTH",
"562 278 OFFCURVE",
"482 338 OFFCURVE",
"476 440 CURVE",
"74 440 LINE",
"51 118 OFFCURVE",
"352 -20 OFFCURVE",
"654 -20 CURVE SMOOTH"
);
}
);
width = 1441;
},
{
anchors = (
{
name = bottom;
position = "{526, 0}";
},
{
name = top;
position = "{741, 1446}";
}
);
background = {
anchors = (
{
name = bottom;
position = "{665, 0}";
},
{
name = top;
position = "{657, 1484}";
}
);
paths = (
{
closed = 1;
nodes = (
"1031 1240 OFFCURVE",
"1035 1236 OFFCURVE",
"1045 1244 CURVE SMOOTH",
"1089 1284 LINE SMOOTH",
"1100 1294 OFFCURVE",
"1096 1304 OFFCURVE",
"1089 1312 CURVE SMOOTH",
"974 1432 OFFCURVE",
"840 1504 OFFCURVE",
"655 1504 CURVE SMOOTH",
"381 1504 OFFCURVE",
"190 1362 OFFCURVE",
"190 1112 CURVE SMOOTH",
"190 984 OFFCURVE",
"251 842 OFFCURVE",
"466 760 CURVE SMOOTH",
"768 644 LINE SMOOTH",
"987 560 OFFCURVE",
"1033 478 OFFCURVE",
"1033 360 CURVE SMOOTH",
"1033 146 OFFCURVE",
"875 64 OFFCURVE",
"636 64 CURVE SMOOTH",
"423 64 OFFCURVE",
"327 138 OFFCURVE",
"215 282 CURVE SMOOTH",
"205 294 OFFCURVE",
"195 296 OFFCURVE",
"174 282 CURVE SMOOTH",
"153 266 LINE SMOOTH",
"132 252 OFFCURVE",
"131 240 OFFCURVE",
"140 226 CURVE SMOOTH",
"258 58 OFFCURVE",
"415 -20 OFFCURVE",
"636 -20 CURVE SMOOTH",
"938 -20 OFFCURVE",
"1125 120 OFFCURVE",
"1125 364 CURVE SMOOTH",
"1125 532 OFFCURVE",
"1039 652 OFFCURVE",
"802 738 CURVE SMOOTH",
"526 838 LINE SMOOTH",
"312 916 OFFCURVE",
"283 1036 OFFCURVE",
"283 1114 CURVE SMOOTH",
"283 1312 OFFCURVE",
"430 1420 OFFCURVE",
"648 1420 CURVE SMOOTH",
"816 1420 OFFCURVE",
"938 1348 OFFCURVE",
"1018 1254 CURVE SMOOTH"
);
}
);
};
layerId = "91AB5BCA-6A50-42DA-B2F7-8181BF189245";
rightMetricsKey = "=O*1.2";
paths = (
{
closed = 1;
nodes = (
"865 -20 OFFCURVE",
"1042 150 OFFCURVE",
"1068 354 CURVE SMOOTH",
"1090 518 OFFCURVE",
"1036 672 OFFCURVE",
"837 731 CURVE SMOOTH",
"567 811 LINE SMOOTH",
"369 870 OFFCURVE",
"310 942 OFFCURVE",
"326 1066 CURVE SMOOTH",
"355 1286 OFFCURVE",
"569 1382 OFFCURVE",
"726 1382 CURVE SMOOTH",
"903 1382 OFFCURVE",
"1064 1304 OFFCURVE",
"1054 1064 CURVE",
"1136 1064 LINE",
"1162 1258 OFFCURVE",
"1037 1464 OFFCURVE",
"740 1464 CURVE SMOOTH",
"475 1464 OFFCURVE",
"278 1292 OFFCURVE",
"249 1064 CURVE SMOOTH",
"226 892 OFFCURVE",
"322 787 OFFCURVE",
"509 734 CURVE SMOOTH",
"791 654 LINE SMOOTH",
"952 608 OFFCURVE",
"1010 504 OFFCURVE",
"990 350 CURVE SMOOTH",
"968 180 OFFCURVE",
"793 58 OFFCURVE",
"564 58 CURVE SMOOTH",
"372 58 OFFCURVE",
"211 158 OFFCURVE",
"196 354 CURVE",
"115 354 LINE",
"123 112 OFFCURVE",
"313 -20 OFFCURVE",
"554 -20 CURVE SMOOTH"
);
}
);
width = 1241;
}
);
leftKerningGroup = S;
leftMetricsKey = "=O*1.1";
rightKerningGroup = S;
rightMetricsKey = "=O";
unicode = 0053;
},
{
glyphname = Schwa;
lastChange = "2019-08-08 21:04:02 +0000";
layers = (
{
background = {
paths = (
{
closed = 1;
nodes = (
"1022 862 OFFCURVE",
"1008 850 OFFCURVE",
"982 850 CURVE SMOOTH",
"117 850 LINE SMOOTH",
"73 850 OFFCURVE",
"71 828 OFFCURVE",
"71 784 CURVE SMOOTH",
"71 272 OFFCURVE",
"312 -20 OFFCURVE",
"779 -20 CURVE SMOOTH",
"1165 -20 OFFCURVE",
"1502 316 OFFCURVE",
"1502 760 CURVE SMOOTH",
"1502 1198 OFFCURVE",
"1228 1504 OFFCURVE",
"785 1504 CURVE SMOOTH",
"493 1504 OFFCURVE",
"281 1378 OFFCURVE",
"157 1134 CURVE SMOOTH",
"140 1102 OFFCURVE",
"142 1084 OFFCURVE",
"166 1072 CURVE SMOOTH",
"442 936 LINE SMOOTH",
"476 918 OFFCURVE",
"489 924 OFFCURVE",
"497 938 CURVE SMOOTH",
"588 1088 OFFCURVE",
"665 1156 OFFCURVE",
"789 1156 CURVE SMOOTH",
"984 1156 OFFCURVE",
"1022 1012 OFFCURVE",
"1022 894 CURVE SMOOTH"
);
},
{
closed = 1;
nodes = (
"995 384 OFFCURVE",
"936 292 OFFCURVE",
"774 292 CURVE SMOOTH",
"638 292 OFFCURVE",
"556 402 OFFCURVE",
"556 534 CURVE SMOOTH",
"556 564 OFFCURVE",
"566 570 OFFCURVE",
"600 570 CURVE SMOOTH",
"1018 568 LINE"
);
}
);
};
layerId = "258ED206-D907-4350-8EBA-CBDDA1C16BF7";
paths = (
{
closed = 1;
nodes = (
"1103 -20 OFFCURVE",
"1439 218 OFFCURVE",
"1513 742 CURVE SMOOTH",
"1578 1208 OFFCURVE",
"1349 1466 OFFCURVE",
"911 1466 CURVE SMOOTH",
"486 1466 OFFCURVE",
"177 1172 OFFCURVE",
"143 932 CURVE",
"577 932 LINE",
"589 1015 OFFCURVE",
"702 1108 OFFCURVE",
"852 1108 CURVE SMOOTH",
"1002 1108 OFFCURVE",
"1083 1008 OFFCURVE",
"1058 828 CURVE",
"129 828 LINE",
"43 221 OFFCURVE",
"303 -20 OFFCURVE",
"703 -20 CURVE SMOOTH"
);
},
{
closed = 1;
nodes = (
"611 314 OFFCURVE",
"545 408 OFFCURVE",
"566 556 CURVE",
"1015 554 LINE",
"995 408 OFFCURVE",
"902 314 OFFCURVE",
"750 314 CURVE SMOOTH"
);
}
);
width = 1566;
},
{
background = {
paths = (
{
closed = 1;
nodes = (
"1252 762 OFFCURVE",
"1250 760 OFFCURVE",
"1240 760 CURVE SMOOTH",
"170 760 LINE SMOOTH",
"154 760 OFFCURVE",
"154 750 OFFCURVE",
"154 738 CURVE SMOOTH",
"154 348 OFFCURVE",
"286 -20 OFFCURVE",
"756 -20 CURVE SMOOTH",
"1214 -20 OFFCURVE",
"1356 360 OFFCURVE",
"1356 732 CURVE SMOOTH",
"1356 1062 OFFCURVE",
"1256 1504 OFFCURVE",
"756 1504 CURVE SMOOTH",
"300 1504 OFFCURVE",
"212 1120 OFFCURVE",
"182 1044 CURVE SMOOTH",
"178 1034 OFFCURVE",
"176 1028 OFFCURVE",
"185 1026 CURVE SMOOTH",
"260 1000 LINE SMOOTH",
"268 998 OFFCURVE",
"272 996 OFFCURVE",
"274 1000 CURVE SMOOTH",
"302 1062 OFFCURVE",
"338 1418 OFFCURVE",
"756 1418 CURVE SMOOTH",
"1192 1418 OFFCURVE",
"1252 1008 OFFCURVE",
"1252 772 CURVE SMOOTH"
);
},
{
closed = 1;
nodes = (
"1246 382 OFFCURVE",
"1148 66 OFFCURVE",
"756 66 CURVE SMOOTH",
"362 66 OFFCURVE",
"258 384 OFFCURVE",
"258 664 CURVE SMOOTH",
"258 672 OFFCURVE",
"262 676 OFFCURVE",
"274 676 CURVE SMOOTH",
"1252 676 LINE"
);
}
);
};
layerId = "91AB5BCA-6A50-42DA-B2F7-8181BF189245";
paths = (
{
closed = 1;
nodes = (
"935 -20 OFFCURVE",
"1173 240 OFFCURVE",
"1240 720 CURVE SMOOTH",
"1305 1185 OFFCURVE",
"1144 1466 OFFCURVE",
"806 1466 CURVE SMOOTH",
"468 1466 OFFCURVE",
"219 1185 OFFCURVE",
"189 972 CURVE",
"278 972 LINE",
"303 1147 OFFCURVE",
"493 1382 OFFCURVE",
"794 1382 CURVE SMOOTH",
"1095 1382 OFFCURVE",
"1219 1146 OFFCURVE",
"1162 742 CURVE",
"160 742 LINE",
"89 238 OFFCURVE",
"259 -20 OFFCURVE",
"597 -20 CURVE SMOOTH"
);
},
{
closed = 1;
nodes = (
"308 64 OFFCURVE",
"188 320 OFFCURVE",
"235 660 CURVE",
"1150 660 LINE",
"1097 322 OFFCURVE",
"910 64 OFFCURVE",
"609 64 CURVE SMOOTH"
);
}
);
width = 1336;
}
);
leftKerningGroup = e;
leftMetricsKey = O;
rightKerningGroup = e;
rightMetricsKey = O;
unicode = 018F;
},
{
glyphname = T;
lastChange = "2020-01-08 00:41:21 +0000";
layers = (
{
anchors = (
{
name = bottom;
position = "{564, 0}";
},
{
name = top;
position = "{784, 1446}";
}
);
background = {
anchors = (
{
name = bottom;
position = "{682, 0}";
},
{
name = top;
position = "{682, 1484}";
}
);
paths = (
{
closed = 1;
nodes = (
"34 1172 OFFCURVE",
"52 1162 OFFCURVE",
"80 1162 CURVE SMOOTH",
"432 1162 LINE SMOOTH",
"448 1162 OFFCURVE",
"454 1154 OFFCURVE",
"454 1134 CURVE SMOOTH",
"454 40 LINE SMOOTH",
"454 14 OFFCURVE",
"468 0 OFFCURVE",
"490 0 CURVE SMOOTH",
"870 0 LINE SMOOTH",
"892 0 OFFCURVE",
"908 14 OFFCURVE",
"908 44 CURVE SMOOTH",
"908 1142 LINE SMOOTH",
"908 1156 OFFCURVE",
"916 1162 OFFCURVE",
"932 1162 CURVE SMOOTH",
"1286 1162 LINE SMOOTH",
"1312 1162 OFFCURVE",
"1330 1172 OFFCURVE",
"1330 1200 CURVE SMOOTH",
"1330 1438 LINE SMOOTH",
"1330 1464 OFFCURVE",
"1314 1484 OFFCURVE",
"1280 1484 CURVE SMOOTH",
"84 1484 LINE SMOOTH",
"50 1484 OFFCURVE",
"34 1464 OFFCURVE",
"34 1438 CURVE SMOOTH",
"34 1200 LINE SMOOTH"
);
}
);
};
layerId = "258ED206-D907-4350-8EBA-CBDDA1C16BF7";
leftMetricsKey = "=X";
rightMetricsKey = "=X";
paths = (
{
closed = 1;
nodes = (
"738 0 LINE",
"906 1104 LINE",
"1318 1104 LINE",
"1370 1446 LINE",
"164 1446 LINE",
"112 1104 LINE",
"518 1104 LINE",
"352 0 LINE"
);
}
);
width = 1269;
},
{
anchors = (
{
name = bottom;
position = "{482, 4}";
},
{
name = top;
position = "{684, 1446}";
}
);
background = {
anchors = (
{
name = bottom;
position = "{600, 0}";
},
{
name = top;
position = "{600, 1484}";
}
);
paths = (
{
closed = 1;
nodes = (
"49 1406 OFFCURVE",
"52 1404 OFFCURVE",
"64 1404 CURVE SMOOTH",
"532 1404 LINE SMOOTH",
"549 1404 OFFCURVE",
"552 1402 OFFCURVE",
"552 1386 CURVE SMOOTH",
"552 20 LINE SMOOTH",
"552 4 OFFCURVE",
"556 0 OFFCURVE",
"572 0 CURVE SMOOTH",
"627 0 LINE SMOOTH",
"640 0 OFFCURVE",
"644 4 OFFCURVE",
"644 20 CURVE SMOOTH",
"644 1386 LINE SMOOTH",
"644 1402 OFFCURVE",
"648 1404 OFFCURVE",
"664 1404 CURVE SMOOTH",
"1091 1404 LINE SMOOTH",
"1102 1404 OFFCURVE",
"1106 1406 OFFCURVE",
"1106 1418 CURVE SMOOTH",
"1106 1470 LINE SMOOTH",
"1106 1480 OFFCURVE",
"1102 1484 OFFCURVE",
"1092 1484 CURVE SMOOTH",
"62 1484 LINE SMOOTH",
"52 1484 OFFCURVE",
"49 1480 OFFCURVE",
"49 1470 CURVE SMOOTH",
"49 1418 LINE SMOOTH"
);
}
);
};
layerId = "91AB5BCA-6A50-42DA-B2F7-8181BF189245";
leftMetricsKey = "=X/2";
rightMetricsKey = "=X/2";
paths = (
{
closed = 1;
nodes = (
"514 0 LINE",
"706 1366 LINE",
"1127 1366 LINE",
"1136 1446 LINE",
"188 1446 LINE",
"178 1366 LINE",
"634 1366 LINE",
"442 0 LINE"
);
}
);
width = 1066;
}
);
leftKerningGroup = T;
leftMetricsKey = X;
rightKerningGroup = T;
rightMetricsKey = X;
unicode = 0054;
},
{
glyphname = Tbar;
lastChange = "2019-06-12 20:13:09 +0000";
layers = (
{
background = {
components = (
{
name = T;
transform = "{1, 0, 0, 1, -22, 0}";
}
);
paths = (
{
closed = 1;
nodes = (
"1064 828 OFFCURVE",
"1050 844 OFFCURVE",
"1028 844 CURVE SMOOTH",
"226 844 LINE SMOOTH",
"202 844 OFFCURVE",
"188 828 OFFCURVE",
"188 798 CURVE SMOOTH",
"188 612 LINE SMOOTH",
"188 578 OFFCURVE",
"200 562 OFFCURVE",
"240 562 CURVE SMOOTH",
"998 562 LINE SMOOTH",
"1044 562 OFFCURVE",
"1064 578 OFFCURVE",
"1064 618 CURVE SMOOTH",
"1064 804 LINE SMOOTH"
);
}
);
};
components = (
{
name = T;
}
);
layerId = "258ED206-D907-4350-8EBA-CBDDA1C16BF7";
paths = (
{
closed = 1;
nodes = (
"1052 548 LINE",
"1092 822 LINE",
"238 822 LINE",
"198 548 LINE"
);
}
);
width = 1269;
},
{
background = {
components = (
{
name = T;
transform = "{1, 0, 0, 1, 4, 0}";
}
);
guideLines = (
{
angle = 90;
position = "{179, 188}";
showMeasurement = 1;
}
);
paths = (
{
closed = 1;
nodes = (
"1016 798 OFFCURVE",
"1012 804 OFFCURVE",
"1002 804 CURVE SMOOTH",
"298 804 LINE SMOOTH",
"288 804 OFFCURVE",
"284 798 OFFCURVE",
"284 786 CURVE SMOOTH",
"284 740 LINE SMOOTH",
"284 726 OFFCURVE",
"288 720 OFFCURVE",
"304 720 CURVE SMOOTH",
"990 720 LINE SMOOTH",
"1008 720 OFFCURVE",
"1016 726 OFFCURVE",
"1016 742 CURVE SMOOTH",
"1016 788 LINE SMOOTH"
);
}
);
};
components = (
{
name = T;
}
);
guideLines = (
{
angle = 90;
position = "{233, 175}";
showMeasurement = 1;
}
);
layerId = "91AB5BCA-6A50-42DA-B2F7-8181BF189245";
paths = (
{
closed = 1;
nodes = (
"928 702 LINE",
"928 784 LINE",
"214 784 LINE",
"214 702 LINE"
);
}
);
width = 1066;
}
);
leftKerningGroup = T;
leftMetricsKey = T;
rightKerningGroup = T;
rightMetricsKey = T;
unicode = 0166;
},
{
glyphname = U;
lastChange = "2019-08-05 20:25:10 +0000";
layers = (
{
anchors = (
{
name = bottom;
position = "{675, 0}";
},
{
name = horn;
position = "{1394, 1094}";
},
{
name = ogonek;
position = "{837, 24}";
},
{
name = top;
position = "{894, 1446}";
}
);
background = {
anchors = (
{
name = ogonek;
position = "{977, 20}";
},
{
name = top;
position = "{787, 1484}";
}
);
paths = (
{
closed = 1;
nodes = (
"1393 1442 LINE SMOOTH",
"1393 1468 OFFCURVE",
"1381 1484 OFFCURVE",
"1356 1484 CURVE SMOOTH",
"1057 1484 LINE SMOOTH",
"1033 1484 OFFCURVE",
"1019 1468 OFFCURVE",
"1019 1438 CURVE SMOOTH",
"1019 584 LINE SMOOTH",
"1019 362 OFFCURVE",
"911 298 OFFCURVE",
"787 298 CURVE SMOOTH",
"650 298 OFFCURVE",
"566 374 OFFCURVE",
"566 578 CURVE SMOOTH",
"566 1442 LINE SMOOTH",
"566 1468 OFFCURVE",
"555 1484 OFFCURVE",
"531 1484 CURVE SMOOTH",
"150 1484 LINE SMOOTH",
"129 1484 OFFCURVE",
"113 1468 OFFCURVE",
"113 1438 CURVE SMOOTH",
"113 626 LINE SMOOTH",
"113 208 OFFCURVE",
"274 -20 OFFCURVE",
"753 -20 CURVE SMOOTH",
"1135 -20 OFFCURVE",
"1393 124 OFFCURVE",
"1393 586 CURVE SMOOTH"
);
}
);
};
layerId = "258ED206-D907-4350-8EBA-CBDDA1C16BF7";
paths = (
{
closed = 1;
nodes = (
"1135 -20 OFFCURVE",
"1331 230 OFFCURVE",
"1387 598 CURVE SMOOTH",
"1515 1446 LINE",
"1123 1446 LINE",
"993 582 LINE SMOOTH",
"963 382 OFFCURVE",
"841 306 OFFCURVE",
"723 306 CURVE SMOOTH",
"601 306 OFFCURVE",
"505 382 OFFCURVE",
"535 582 CURVE SMOOTH",
"667 1446 LINE",
"274 1446 LINE",
"146 598 LINE SMOOTH",
"91 230 OFFCURVE",
"209 -20 OFFCURVE",
"673 -20 CURVE SMOOTH"
);
}
);
width = 1492;
},
{
anchors = (
{
name = bottom;
position = "{585, 4}";
},
{
name = horn;
position = "{1171, 1212}";
},
{
name = ogonek;
position = "{719, 18}";
},
{
name = top;
position = "{793, 1446}";
}
);
background = {
anchors = (
{
name = ogonek;
position = "{849, 18}";
},
{
name = top;
position = "{713, 1484}";
}
);
paths = (
{
closed = 1;
nodes = (
"1199 1466 LINE SMOOTH",
"1199 1478 OFFCURVE",
"1195 1484 OFFCURVE",
"1183 1484 CURVE SMOOTH",
"1135 1484 LINE SMOOTH",
"1123 1484 OFFCURVE",
"1119 1478 OFFCURVE",
"1119 1466 CURVE SMOOTH",
"1119 458 LINE SMOOTH",
"1119 194 OFFCURVE",
"985 64 OFFCURVE",
"709 64 CURVE SMOOTH",
"437 64 OFFCURVE",
"303 192 OFFCURVE",
"303 452 CURVE SMOOTH",
"303 1464 LINE SMOOTH",
"303 1480 OFFCURVE",
"299 1484 OFFCURVE",
"283 1484 CURVE SMOOTH",
"227 1484 LINE SMOOTH",
"215 1484 OFFCURVE",
"211 1478 OFFCURVE",
"211 1462 CURVE SMOOTH",
"211 490 LINE SMOOTH",
"211 142 OFFCURVE",
"369 -20 OFFCURVE",
"705 -20 CURVE SMOOTH",
"1037 -20 OFFCURVE",
"1199 138 OFFCURVE",
"1199 460 CURVE SMOOTH"
);
}
);
};
layerId = "91AB5BCA-6A50-42DA-B2F7-8181BF189245";
paths = (
{
closed = 1;
nodes = (
"881 -20 OFFCURVE",
"1047 134 OFFCURVE",
"1091 448 CURVE SMOOTH",
"1230 1446 LINE",
"1159 1446 LINE",
"1019 444 LINE SMOOTH",
"983 188 OFFCURVE",
"841 56 OFFCURVE",
"595 56 CURVE SMOOTH",
"351 56 OFFCURVE",
"253 192 OFFCURVE",
"289 444 CURVE SMOOTH",
"429 1446 LINE",
"351 1446 LINE",
"215 478 LINE SMOOTH",
"167 138 OFFCURVE",
"283 -20 OFFCURVE",
"585 -20 CURVE SMOOTH"
);
}
);
width = 1277;
}
);
leftKerningGroup = U;
leftMetricsKey = H;
rightKerningGroup = U;
rightMetricsKey = "=H/1.25";
unicode = 0055;
},
{
glyphname = V;
lastChange = "2020-01-08 04:36:49 +0000";
layers = (
{
background = {
paths = (
{
closed = 1;
nodes = (
"1117 1484 LINE SMOOTH",
"1093 1484 OFFCURVE",
"1071 1468 OFFCURVE",
"1064 1442 CURVE SMOOTH",
"814 566 LINE SMOOTH",
"809 546 OFFCURVE",
"801 546 OFFCURVE",
"795 564 CURVE SMOOTH",
"527 1442 LINE SMOOTH",
"519 1468 OFFCURVE",
"501 1484 OFFCURVE",
"477 1484 CURVE SMOOTH",
"91 1484 LINE SMOOTH",
"59 1484 OFFCURVE",
"41 1456 OFFCURVE",
"53 1426 CURVE SMOOTH",
"517 50 LINE SMOOTH",
"527 16 OFFCURVE",
"551 0 OFFCURVE",
"591 0 CURVE SMOOTH",
"915 0 LINE SMOOTH",
"955 0 OFFCURVE",
"979 16 OFFCURVE",
"989 50 CURVE SMOOTH",
"1453 1426 LINE SMOOTH",
"1463 1456 OFFCURVE",
"1447 1484 OFFCURVE",
"1415 1484 CURVE SMOOTH"
);
}
);
};
guideLines = (
{
angle = -108.62;
position = "{385, 211}";
}
);
layerId = "258ED206-D907-4350-8EBA-CBDDA1C16BF7";
paths = (
{
closed = 1;
nodes = (
"851 0 LINE",
"1557 1446 LINE",
"1190 1446 LINE",
"709 456 LINE",
"525 1446 LINE",
"161 1446 LINE",
"427 0 LINE"
);
}
);
width = 1456;
},
{
background = {
paths = (
{
closed = 1;
nodes = (
"1154 1484 LINE SMOOTH",
"1142 1484 OFFCURVE",
"1136 1480 OFFCURVE",
"1132 1470 CURVE SMOOTH",
"644 130 LINE SMOOTH",
"634 102 OFFCURVE",
"622 102 OFFCURVE",
"612 128 CURVE SMOOTH",
"138 1468 LINE SMOOTH",
"134 1480 OFFCURVE",
"129 1484 OFFCURVE",
"112 1484 CURVE SMOOTH",
"66 1484 LINE SMOOTH",
"52 1484 OFFCURVE",
"47 1476 OFFCURVE",
"50 1464 CURVE SMOOTH",
"560 20 LINE SMOOTH",
"564 6 OFFCURVE",
"576 0 OFFCURVE",
"598 0 CURVE SMOOTH",
"662 0 LINE SMOOTH",
"680 0 OFFCURVE",
"688 6 OFFCURVE",
"694 22 CURVE SMOOTH",
"1218 1466 LINE SMOOTH",
"1222 1476 OFFCURVE",
"1216 1484 OFFCURVE",
"1204 1484 CURVE SMOOTH"
);
}
);
};
layerId = "91AB5BCA-6A50-42DA-B2F7-8181BF189245";
paths = (
{
closed = 1;
nodes = (
"562 0 LINE",
"1248 1446 LINE",
"1171 1446 LINE",
"520 82 LINE",
"266 1446 LINE",
"188 1446 LINE",
"456 0 LINE"
);
}
);
width = 1175;
}
);
leftKerningGroup = V;
leftMetricsKey = T;
rightKerningGroup = V;
rightMetricsKey = T;
unicode = 0056;
},
{
glyphname = W;
lastChange = "2019-10-30 02:34:53 +0000";
layers = (
{
anchors = (
{
name = top;
position = "{1106, 1446}";
}
);
background = {
anchors = (
{
name = top;
position = "{1053, 1484}";
}
);
paths = (
{
closed = 1;
nodes = (
"1813 1484 LINE SMOOTH",
"1771 1484 OFFCURVE",
"1755 1468 OFFCURVE",
"1749 1442 CURVE SMOOTH",
"1545 678 LINE SMOOTH",
"1541 662 OFFCURVE",
"1527 666 OFFCURVE",
"1522 682 CURVE SMOOTH",
"1303 1442 LINE SMOOTH",
"1295 1468 OFFCURVE",
"1281 1484 OFFCURVE",
"1239 1484 CURVE SMOOTH",
"959 1484 LINE SMOOTH",
"917 1484 OFFCURVE",
"901 1468 OFFCURVE",
"895 1442 CURVE SMOOTH",
"685 692 LINE SMOOTH",
"679 670 OFFCURVE",
"669 670 OFFCURVE",
"661 700 CURVE SMOOTH",
"449 1442 LINE SMOOTH",
"440 1468 OFFCURVE",
"427 1484 OFFCURVE",
"385 1484 CURVE SMOOTH",
"55 1484 LINE SMOOTH",
"3 1484 OFFCURVE",
"-18 1450 OFFCURVE",
"-5 1404 CURVE SMOOTH",
"403 50 LINE SMOOTH",
"415 16 OFFCURVE",
"435 0 OFFCURVE",
"475 0 CURVE SMOOTH",
"761 0 LINE SMOOTH",
"803 0 OFFCURVE",
"823 16 OFFCURVE",
"833 50 CURVE SMOOTH",
"1039 750 LINE SMOOTH",
"1053 790 OFFCURVE",
"1063 786 OFFCURVE",
"1071 754 CURVE SMOOTH",
"1279 50 LINE SMOOTH",
"1289 16 OFFCURVE",
"1311 0 OFFCURVE",
"1351 0 CURVE SMOOTH",
"1627 0 LINE SMOOTH",
"1667 0 OFFCURVE",
"1687 16 OFFCURVE",
"1699 50 CURVE SMOOTH",
"2105 1404 LINE SMOOTH",
"2117 1450 OFFCURVE",
"2097 1484 OFFCURVE",
"2045 1484 CURVE SMOOTH"
);
}
);
};
guideLines = (
{
angle = -73.94;
position = "{228, 670}";
},
{
angle = 74.3834;
position = "{431, 670}";
}
);
layerId = "258ED206-D907-4350-8EBA-CBDDA1C16BF7";
paths = (
{
closed = 1;
nodes = (
"659 0 LINE",
"1007 786 LINE",
"1115 0 LINE",
"1403 0 LINE",
"2053 1446 LINE",
"1679 1446 LINE",
"1347 670 LINE",
"1241 1446 LINE",
"971 1446 LINE",
"639 670 LINE",
"535 1446 LINE",
"161 1446 LINE",
"375 0 LINE"
);
}
);
width = 1952;
},
{
anchors = (
{
name = top;
position = "{1002, 1446}";
}
);
background = {
anchors = (
{
name = top;
position = "{938, 1484}";
}
);
guideLines = (
{
position = "{3, 125}";
showMeasurement = 1;
}
);
paths = (
{
closed = 1;
nodes = (
"1781 1484 LINE SMOOTH",
"1770 1484 OFFCURVE",
"1760 1480 OFFCURVE",
"1758 1470 CURVE SMOOTH",
"1380 144 LINE SMOOTH",
"1371 116 OFFCURVE",
"1363 116 OFFCURVE",
"1355 142 CURVE SMOOTH",
"985 1468 LINE SMOOTH",
"981 1480 OFFCURVE",
"978 1484 OFFCURVE",
"962 1484 CURVE SMOOTH",
"911 1484 LINE SMOOTH",
"894 1484 OFFCURVE",
"888 1476 OFFCURVE",
"886 1470 CURVE SMOOTH",
"508 144 LINE SMOOTH",
"499 116 OFFCURVE",
"491 116 OFFCURVE",
"483 142 CURVE SMOOTH",
"113 1468 LINE SMOOTH",
"109 1480 OFFCURVE",
"105 1484 OFFCURVE",
"90 1484 CURVE SMOOTH",
"39 1484 LINE SMOOTH",
"25 1484 OFFCURVE",
"20 1476 OFFCURVE",
"23 1464 CURVE SMOOTH",
"428 20 LINE SMOOTH",
"432 6 OFFCURVE",
"443 0 OFFCURVE",
"464 0 CURVE SMOOTH",
"527 0 LINE SMOOTH",
"548 0 OFFCURVE",
"556 6 OFFCURVE",
"560 22 CURVE SMOOTH",
"930 1316 LINE SMOOTH",
"932 1324 OFFCURVE",
"936 1324 OFFCURVE",
"938 1316 CURVE SMOOTH",
"1300 20 LINE SMOOTH",
"1304 6 OFFCURVE",
"1315 0 OFFCURVE",
"1336 0 CURVE SMOOTH",
"1399 0 LINE SMOOTH",
"1420 0 OFFCURVE",
"1428 6 OFFCURVE",
"1432 22 CURVE SMOOTH",
"1846 1466 LINE SMOOTH",
"1848 1476 OFFCURVE",
"1844 1484 OFFCURVE",
"1831 1484 CURVE SMOOTH"
);
}
);
};
guideLines = (
{
position = "{76, 116}";
showMeasurement = 1;
}
);
layerId = "91AB5BCA-6A50-42DA-B2F7-8181BF189245";
leftMetricsKey = "=X/2";
rightMetricsKey = "=X/2";
paths = (
{
closed = 1;
nodes = (
"455 0 LINE",
"978 1296 LINE",
"1130 0 LINE",
"1229 0 LINE",
"1815 1446 LINE",
"1737 1446 LINE",
"1195 98 LINE",
"1035 1446 LINE",
"964 1446 LINE",
"422 98 LINE",
"271 1446 LINE",
"189 1446 LINE",
"359 0 LINE"
);
}
);
width = 1742;
}
);
leftKerningGroup = V;
leftMetricsKey = X;
rightKerningGroup = V;
rightMetricsKey = X;
unicode = 0057;
},
{
glyphname = X;
lastChange = "2020-01-08 04:50:25 +0000";
layers = (
{
background = {
paths = (
{
closed = 1;
nodes = (
"1005 806 LINE",
"1449 1484 LINE",
"1015 1484 LINE",
"787 1082 LINE",
"559 1484 LINE",
"49 1484 LINE",
"521 748 LINE",
"103 102 LINE SMOOTH",
"51 22 OFFCURVE",
"73 0 OFFCURVE",
"129 0 CURVE SMOOTH",
"477 0 LINE",
"743 466 LINE",
"1015 0 LINE",
"1435 0 LINE SMOOTH",
"1491 0 OFFCURVE",
"1513 24 OFFCURVE",
"1463 102 CURVE SMOOTH"
);
}
);
};
layerId = "258ED206-D907-4350-8EBA-CBDDA1C16BF7";
paths = (
{
closed = 1;
nodes = (
"369 0 LINE",
"695 454 LINE",
"891 0 LINE",
"1373 0 LINE",
"987 786 LINE",
"1515 1446 LINE",
"1111 1446 LINE",
"831 1054 LINE",
"667 1446 LINE",
"189 1446 LINE",
"537 730 LINE",
"-43 0 LINE"
);
}
);
width = 1476;
},
{
background = {
guideLines = (
{
angle = 90;
position = "{92, 437}";
},
{
angle = 90;
position = "{603, 372}";
},
{
position = "{58, 716}";
showMeasurement = 1;
},
{
position = "{52, 32}";
showMeasurement = 1;
},
{
position = "{122, 454}";
showMeasurement = 1;
},
{
position = "{120, 290}";
showMeasurement = 1;
},
{
angle = 236.602;
position = "{335, 374}";
},
{
angle = 123.344;
position = "{392, 374}";
},
{
angle = 56.5817;
position = "{380, 370}";
},
{
angle = 123.4;
position = "{345, 370}";
}
);
paths = (
{
closed = 1;
nodes = (
"732 748 LINE SMOOTH",
"725 760 OFFCURVE",
"726 768 OFFCURVE",
"734 780 CURVE SMOOTH",
"1202 1472 LINE SMOOTH",
"1206 1478 OFFCURVE",
"1206 1484 OFFCURVE",
"1198 1484 CURVE SMOOTH",
"1116 1484 LINE SMOOTH",
"1108 1484 OFFCURVE",
"1104 1482 OFFCURVE",
"1101 1476 CURVE SMOOTH",
"686 862 LINE SMOOTH",
"672 842 OFFCURVE",
"664 844 OFFCURVE",
"652 860 CURVE SMOOTH",
"238 1476 LINE SMOOTH",
"234 1482 OFFCURVE",
"232 1484 OFFCURVE",
"220 1484 CURVE SMOOTH",
"143 1484 LINE SMOOTH",
"134 1484 OFFCURVE",
"132 1474 OFFCURVE",
"136 1468 CURVE SMOOTH",
"601 782 LINE SMOOTH",
"610 766 OFFCURVE",
"612 754 OFFCURVE",
"602 740 CURVE SMOOTH",
"118 20 LINE SMOOTH",
"108 4 OFFCURVE",
"112 0 OFFCURVE",
"124 0 CURVE SMOOTH",
"196 0 LINE SMOOTH",
"202 0 OFFCURVE",
"208 2 OFFCURVE",
"212 8 CURVE SMOOTH",
"646 648 LINE SMOOTH",
"666 678 OFFCURVE",
"674 676 OFFCURVE",
"688 654 CURVE SMOOTH",
"1128 8 LINE SMOOTH",
"1132 2 OFFCURVE",
"1134 0 OFFCURVE",
"1143 0 CURVE SMOOTH",
"1214 0 LINE SMOOTH",
"1226 0 OFFCURVE",
"1234 4 OFFCURVE",
"1222 20 CURVE SMOOTH"
);
}
);
};
guideLines = (
{
angle = 90;
position = "{163, 405}";
},
{
angle = 90;
position = "{613, 345}";
},
{
position = "{133, 664}";
showMeasurement = 1;
},
{
position = "{128, 29}";
showMeasurement = 1;
},
{
position = "{189, 421}";
showMeasurement = 1;
},
{
position = "{187, 269}";
showMeasurement = 1;
},
{
angle = 236.602;
position = "{377, 347}";
},
{
angle = 123.344;
position = "{426, 347}";
},
{
angle = 56.5817;
position = "{417, 343}";
},
{
angle = 123.4;
position = "{385, 343}";
}
);
layerId = "91AB5BCA-6A50-42DA-B2F7-8181BF189245";
paths = (
{
closed = 1;
nodes = (
"134 0 LINE",
"644 664 LINE",
"966 0 LINE",
"1059 0 LINE",
"700 742 LINE",
"1238 1446 LINE",
"1146 1446 LINE",
"664 816 LINE",
"362 1446 LINE",
"267 1446 LINE",
"606 742 LINE",
"42 0 LINE"
);
}
);
width = 1247;
}
);
leftKerningGroup = X;
rightKerningGroup = X;
unicode = 0058;
},
{
glyphname = Y;
lastChange = "2019-06-12 20:11:43 +0000";
layers = (
{
anchors = (
{
name = bottom;
position = "{627, 0}";
},
{
name = top;
position = "{829, 1446}";
}
);
background = {
anchors = (
{
name = top;
position = "{793, 1484}";
}
);
paths = (
{
closed = 1;
nodes = (
"1140 1484 LINE SMOOTH",
"1102 1484 OFFCURVE",
"1087 1476 OFFCURVE",
"1071 1442 CURVE SMOOTH",
"829 996 LINE SMOOTH",
"815 972 OFFCURVE",
"808 974 OFFCURVE",
"795 998 CURVE SMOOTH",
"549 1442 LINE SMOOTH",
"531 1474 OFFCURVE",
"521 1484 OFFCURVE",
"481 1484 CURVE SMOOTH",
"79 1484 LINE SMOOTH",
"37 1484 OFFCURVE",
"23 1460 OFFCURVE",
"43 1428 CURVE SMOOTH",
"512 664 LINE SMOOTH",
"529 634 OFFCURVE",
"539 618 OFFCURVE",
"539 576 CURVE SMOOTH",
"539 50 LINE SMOOTH",
"539 16 OFFCURVE",
"552 0 OFFCURVE",
"591 0 CURVE SMOOTH",
"928 0 LINE SMOOTH",
"974 0 OFFCURVE",
"993 16 OFFCURVE",
"993 58 CURVE SMOOTH",
"993 550 LINE SMOOTH",
"993 634 OFFCURVE",
"995 654 OFFCURVE",
"1014 682 CURVE SMOOTH",
"1481 1438 LINE SMOOTH",
"1497 1464 OFFCURVE",
"1487 1484 OFFCURVE",
"1453 1484 CURVE SMOOTH"
);
}
);
};
guideLines = (
{
angle = 58.823;
position = "{507, 670}";
}
);
layerId = "258ED206-D907-4350-8EBA-CBDDA1C16BF7";
leftMetricsKey = "=X/2";
rightMetricsKey = "=X/2";
paths = (
{
closed = 1;
nodes = (
"819 0 LINE",
"911 602 LINE",
"1552 1446 LINE",
"1129 1446 LINE",
"770 932 LINE",
"563 1446 LINE",
"146 1446 LINE",
"523 602 LINE",
"434 0 LINE"
);
}
);
width = 1436;
},
{
anchors = (
{
name = bottom;
position = "{438, 0}";
},
{
name = top;
position = "{638, 1450}";
}
);
background = {
anchors = (
{
name = top;
position = "{544, 1484}";
}
);
paths = (
{
closed = 1;
nodes = (
"1028 1484 LINE SMOOTH",
"1010 1484 OFFCURVE",
"1006 1482 OFFCURVE",
"996 1466 CURVE SMOOTH",
"578 748 LINE SMOOTH",
"563 722 OFFCURVE",
"548 720 OFFCURVE",
"530 752 CURVE SMOOTH",
"110 1466 LINE SMOOTH",
"103 1480 OFFCURVE",
"96 1484 OFFCURVE",
"78 1484 CURVE SMOOTH",
"32 1484 LINE SMOOTH",
"12 1484 OFFCURVE",
"8 1474 OFFCURVE",
"17 1460 CURVE SMOOTH",
"504 630 LINE SMOOTH",
"512 616 OFFCURVE",
"515 610 OFFCURVE",
"515 590 CURVE SMOOTH",
"515 22 LINE SMOOTH",
"515 8 OFFCURVE",
"521 0 OFFCURVE",
"538 0 CURVE SMOOTH",
"576 0 LINE SMOOTH",
"599 0 OFFCURVE",
"606 8 OFFCURVE",
"606 26 CURVE SMOOTH",
"606 612 LINE SMOOTH",
"606 632 OFFCURVE",
"606 640 OFFCURVE",
"614 652 CURVE SMOOTH",
"1092 1462 LINE SMOOTH",
"1101 1474 OFFCURVE",
"1094 1484 OFFCURVE",
"1080 1484 CURVE SMOOTH"
);
}
);
};
guideLines = (
{
angle = 239.8907;
position = "{232, 335}";
},
{
angle = -59.5603;
position = "{197, 328}";
}
);
layerId = "91AB5BCA-6A50-42DA-B2F7-8181BF189245";
paths = (
{
closed = 1;
nodes = (
"473 0 LINE",
"561 622 LINE",
"1114 1446 LINE",
"1034 1446 LINE",
"536 702 LINE",
"240 1446 LINE",
"160 1446 LINE",
"488 624 LINE",
"402 0 LINE"
);
}
);
width = 1012;
}
);
leftKerningGroup = Y;
leftMetricsKey = "=X/4";
rightKerningGroup = Y;
rightMetricsKey = "=X/4";
unicode = 0059;
},
{
glyphname = Z;
lastChange = "2019-06-12 20:13:09 +0000";
layers = (
{
anchors = (
{
name = bottom;
position = "{639, 0}";
},
{
name = top;
position = "{905, 1446}";
}
);
background = {
anchors = (
{
name = bottom;
position = "{744, 0}";
},
{
name = top;
position = "{792, 1484}";
}
);
paths = (
{
closed = 1;
nodes = (
"1405 0 LINE",
"1405 332 LINE",
"723 332 LINE",
"1416 1308 LINE",
"1416 1484 LINE",
"168 1484 LINE",
"168 1154 LINE",
"783 1154 LINE",
"103 182 LINE",
"103 0 LINE"
);
}
);
};
layerId = "258ED206-D907-4350-8EBA-CBDDA1C16BF7";
paths = (
{
closed = 1;
nodes = (
"1239 0 LINE",
"1288 324 LINE",
"609 324 LINE",
"1445 1276 LINE",
"1471 1446 LINE",
"301 1446 LINE",
"250 1126 LINE",
"865 1126 LINE",
"44 178 LINE",
"17 0 LINE"
);
}
);
width = 1408;
},
{
anchors = (
{
name = bottom;
position = "{534, 0}";
},
{
name = top;
position = "{724, 1446}";
}
);
background = {
anchors = (
{
name = bottom;
position = "{656, 0}";
},
{
name = top;
position = "{643, 1484}";
}
);
paths = (
{
closed = 1;
nodes = (
"1120 0 LINE",
"1120 80 LINE",
"252 80 LINE",
"1120 1430 LINE",
"1120 1484 LINE",
"162 1484 LINE",
"162 1404 LINE",
"1004 1404 LINE",
"143 56 LINE",
"143 0 LINE"
);
}
);
};
guideLines = (
{
angle = 237.1304;
position = "{495, 659}";
}
);
layerId = "91AB5BCA-6A50-42DA-B2F7-8181BF189245";
paths = (
{
closed = 1;
nodes = (
"950 0 LINE",
"962 78 LINE",
"176 78 LINE",
"1146 1386 LINE",
"1154 1446 LINE",
"294 1446 LINE",
"284 1368 LINE",
"1048 1368 LINE",
"84 62 LINE",
"74 0 LINE"
);
}
);
width = 1134;
}
);
leftKerningGroup = Z;
leftMetricsKey = "=H/1.5";
rightKerningGroup = Z;
rightMetricsKey = "=H/2";
unicode = 005A;
},
{
glyphname = a;
lastChange = "2020-01-07 05:38:39 +0000";
layers = (
{
anchors = (
{
name = bottom;
position = "{520, 0}";
},
{
name = ogonek;
position = "{934, 20}";
},
{
name = top;
position = "{680, 1034}";
}
);
background = {
anchors = (
{
name = ogonek;
position = "{1000, 20}";
},
{
name = top;
position = "{575, 1060}";
}
);
guideLines = (
{
angle = 90;
position = "{348, 102}";
}
);
paths = (
{
closed = 1;
nodes = (
"661 112 OFFCURVE",
"678 110 OFFCURVE",
"682 84 CURVE SMOOTH",
"684 70 LINE SMOOTH",
"690 32 OFFCURVE",
"699 0 OFFCURVE",
"736 0 CURVE SMOOTH",
"1010 0 LINE SMOOTH",
"1048 0 OFFCURVE",
"1056 14 OFFCURVE",
"1056 54 CURVE SMOOTH",
"1056 750 LINE SMOOTH",
"1056 946 OFFCURVE",
"946 1080 OFFCURVE",
"575 1080 CURVE SMOOTH",
"314 1080 OFFCURVE",
"132 1012 OFFCURVE",
"71 842 CURVE SMOOTH",
"54 792 OFFCURVE",
"66 782 OFFCURVE",
"86 778 CURVE SMOOTH",
"348 726 LINE SMOOTH",
"384 720 OFFCURVE",
"392 726 OFFCURVE",
"402 748 CURVE SMOOTH",
"436 822 OFFCURVE",
"502 842 OFFCURVE",
"558 842 CURVE SMOOTH",
"638 842 OFFCURVE",
"676 800 OFFCURVE",
"676 726 CURVE SMOOTH",
"676 692 LINE SMOOTH",
"676 668 OFFCURVE",
"655 664 OFFCURVE",
"646 664 CURVE SMOOTH",
"632 664 LINE SMOOTH",
"254 664 OFFCURVE",
"18 506 OFFCURVE",
"18 272 CURVE SMOOTH",
"18 106 OFFCURVE",
"138 -20 OFFCURVE",
"338 -20 CURVE SMOOTH",
"462 -20 OFFCURVE",
"556 24 OFFCURVE",
"628 84 CURVE SMOOTH"
);
},
{
closed = 1;
nodes = (
"676 342 LINE SMOOTH",
"676 312 OFFCURVE",
"654 290 OFFCURVE",
"630 270 CURVE SMOOTH",
"608 252 OFFCURVE",
"571 232 OFFCURVE",
"520 232 CURVE SMOOTH",
"447 232 OFFCURVE",
"405 270 OFFCURVE",
"405 326 CURVE SMOOTH",
"405 438 OFFCURVE",
"573 484 OFFCURVE",
"638 484 CURVE SMOOTH",
"646 484 LINE SMOOTH",
"670 484 OFFCURVE",
"676 472 OFFCURVE",
"676 448 CURVE SMOOTH"
);
}
);
};
guideLines = (
{
angle = 270;
position = "{345, 93}";
},
{
angle = 270;
position = "{310, 516}";
}
);
layerId = "258ED206-D907-4350-8EBA-CBDDA1C16BF7";
paths = (
{
closed = 1;
nodes = (
"482 -20 OFFCURVE",
"573 24 OFFCURVE",
"657 164 CURVE",
"666 0 LINE",
"986 0 LINE",
"1098 732 LINE SMOOTH",
"1126 922 OFFCURVE",
"1037 1054 OFFCURVE",
"682 1054 CURVE SMOOTH",
"416 1054 OFFCURVE",
"188 956 OFFCURVE",
"138 712 CURVE",
"451 712 LINE",
"493 782 OFFCURVE",
"571 800 OFFCURVE",
"626 802 CURVE SMOOTH",
"701 804 OFFCURVE",
"734 774 OFFCURVE",
"724 708 CURVE SMOOTH",
"718 664 LINE",
"638 664 LINE SMOOTH",
"264 664 OFFCURVE",
"71 534 OFFCURVE",
"37 310 CURVE SMOOTH",
"6 96 OFFCURVE",
"148 -20 OFFCURVE",
"344 -20 CURVE SMOOTH"
);
},
{
closed = 1;
nodes = (
"449 226 OFFCURVE",
"396 272 OFFCURVE",
"407 350 CURVE SMOOTH",
"422 452 OFFCURVE",
"566 480 OFFCURVE",
"628 480 CURVE SMOOTH",
"690 480 LINE",
"670 350 LINE",
"657 284 OFFCURVE",
"592 226 OFFCURVE",
"516 226 CURVE SMOOTH"
);
}
);
width = 1158;
},
{
anchors = (
{
name = bottom;
position = "{442, 0}";
},
{
name = ogonek;
position = "{776, 28}";
},
{
name = top;
position = "{585, 1034}";
}
);
background = {
anchors = (
{
name = ogonek;
position = "{902, 28}";
},
{
name = top;
position = "{531, 1060}";
}
);
paths = (
{
closed = 1;
nodes = (
"825 156 OFFCURVE",
"833 154 OFFCURVE",
"835 140 CURVE SMOOTH",
"839 18 LINE SMOOTH",
"839 4 OFFCURVE",
"845 0 OFFCURVE",
"858 0 CURVE SMOOTH",
"894 0 LINE SMOOTH",
"905 0 OFFCURVE",
"913 4 OFFCURVE",
"913 20 CURVE SMOOTH",
"913 734 LINE SMOOTH",
"913 950 OFFCURVE",
"766 1080 OFFCURVE",
"539 1080 CURVE SMOOTH",
"350 1080 OFFCURVE",
"215 986 OFFCURVE",
"131 862 CURVE SMOOTH",
"123 852 OFFCURVE",
"125 846 OFFCURVE",
"131 842 CURVE SMOOTH",
"180 812 LINE SMOOTH",
"188 806 OFFCURVE",
"192 810 OFFCURVE",
"199 820 CURVE SMOOTH",
"289 940 OFFCURVE",
"398 1004 OFFCURVE",
"535 1004 CURVE SMOOTH",
"715 1004 OFFCURVE",
"833 896 OFFCURVE",
"833 726 CURVE SMOOTH",
"833 664 LINE SMOOTH",
"833 646 OFFCURVE",
"821 636 OFFCURVE",
"799 634 CURVE SMOOTH",
"589 616 LINE SMOOTH",
"261 588 OFFCURVE",
"95 472 OFFCURVE",
"95 270 CURVE SMOOTH",
"95 90 OFFCURVE",
"226 -20 OFFCURVE",
"436 -20 CURVE SMOOTH",
"583 -20 OFFCURVE",
"705 34 OFFCURVE",
"816 144 CURVE SMOOTH"
);
},
{
closed = 1;
nodes = (
"833 342 LINE SMOOTH",
"833 282 OFFCURVE",
"793 214 OFFCURVE",
"719 154 CURVE SMOOTH",
"644 94 OFFCURVE",
"545 56 OFFCURVE",
"447 56 CURVE SMOOTH",
"285 56 OFFCURVE",
"180 138 OFFCURVE",
"180 276 CURVE SMOOTH",
"180 430 OFFCURVE",
"314 522 OFFCURVE",
"627 546 CURVE SMOOTH",
"806 560 LINE SMOOTH",
"823 562 OFFCURVE",
"833 554 OFFCURVE",
"833 532 CURVE SMOOTH"
);
}
);
};
guideLines = (
{
position = "{363, 208}";
showMeasurement = 1;
}
);
hints = (
{
horizontal = 1;
place = "{7018, 302}";
type = Stem;
}
);
layerId = "91AB5BCA-6A50-42DA-B2F7-8181BF189245";
paths = (
{
closed = 1;
nodes = (
"491 -20 OFFCURVE",
"633 28 OFFCURVE",
"741 200 CURVE",
"717 0 LINE",
"783 0 LINE",
"883 716 LINE SMOOTH",
"913 926 OFFCURVE",
"789 1054 OFFCURVE",
"587 1054 CURVE SMOOTH",
"365 1054 OFFCURVE",
"224 904 OFFCURVE",
"194 758 CURVE",
"272 758 LINE",
"312 900 OFFCURVE",
"436 978 OFFCURVE",
"573 978 CURVE SMOOTH",
"736 978 OFFCURVE",
"835 880 OFFCURVE",
"812 714 CURVE SMOOTH",
"797 614 LINE",
"577 606 LINE SMOOTH",
"259 594 OFFCURVE",
"117 496 OFFCURVE",
"85 264 CURVE SMOOTH",
"62 88 OFFCURVE",
"163 -20 OFFCURVE",
"352 -20 CURVE SMOOTH"
);
},
{
closed = 1;
nodes = (
"228 54 OFFCURVE",
"144 134 OFFCURVE",
"161 270 CURVE SMOOTH",
"188 450 OFFCURVE",
"297 526 OFFCURVE",
"602 532 CURVE SMOOTH",
"785 536 LINE",
"757 334 LINE SMOOTH",
"737 194 OFFCURVE",
"531 54 OFFCURVE",
"373 54 CURVE SMOOTH"
);
}
);
width = 1016;
}
);
leftKerningGroup = a;
leftMetricsKey = "=|o*1.1";
rightKerningGroup = n;
rightMetricsKey = n;
unicode = 0061;
},
{
glyphname = ae;
lastChange = "2020-01-07 05:38:39 +0000";
layers = (
{
anchors = (
{
name = top;
position = "{978, 1034}";
}
);
background = {
anchors = (
{
name = top;
position = "{902, 1060}";
}
);
paths = (
{
closed = 1;
nodes = (
"1746 458 LINE SMOOTH",
"1780 460 OFFCURVE",
"1782 474 OFFCURVE",
"1782 508 CURVE SMOOTH",
"1782 870 OFFCURVE",
"1552 1080 OFFCURVE",
"1238 1080 CURVE SMOOTH",
"1134 1080 OFFCURVE",
"1033 1052 OFFCURVE",
"948 1000 CURVE",
"872 1050 OFFCURVE",
"754 1078 OFFCURVE",
"575 1080 CURVE SMOOTH",
"270 1080 OFFCURVE",
"156 998 OFFCURVE",
"80 842 CURVE SMOOTH",
"70 820 OFFCURVE",
"75 782 OFFCURVE",
"94 778 CURVE SMOOTH",
"356 726 LINE SMOOTH",
"392 720 OFFCURVE",
"400 722 OFFCURVE",
"409 748 CURVE",
"444 822 OFFCURVE",
"510 842 OFFCURVE",
"566 842 CURVE SMOOTH",
"646 842 OFFCURVE",
"684 800 OFFCURVE",
"684 726 CURVE SMOOTH",
"684 692 LINE SMOOTH",
"684 668 OFFCURVE",
"664 664 OFFCURVE",
"648 664 CURVE",
"602 662 LINE SMOOTH",
"218 644 OFFCURVE",
"26 500 OFFCURVE",
"26 286 CURVE SMOOTH",
"26 104 OFFCURVE",
"146 -20 OFFCURVE",
"372 -20 CURVE SMOOTH",
"556 -20 OFFCURVE",
"686 24 OFFCURVE",
"808 142 CURVE SMOOTH",
"816 150 OFFCURVE",
"822 150 OFFCURVE",
"830 142 CURVE SMOOTH",
"930 40 OFFCURVE",
"1077 -20 OFFCURVE",
"1246 -20 CURVE SMOOTH",
"1470 -20 OFFCURVE",
"1606 34 OFFCURVE",
"1750 236 CURVE",
"1768 258 OFFCURVE",
"1762 276 OFFCURVE",
"1741 284 CURVE SMOOTH",
"1560 358 LINE SMOOTH",
"1533 368 OFFCURVE",
"1528 366 OFFCURVE",
"1518 356 CURVE SMOOTH",
"1430 270 OFFCURVE",
"1367 244 OFFCURVE",
"1300 244 CURVE SMOOTH",
"1184 244 OFFCURVE",
"1094 302 OFFCURVE",
"1094 424 CURVE SMOOTH",
"1094 448 OFFCURVE",
"1104 458 OFFCURVE",
"1124 458 CURVE SMOOTH"
);
},
{
closed = 1;
nodes = (
"1356 846 OFFCURVE",
"1394 744 OFFCURVE",
"1394 692 CURVE SMOOTH",
"1394 668 OFFCURVE",
"1386 664 OFFCURVE",
"1360 664 CURVE SMOOTH",
"1100 666 LINE",
"1098 790 OFFCURVE",
"1174 846 OFFCURVE",
"1256 846 CURVE SMOOTH"
);
},
{
closed = 1;
nodes = (
"684 320 LINE SMOOTH",
"684 254 OFFCURVE",
"610 216 OFFCURVE",
"533 216 CURVE SMOOTH",
"456 216 OFFCURVE",
"414 254 OFFCURVE",
"414 312 CURVE SMOOTH",
"414 410 OFFCURVE",
"544 460 OFFCURVE",
"619 466 CURVE SMOOTH",
"648 468 LINE SMOOTH",
"672 468 OFFCURVE",
"684 456 OFFCURVE",
"684 432 CURVE SMOOTH"
);
}
);
};
components = (
{
name = e;
transform = "{1, 0, 0, 1, 656, 0}";
}
);
layerId = "258ED206-D907-4350-8EBA-CBDDA1C16BF7";
paths = (
{
closed = 1;
nodes = (
"596 -20 OFFCURVE",
"719 58 OFFCURVE",
"791 197 CURVE",
"1098 732 LINE",
"1125 922 OFFCURVE",
"1034 1054 OFFCURVE",
"674 1054 CURVE SMOOTH",
"408 1054 OFFCURVE",
"179 956 OFFCURVE",
"133 712 CURVE",
"448 712 LINE",
"490 782 OFFCURVE",
"568 800 OFFCURVE",
"621 802 CURVE SMOOTH",
"699 804 OFFCURVE",
"732 774 OFFCURVE",
"723 708 CURVE SMOOTH",
"717 664 LINE",
"637 664 LINE SMOOTH",
"261 664 OFFCURVE",
"68 534 OFFCURVE",
"37 310 CURVE SMOOTH",
"7 96 OFFCURVE",
"153 -20 OFFCURVE",
"348 -20 CURVE SMOOTH"
);
},
{
closed = 1;
nodes = (
"452 226 OFFCURVE",
"397 272 OFFCURVE",
"408 350 CURVE SMOOTH",
"422 452 OFFCURVE",
"567 480 OFFCURVE",
"628 480 CURVE SMOOTH",
"691 480 LINE",
"673 350 LINE",
"661 284 OFFCURVE",
"594 226 OFFCURVE",
"519 226 CURVE SMOOTH"
);
}
);
width = 1817;
},
{
anchors = (
{
name = top;
position = "{927, 1034}";
}
);
background = {
anchors = (
{
name = top;
position = "{836, 1060}";
}
);
paths = (
{
closed = 1;
nodes = (
"1656 508 LINE SMOOTH",
"1684 508 OFFCURVE",
"1692 522 OFFCURVE",
"1692 548 CURVE SMOOTH",
"1692 888 OFFCURVE",
"1508 1080 OFFCURVE",
"1234 1080 CURVE SMOOTH",
"1046 1080 OFFCURVE",
"902 1000 OFFCURVE",
"822 842 CURVE",
"782 1002 OFFCURVE",
"670 1080 OFFCURVE",
"472 1080 CURVE SMOOTH",
"302 1080 OFFCURVE",
"148 1000 OFFCURVE",
"62 862 CURVE SMOOTH",
"56 852 OFFCURVE",
"56 846 OFFCURVE",
"62 842 CURVE SMOOTH",
"106 812 LINE SMOOTH",
"114 806 OFFCURVE",
"118 808 OFFCURVE",
"128 820 CURVE SMOOTH",
"220 940 OFFCURVE",
"328 1004 OFFCURVE",
"456 1004 CURVE SMOOTH",
"656 1004 OFFCURVE",
"764 896 OFFCURVE",
"764 726 CURVE SMOOTH",
"764 664 LINE SMOOTH",
"764 646 OFFCURVE",
"752 636 OFFCURVE",
"728 634 CURVE SMOOTH",
"504 616 LINE SMOOTH",
"178 588 OFFCURVE",
"26 468 OFFCURVE",
"26 272 CURVE SMOOTH",
"26 90 OFFCURVE",
"150 -20 OFFCURVE",
"358 -20 CURVE SMOOTH",
"620 -20 OFFCURVE",
"736 124 OFFCURVE",
"808 216 CURVE SMOOTH",
"812 222 OFFCURVE",
"814 222 OFFCURVE",
"818 216 CURVE SMOOTH",
"876 130 OFFCURVE",
"984 -20 OFFCURVE",
"1228 -20 CURVE SMOOTH",
"1422 -20 OFFCURVE",
"1584 74 OFFCURVE",
"1652 200 CURVE SMOOTH",
"1658 212 OFFCURVE",
"1656 216 OFFCURVE",
"1650 220 CURVE SMOOTH",
"1606 250 LINE SMOOTH",
"1596 256 OFFCURVE",
"1594 254 OFFCURVE",
"1584 242 CURVE SMOOTH",
"1526 162 OFFCURVE",
"1440 56 OFFCURVE",
"1232 56 CURVE SMOOTH",
"1008 56 OFFCURVE",
"832 268 OFFCURVE",
"832 456 CURVE SMOOTH",
"832 498 OFFCURVE",
"838 506 OFFCURVE",
"872 506 CURVE SMOOTH"
);
},
{
closed = 1;
nodes = (
"1448 1004 OFFCURVE",
"1606 828 OFFCURVE",
"1606 612 CURVE SMOOTH",
"1606 588 OFFCURVE",
"1604 580 OFFCURVE",
"1572 580 CURVE SMOOTH",
"836 582 LINE",
"838 836 OFFCURVE",
"1008 1004 OFFCURVE",
"1228 1004 CURVE SMOOTH"
);
},
{
closed = 1;
nodes = (
"764 354 LINE",
"764 198 OFFCURVE",
"592 68 OFFCURVE",
"378 58 CURVE SMOOTH",
"210 50 OFFCURVE",
"112 142 OFFCURVE",
"112 276 CURVE SMOOTH",
"112 430 OFFCURVE",
"244 520 OFFCURVE",
"544 544 CURVE SMOOTH",
"734 558 LINE SMOOTH",
"760 560 OFFCURVE",
"764 550 OFFCURVE",
"764 530 CURVE SMOOTH"
);
}
);
};
components = (
{
alignment = -1;
name = e;
transform = "{1, 0, 0, 1, 673, 0}";
}
);
hints = (
{
horizontal = 1;
place = "{7052, 336}";
type = Stem;
}
);
layerId = "91AB5BCA-6A50-42DA-B2F7-8181BF189245";
paths = (
{
closed = 1;
nodes = (
"548 -20 OFFCURVE",
"776 115 OFFCURVE",
"804 316 CURVE",
"887 716 LINE",
"917 926 OFFCURVE",
"796 1054 OFFCURVE",
"593 1054 CURVE SMOOTH",
"370 1054 OFFCURVE",
"232 904 OFFCURVE",
"203 758 CURVE",
"281 758 LINE",
"321 900 OFFCURVE",
"439 978 OFFCURVE",
"579 978 CURVE SMOOTH",
"741 978 OFFCURVE",
"839 880 OFFCURVE",
"816 714 CURVE SMOOTH",
"802 614 LINE",
"579 606 LINE SMOOTH",
"260 595 OFFCURVE",
"118 496 OFFCURVE",
"85 264 CURVE SMOOTH",
"60 88 OFFCURVE",
"164 -20 OFFCURVE",
"352 -20 CURVE SMOOTH"
);
},
{
closed = 1;
nodes = (
"228 54 OFFCURVE",
"143 134 OFFCURVE",
"162 270 CURVE SMOOTH",
"187 450 OFFCURVE",
"298 525 OFFCURVE",
"604 532 CURVE SMOOTH",
"791 536 LINE",
"769 383 LINE SMOOTH",
"749 243 OFFCURVE",
"588 54 OFFCURVE",
"375 54 CURVE SMOOTH"
);
}
);
width = 1723;
}
);
leftKerningGroup = a;
leftMetricsKey = a;
rightKerningGroup = o;
rightMetricsKey = e;
unicode = 00E6;
},
{
glyphname = b;
lastChange = "2020-01-07 05:38:39 +0000";
layers = (
{
background = {
paths = (
{
closed = 1;
nodes = (
"378 0 OFFCURVE",
"393 14 OFFCURVE",
"403 46 CURVE SMOOTH",
"435 140 LINE SMOOTH",
"441 156 OFFCURVE",
"449 158 OFFCURVE",
"462 146 CURVE SMOOTH",
"539 44 OFFCURVE",
"647 -20 OFFCURVE",
"773 -20 CURVE SMOOTH",
"1065 -20 OFFCURVE",
"1227 198 OFFCURVE",
"1227 538 CURVE SMOOTH",
"1227 872 OFFCURVE",
"1075 1080 OFFCURVE",
"815 1080 CURVE SMOOTH",
"725 1080 OFFCURVE",
"643 1054 OFFCURVE",
"561 976 CURVE SMOOTH",
"542 960 OFFCURVE",
"523 960 OFFCURVE",
"523 992 CURVE SMOOTH",
"523 1442 LINE SMOOTH",
"523 1468 OFFCURVE",
"511 1484 OFFCURVE",
"487 1484 CURVE SMOOTH",
"161 1484 LINE SMOOTH",
"139 1484 OFFCURVE",
"123 1468 OFFCURVE",
"123 1438 CURVE SMOOTH",
"123 50 LINE SMOOTH",
"123 16 OFFCURVE",
"136 0 OFFCURVE",
"178 0 CURVE SMOOTH",
"351 0 LINE SMOOTH"
);
},
{
closed = 1;
nodes = (
"563 806 OFFCURVE",
"609 836 OFFCURVE",
"672 836 CURVE SMOOTH",
"769 836 OFFCURVE",
"823 762 OFFCURVE",
"823 530 CURVE SMOOTH",
"823 296 OFFCURVE",
"769 214 OFFCURVE",
"665 214 CURVE SMOOTH",
"581 214 OFFCURVE",
"523 270 OFFCURVE",
"523 370 CURVE SMOOTH",
"523 756 LINE"
);
}
);
};
layerId = "258ED206-D907-4350-8EBA-CBDDA1C16BF7";
paths = (
{
closed = 1;
nodes = (
"944 -20 OFFCURVE",
"1132 194 OFFCURVE",
"1179 524 CURVE SMOOTH",
"1224 850 OFFCURVE",
"1105 1054 OFFCURVE",
"851 1054 CURVE SMOOTH",
"748 1054 OFFCURVE",
"625 1022 OFFCURVE",
"546 916 CURVE",
"626 1486 LINE",
"236 1486 LINE",
"27 0 LINE",
"302 0 LINE",
"378 212 LINE",
"405 68 OFFCURVE",
"490 -20 OFFCURVE",
"658 -20 CURVE SMOOTH"
);
},
{
closed = 1;
nodes = (
"513 252 OFFCURVE",
"462 320 OFFCURVE",
"491 524 CURVE SMOOTH",
"516 708 OFFCURVE",
"588 780 OFFCURVE",
"679 780 CURVE SMOOTH",
"767 780 OFFCURVE",
"830 716 OFFCURVE",
"803 524 CURVE SMOOTH",
"774 320 OFFCURVE",
"692 252 OFFCURVE",
"604 252 CURVE"
);
}
);
width = 1238;
},
{
background = {
paths = (
{
closed = 1;
nodes = (
"261 0 OFFCURVE",
"267 6 OFFCURVE",
"267 26 CURVE SMOOTH",
"271 128 LINE SMOOTH",
"271 146 OFFCURVE",
"280 148 OFFCURVE",
"291 134 CURVE SMOOTH",
"315 100 OFFCURVE",
"415 -20 OFFCURVE",
"620 -20 CURVE SMOOTH",
"908 -20 OFFCURVE",
"1076 192 OFFCURVE",
"1076 534 CURVE SMOOTH",
"1076 832 OFFCURVE",
"948 1080 OFFCURVE",
"643 1080 CURVE SMOOTH",
"431 1080 OFFCURVE",
"318 964 OFFCURVE",
"299 946 CURVE SMOOTH",
"280 930 OFFCURVE",
"273 930 OFFCURVE",
"273 956 CURVE SMOOTH",
"273 1462 LINE SMOOTH",
"273 1478 OFFCURVE",
"269 1484 OFFCURVE",
"257 1484 CURVE SMOOTH",
"211 1484 LINE SMOOTH",
"198 1484 OFFCURVE",
"193 1478 OFFCURVE",
"193 1464 CURVE SMOOTH",
"193 26 LINE SMOOTH",
"193 6 OFFCURVE",
"198 0 OFFCURVE",
"215 0 CURVE SMOOTH",
"236 0 LINE SMOOTH"
);
},
{
closed = 1;
nodes = (
"353 926 OFFCURVE",
"481 1004 OFFCURVE",
"629 1004 CURVE SMOOTH",
"864 1004 OFFCURVE",
"990 818 OFFCURVE",
"990 534 CURVE SMOOTH",
"990 206 OFFCURVE",
"820 56 OFFCURVE",
"612 56 CURVE SMOOTH",
"444 56 OFFCURVE",
"273 192 OFFCURVE",
"273 354 CURVE SMOOTH",
"273 830 LINE"
);
}
);
};
layerId = "91AB5BCA-6A50-42DA-B2F7-8181BF189245";
paths = (
{
closed = 1;
nodes = (
"806 -20 OFFCURVE",
"963 196 OFFCURVE",
"1005 520 CURVE SMOOTH",
"1052 883 OFFCURVE",
"914 1054 OFFCURVE",
"674 1054 CURVE SMOOTH",
"445 1054 OFFCURVE",
"330 893 OFFCURVE",
"307 846 CURVE",
"390 1486 LINE",
"316 1486 LINE",
"123 0 LINE",
"189 0 LINE",
"222 212 LINE",
"230 164 OFFCURVE",
"274 -20 OFFCURVE",
"534 -20 CURVE SMOOTH"
);
},
{
closed = 1;
nodes = (
"291 54 OFFCURVE",
"223 200 OFFCURVE",
"266 533 CURVE SMOOTH",
"305 805 OFFCURVE",
"411 978 OFFCURVE",
"656 978 CURVE SMOOTH",
"880 978 OFFCURVE",
"962 800 OFFCURVE",
"927 533 CURVE SMOOTH",
"885 207 OFFCURVE",
"735 54 OFFCURVE",
"542 54 CURVE SMOOTH"
);
}
);
width = 1115;
}
);
leftKerningGroup = n;
leftMetricsKey = n;
rightKerningGroup = o;
rightMetricsKey = o;
unicode = 0062;
},
{
glyphname = c;
lastChange = "2020-01-07 05:38:39 +0000";
layers = (
{
anchors = (
{
name = bottom;
position = "{496, 0}";
},
{
name = top;
position = "{657, 1034}";
}
);
background = {
anchors = (
{
name = bottom;
position = "{553, 0}";
},
{
name = top;
position = "{555, 1060}";
}
);
paths = (
{
closed = 1;
nodes = (
"239 1080 OFFCURVE",
"1 856 OFFCURVE",
"1 526 CURVE SMOOTH",
"1 202 OFFCURVE",
"235 -20 OFFCURVE",
"555 -20 CURVE SMOOTH",
"879 -20 OFFCURVE",
"1011 210 OFFCURVE",
"1031 314 CURVE SMOOTH",
"1038 344 OFFCURVE",
"1034 356 OFFCURVE",
"1013 360 CURVE SMOOTH",
"824 396 LINE SMOOTH",
"799 400 OFFCURVE",
"791 396 OFFCURVE",
"784 386 CURVE SMOOTH",
"735 296 OFFCURVE",
"697 228 OFFCURVE",
"587 228 CURVE SMOOTH",
"473 228 OFFCURVE",
"405 308 OFFCURVE",
"405 530 CURVE SMOOTH",
"405 744 OFFCURVE",
"467 828 OFFCURVE",
"565 828 CURVE SMOOTH",
"660 828 OFFCURVE",
"679 752 OFFCURVE",
"687 702 CURVE SMOOTH",
"691 680 OFFCURVE",
"699 672 OFFCURVE",
"721 674 CURVE SMOOTH",
"994 688 LINE SMOOTH",
"1029 690 OFFCURVE",
"1041 706 OFFCURVE",
"1031 740 CURVE SMOOTH",
"998 894 OFFCURVE",
"841 1080 OFFCURVE",
"555 1080 CURVE SMOOTH"
);
}
);
};
guideLines = (
{
angle = -0.5577;
position = "{-472, 167}";
},
{
position = "{532, 123}";
},
{
angle = 3.769;
position = "{427, 307}";
}
);
layerId = "258ED206-D907-4350-8EBA-CBDDA1C16BF7";
paths = (
{
closed = 1;
nodes = (
"777 -20 OFFCURVE",
"973 180 OFFCURVE",
"1005 400 CURVE",
"700 400 LINE",
"689 358 OFFCURVE",
"645 248 OFFCURVE",
"547 248 CURVE SMOOTH",
"449 248 OFFCURVE",
"389 346 OFFCURVE",
"414 516 CURVE SMOOTH",
"441 682 OFFCURVE",
"519 766 OFFCURVE",
"618 766 CURVE SMOOTH",
"717 766 OFFCURVE",
"731 670 OFFCURVE",
"729 612 CURVE",
"1043 612 LINE",
"1073 844 OFFCURVE",
"950 1054 OFFCURVE",
"658 1054 CURVE SMOOTH",
"361 1054 OFFCURVE",
"107 832 OFFCURVE",
"59 512 CURVE SMOOTH",
"11 196 OFFCURVE",
"202 -20 OFFCURVE",
"496 -20 CURVE SMOOTH"
);
}
);
width = 1096;
},
{
anchors = (
{
name = bottom;
position = "{464, 0}";
},
{
name = top;
position = "{599, 1034}";
}
);
background = {
anchors = (
{
name = bottom;
position = "{485, 0}";
},
{
name = top;
position = "{480, 1060}";
}
);
paths = (
{
closed = 1;
nodes = (
"201 1080 OFFCURVE",
"2 850 OFFCURVE",
"2 526 CURVE SMOOTH",
"2 200 OFFCURVE",
"197 -20 OFFCURVE",
"483 -20 CURVE SMOOTH",
"653 -20 OFFCURVE",
"796 58 OFFCURVE",
"892 214 CURVE SMOOTH",
"896 222 OFFCURVE",
"894 230 OFFCURVE",
"888 234 CURVE SMOOTH",
"842 264 LINE SMOOTH",
"834 270 OFFCURVE",
"830 268 OFFCURVE",
"823 256 CURVE SMOOTH",
"735 120 OFFCURVE",
"626 56 OFFCURVE",
"491 56 CURVE SMOOTH",
"247 56 OFFCURVE",
"86 246 OFFCURVE",
"86 530 CURVE SMOOTH",
"86 814 OFFCURVE",
"247 1004 OFFCURVE",
"493 1004 CURVE SMOOTH",
"604 1004 OFFCURVE",
"695 956 OFFCURVE",
"804 822 CURVE SMOOTH",
"812 812 OFFCURVE",
"821 810 OFFCURVE",
"827 814 CURVE SMOOTH",
"874 846 LINE SMOOTH",
"880 850 OFFCURVE",
"882 854 OFFCURVE",
"874 866 CURVE SMOOTH",
"783 998 OFFCURVE",
"661 1080 OFFCURVE",
"483 1080 CURVE SMOOTH"
);
}
);
};
layerId = "91AB5BCA-6A50-42DA-B2F7-8181BF189245";
rightMetricsKey = "=e";
paths = (
{
closed = 1;
nodes = (
"626 -20 OFFCURVE",
"796 75 OFFCURVE",
"862 276 CURVE",
"783 276 LINE",
"742 140 OFFCURVE",
"616 54 OFFCURVE",
"464 54 CURVE SMOOTH",
"233 54 OFFCURVE",
"148 239 OFFCURVE",
"187 514 CURVE SMOOTH",
"231 830 OFFCURVE",
"393 978 OFFCURVE",
"594 978 CURVE SMOOTH",
"746 978 OFFCURVE",
"847 892 OFFCURVE",
"850 756 CURVE",
"929 756 LINE",
"919 957 OFFCURVE",
"777 1054 OFFCURVE",
"604 1054 CURVE SMOOTH",
"320 1054 OFFCURVE",
"155 837 OFFCURVE",
"110 514 CURVE SMOOTH",
"59 150 OFFCURVE",
"203 -20 OFFCURVE",
"453 -20 CURVE SMOOTH"
);
}
);
width = 1017;
}
);
leftKerningGroup = o;
leftMetricsKey = o;
rightKerningGroup = o;
rightMetricsKey = e;
unicode = 0063;
},
{
glyphname = d;
lastChange = "2020-01-07 05:38:39 +0000";
layers = (
{
anchors = (
{
name = bottom;
position = "{553, 0}";
},
{
name = caron;
position = "{1301, 1437}";
},
{
name = center;
position = "{631, 516}";
}
);
background = {
anchors = (
{
name = bottom;
position = "{645, 0}";
},
{
name = center;
position = "{645, 530}";
},
{
name = topright;
position = "{1217, 1060}";
}
);
paths = (
{
closed = 1;
nodes = (
"1127 0 LINE SMOOTH",
"1169 0 OFFCURVE",
"1181 16 OFFCURVE",
"1181 50 CURVE SMOOTH",
"1181 1438 LINE SMOOTH",
"1181 1468 OFFCURVE",
"1165 1484 OFFCURVE",
"1143 1484 CURVE SMOOTH",
"818 1484 LINE SMOOTH",
"795 1484 OFFCURVE",
"783 1468 OFFCURVE",
"783 1442 CURVE SMOOTH",
"783 992 LINE SMOOTH",
"783 960 OFFCURVE",
"765 960 OFFCURVE",
"745 976 CURVE SMOOTH",
"663 1056 OFFCURVE",
"587 1080 OFFCURVE",
"497 1080 CURVE SMOOTH",
"276 1080 OFFCURVE",
"77 862 OFFCURVE",
"77 526 CURVE SMOOTH",
"77 164 OFFCURVE",
"241 -20 OFFCURVE",
"477 -20 CURVE SMOOTH",
"601 -20 OFFCURVE",
"679 20 OFFCURVE",
"757 92 CURVE SMOOTH",
"770 104 OFFCURVE",
"787 102 OFFCURVE",
"787 84 CURVE SMOOTH",
"787 46 LINE SMOOTH",
"787 12 OFFCURVE",
"811 0 OFFCURVE",
"837 0 CURVE SMOOTH"
);
},
{
closed = 1;
nodes = (
"781 352 LINE SMOOTH",
"781 274 OFFCURVE",
"719 220 OFFCURVE",
"641 220 CURVE SMOOTH",
"539 220 OFFCURVE",
"480 298 OFFCURVE",
"480 528 CURVE SMOOTH",
"480 760 OFFCURVE",
"547 832 OFFCURVE",
"641 832 CURVE SMOOTH",
"703 832 OFFCURVE",
"739 806 OFFCURVE",
"781 756 CURVE"
);
}
);
};
layerId = "258ED206-D907-4350-8EBA-CBDDA1C16BF7";
paths = (
{
closed = 1;
nodes = (
"596 -20 OFFCURVE",
"707 68 OFFCURVE",
"774 212 CURVE",
"790 0 LINE",
"1065 0 LINE",
"1274 1486 LINE",
"884 1486 LINE",
"804 916 LINE",
"755 1022 OFFCURVE",
"640 1054 OFFCURVE",
"537 1054 CURVE SMOOTH",
"283 1054 OFFCURVE",
"106 850 OFFCURVE",
"61 524 CURVE SMOOTH",
"14 194 OFFCURVE",
"142 -20 OFFCURVE",
"428 -20 CURVE SMOOTH"
);
},
{
closed = 1;
nodes = (
"470 252 OFFCURVE",
"408 320 OFFCURVE",
"437 524 CURVE SMOOTH",
"464 716 OFFCURVE",
"545 780 OFFCURVE",
"633 780 CURVE SMOOTH",
"724 780 OFFCURVE",
"774 708 OFFCURVE",
"749 524 CURVE SMOOTH",
"720 320 OFFCURVE",
"649 252 OFFCURVE",
"558 252 CURVE"
);
}
);
width = 1238;
},
{
anchors = (
{
name = bottom;
position = "{449, 0}";
},
{
name = caron;
position = "{1027, 1446}";
},
{
name = center;
position = "{544, 516}";
}
);
background = {
anchors = (
{
name = bottom;
position = "{569, 0}";
},
{
name = center;
position = "{593, 530}";
},
{
name = topright;
position = "{1219, 1484}";
}
);
paths = (
{
closed = 1;
nodes = (
"943 0 LINE SMOOTH",
"962 0 OFFCURVE",
"967 6 OFFCURVE",
"967 24 CURVE SMOOTH",
"967 1466 LINE SMOOTH",
"967 1478 OFFCURVE",
"962 1484 OFFCURVE",
"952 1484 CURVE SMOOTH",
"905 1484 LINE SMOOTH",
"891 1484 OFFCURVE",
"887 1478 OFFCURVE",
"887 1464 CURVE SMOOTH",
"887 986 LINE SMOOTH",
"887 960 OFFCURVE",
"883 952 OFFCURVE",
"859 972 CURVE SMOOTH",
"798 1020 OFFCURVE",
"712 1080 OFFCURVE",
"565 1080 CURVE SMOOTH",
"271 1080 OFFCURVE",
"80 850 OFFCURVE",
"80 510 CURVE SMOOTH",
"80 156 OFFCURVE",
"286 -20 OFFCURVE",
"542 -20 CURVE SMOOTH",
"733 -20 OFFCURVE",
"836 98 OFFCURVE",
"868 132 CURVE SMOOTH",
"883 148 OFFCURVE",
"891 146 OFFCURVE",
"891 124 CURVE SMOOTH",
"891 22 LINE SMOOTH",
"891 8 OFFCURVE",
"897 0 OFFCURVE",
"912 0 CURVE SMOOTH"
);
},
{
closed = 1;
nodes = (
"887 340 LINE SMOOTH",
"887 220 OFFCURVE",
"744 56 OFFCURVE",
"551 56 CURVE SMOOTH",
"347 56 OFFCURVE",
"164 200 OFFCURVE",
"164 518 CURVE SMOOTH",
"164 822 OFFCURVE",
"334 1004 OFFCURVE",
"567 1004 CURVE SMOOTH",
"689 1004 OFFCURVE",
"790 948 OFFCURVE",
"887 852 CURVE"
);
}
);
};
layerId = "91AB5BCA-6A50-42DA-B2F7-8181BF189245";
paths = (
{
closed = 1;
nodes = (
"701 -20 OFFCURVE",
"793 164 OFFCURVE",
"813 212 CURVE",
"791 0 LINE",
"857 0 LINE",
"1051 1486 LINE",
"977 1486 LINE",
"893 846 LINE",
"883 893 OFFCURVE",
"809 1054 OFFCURVE",
"581 1054 CURVE SMOOTH",
"309 1054 OFFCURVE",
"152 840 OFFCURVE",
"110 520 CURVE SMOOTH",
"63 153 OFFCURVE",
"200 -20 OFFCURVE",
"441 -20 CURVE SMOOTH"
);
},
{
closed = 1;
nodes = (
"233 54 OFFCURVE",
"154 246 OFFCURVE",
"192 533 CURVE SMOOTH",
"231 836 OFFCURVE",
"381 978 OFFCURVE",
"578 978 CURVE SMOOTH",
"824 978 OFFCURVE",
"884 805 OFFCURVE",
"853 533 CURVE SMOOTH",
"809 200 OFFCURVE",
"703 54 OFFCURVE",
"452 54 CURVE SMOOTH"
);
}
);
width = 1110;
}
);
leftKerningGroup = o;
leftMetricsKey = o;
rightKerningGroup = u;
rightMetricsKey = "=|n";
unicode = 0064;
},
{
glyphname = eth;
lastChange = "2020-01-07 05:38:39 +0000";
layers = (
{
background = {
paths = (
{
closed = 1;
nodes = (
"1296 880 OFFCURVE",
"1147 1164 OFFCURVE",
"899 1338 CURVE",
"990 1390 LINE SMOOTH",
"1002 1398 OFFCURVE",
"1004 1408 OFFCURVE",
"998 1418 CURVE SMOOTH",
"956 1494 LINE SMOOTH",
"949 1504 OFFCURVE",
"935 1508 OFFCURVE",
"920 1498 CURVE SMOOTH",
"771 1414 LINE",
"697 1452 OFFCURVE",
"615 1480 OFFCURVE",
"529 1500 CURVE SMOOTH",
"504 1506 OFFCURVE",
"500 1504 OFFCURVE",
"487 1492 CURVE SMOOTH",
"319 1354 LINE SMOOTH",
"305 1342 OFFCURVE",
"311 1330 OFFCURVE",
"323 1326 CURVE SMOOTH",
"383 1306 OFFCURVE",
"437 1282 OFFCURVE",
"487 1256 CURVE",
"345 1178 LINE SMOOTH",
"330 1172 OFFCURVE",
"324 1156 OFFCURVE",
"341 1134 CURVE SMOOTH",
"370 1086 LINE SMOOTH",
"385 1064 OFFCURVE",
"397 1060 OFFCURVE",
"418 1072 CURVE SMOOTH",
"611 1180 LINE",
"666 1138 OFFCURVE",
"704 1102 OFFCURVE",
"742 1050 CURVE SMOOTH",
"746 1044 OFFCURVE",
"746 1040 OFFCURVE",
"739 1040 CURVE SMOOTH",
"423 1040 OFFCURVE",
"181 818 OFFCURVE",
"181 504 CURVE SMOOTH",
"181 206 OFFCURVE",
"408 -20 OFFCURVE",
"737 -20 CURVE SMOOTH",
"1071 -20 OFFCURVE",
"1296 204 OFFCURVE",
"1296 564 CURVE SMOOTH"
);
},
{
closed = 1;
nodes = (
"633 236 OFFCURVE",
"584 324 OFFCURVE",
"584 512 CURVE SMOOTH",
"584 702 OFFCURVE",
"633 792 OFFCURVE",
"739 792 CURVE SMOOTH",
"847 792 OFFCURVE",
"893 702 OFFCURVE",
"893 512 CURVE SMOOTH",
"893 326 OFFCURVE",
"847 236 OFFCURVE",
"739 236 CURVE SMOOTH"
);
}
);
};
layerId = "258ED206-D907-4350-8EBA-CBDDA1C16BF7";
paths = (
{
closed = 1;
nodes = (
"861 -20 OFFCURVE",
"1103 197 OFFCURVE",
"1151 538 CURVE SMOOTH",
"1214 991 OFFCURVE",
"1114 1344 OFFCURVE",
"867 1477 CURVE",
"419 1488 LINE",
"493 1421 OFFCURVE",
"823 1288 OFFCURVE",
"938 854 CURVE",
"870 955 OFFCURVE",
"749 1016 OFFCURVE",
"615 1016 CURVE SMOOTH",
"376 1016 OFFCURVE",
"109 861 OFFCURVE",
"60 514 CURVE SMOOTH",
"17 211 OFFCURVE",
"216 -20 OFFCURVE",
"541 -20 CURVE SMOOTH"
);
},
{
closed = 1;
nodes = (
"417 262 OFFCURVE",
"422 403 OFFCURVE",
"436 503 CURVE SMOOTH",
"453 625 OFFCURVE",
"504 776 OFFCURVE",
"638 776 CURVE SMOOTH",
"754 776 OFFCURVE",
"750 646 OFFCURVE",
"736 546 CURVE SMOOTH",
"719 425 OFFCURVE",
"667 262 OFFCURVE",
"535 262 CURVE SMOOTH"
);
},
{
closed = 1;
nodes = (
"1157 1254 LINE",
"1189 1487 LINE",
"380 1255 LINE",
"349 1021 LINE"
);
}
);
width = 1208;
},
{
background = {
paths = (
{
closed = 1;
nodes = (
"1216 844 OFFCURVE",
"1106 1126 OFFCURVE",
"794 1338 CURVE",
"974 1438 LINE SMOOTH",
"980 1442 OFFCURVE",
"980 1448 OFFCURVE",
"976 1454 CURVE SMOOTH",
"952 1498 LINE SMOOTH",
"950 1502 OFFCURVE",
"940 1504 OFFCURVE",
"934 1500 CURVE SMOOTH",
"726 1384 LINE",
"656 1426 OFFCURVE",
"582 1462 OFFCURVE",
"494 1498 CURVE SMOOTH",
"476 1506 OFFCURVE",
"470 1502 OFFCURVE",
"458 1494 CURVE SMOOTH",
"422 1470 LINE SMOOTH",
"412 1462 OFFCURVE",
"414 1452 OFFCURVE",
"424 1448 CURVE SMOOTH",
"508 1414 OFFCURVE",
"582 1378 OFFCURVE",
"650 1340 CURVE",
"340 1166 LINE SMOOTH",
"334 1162 OFFCURVE",
"330 1156 OFFCURVE",
"338 1144 CURVE SMOOTH",
"356 1116 LINE SMOOTH",
"364 1104 OFFCURVE",
"370 1100 OFFCURVE",
"382 1106 CURVE SMOOTH",
"718 1296 LINE",
"890 1180 OFFCURVE",
"996 1046 OFFCURVE",
"1058 902 CURVE",
"972 988 OFFCURVE",
"854 1040 OFFCURVE",
"712 1040 CURVE SMOOTH",
"440 1040 OFFCURVE",
"244 816 OFFCURVE",
"244 504 CURVE SMOOTH",
"244 196 OFFCURVE",
"438 -20 OFFCURVE",
"726 -20 CURVE SMOOTH",
"1034 -20 OFFCURVE",
"1216 202 OFFCURVE",
"1216 510 CURVE SMOOTH"
);
},
{
closed = 1;
nodes = (
"502 56 OFFCURVE",
"328 256 OFFCURVE",
"328 508 CURVE SMOOTH",
"328 760 OFFCURVE",
"502 964 OFFCURVE",
"732 964 CURVE SMOOTH",
"960 964 OFFCURVE",
"1132 762 OFFCURVE",
"1132 508 CURVE SMOOTH",
"1132 254 OFFCURVE",
"964 56 OFFCURVE",
"734 56 CURVE SMOOTH"
);
}
);
};
layerId = "91AB5BCA-6A50-42DA-B2F7-8181BF189245";
paths = (
{
closed = 1;
nodes = (
"730 -20 OFFCURVE",
"916 210 OFFCURVE",
"964 510 CURVE SMOOTH",
"1039 983 OFFCURVE",
"1024 1266 OFFCURVE",
"717 1479 CURVE",
"632 1442 LINE",
"799 1344 OFFCURVE",
"957 1182 OFFCURVE",
"928 844 CURVE",
"901 953 OFFCURVE",
"823 1054 OFFCURVE",
"614 1054 CURVE SMOOTH",
"352 1054 OFFCURVE",
"154 832 OFFCURVE",
"110 518 CURVE SMOOTH",
"67 216 OFFCURVE",
"203 -20 OFFCURVE",
"471 -20 CURVE SMOOTH"
);
},
{
closed = 1;
nodes = (
"252 54 OFFCURVE",
"150 266 OFFCURVE",
"184 510 CURVE SMOOTH",
"223 790 OFFCURVE",
"388 978 OFFCURVE",
"610 978 CURVE SMOOTH",
"840 978 OFFCURVE",
"931 820 OFFCURVE",
"889 518 CURVE SMOOTH",
"853 268 OFFCURVE",
"696 54 OFFCURVE",
"473 54 CURVE SMOOTH"
);
},
{
closed = 1;
nodes = (
"1060 1352 LINE",
"1072 1440 LINE",
"542 1218 LINE",
"530 1129 LINE"
);
}
);
width = 1076;
}
);
leftKerningGroup = o;
leftMetricsKey = o;
rightKerningGroup = o;
rightMetricsKey = o;
unicode = 00F0;
},
{
glyphname = dcroat;
lastChange = "2019-06-12 20:13:09 +0000";
layers = (
{
background = {
components = (
{
name = d;
transform = "{1, 0, 0, 1, -38, 0}";
}
);
paths = (
{
closed = 1;
nodes = (
"1150 1360 OFFCURVE",
"1138 1374 OFFCURVE",
"1118 1374 CURVE SMOOTH",
"440 1374 LINE SMOOTH",
"420 1374 OFFCURVE",
"408 1360 OFFCURVE",
"408 1334 CURVE SMOOTH",
"408 1204 LINE SMOOTH",
"408 1174 OFFCURVE",
"418 1160 OFFCURVE",
"452 1160 CURVE SMOOTH",
"1092 1160 LINE SMOOTH",
"1132 1160 OFFCURVE",
"1150 1174 OFFCURVE",
"1150 1208 CURVE SMOOTH",
"1150 1338 LINE SMOOTH"
);
}
);
};
components = (
{
name = d;
}
);
layerId = "258ED206-D907-4350-8EBA-CBDDA1C16BF7";
paths = (
{
closed = 1;
nodes = (
"1324 1132 LINE",
"1352 1340 LINE",
"628 1340 LINE",
"600 1132 LINE"
);
}
);
width = 1298;
},
{
background = {
components = (
{
name = d;
transform = "{1, 0, 0, 1, 4, 0}";
}
);
paths = (
{
closed = 1;
nodes = (
"1162 1320 OFFCURVE",
"1158 1324 OFFCURVE",
"1152 1324 CURVE SMOOTH",
"594 1324 LINE SMOOTH",
"588 1324 OFFCURVE",
"584 1320 OFFCURVE",
"584 1310 CURVE SMOOTH",
"584 1270 LINE SMOOTH",
"584 1258 OFFCURVE",
"586 1254 OFFCURVE",
"598 1254 CURVE SMOOTH",
"1142 1254 LINE SMOOTH",
"1156 1254 OFFCURVE",
"1162 1258 OFFCURVE",
"1162 1270 CURVE SMOOTH",
"1162 1312 LINE SMOOTH"
);
}
);
};
components = (
{
name = d;
}
);
layerId = "91AB5BCA-6A50-42DA-B2F7-8181BF189245";
paths = (
{
closed = 1;
nodes = (
"1130 1222 LINE",
"1130 1290 LINE",
"568 1290 LINE",
"568 1222 LINE"
);
}
);
width = 1091;
}
);
leftKerningGroup = o;
leftMetricsKey = d;
unicode = 0111;
},
{
glyphname = e;
lastChange = "2020-01-07 18:10:15 +0000";
layers = (
{
anchors = (
{
name = bottom;
position = "{518, 0}";
},
{
name = ogonek;
position = "{774, 50}";
},
{
name = top;
position = "{667, 1034}";
}
);
background = {
anchors = (
{
name = bottom;
position = "{572, 0}";
},
{
name = ogonek;
position = "{829, 52}";
},
{
name = top;
position = "{566, 1060}";
}
);
paths = (
{
closed = 1;
nodes = (
"417 448 OFFCURVE",
"428 458 OFFCURVE",
"448 458 CURVE SMOOTH",
"1070 458 LINE SMOOTH",
"1104 460 OFFCURVE",
"1106 474 OFFCURVE",
"1106 508 CURVE SMOOTH",
"1106 870 OFFCURVE",
"875 1080 OFFCURVE",
"562 1080 CURVE SMOOTH",
"266 1080 OFFCURVE",
"6 852 OFFCURVE",
"6 512 CURVE SMOOTH",
"6 198 OFFCURVE",
"249 -20 OFFCURVE",
"570 -20 CURVE SMOOTH",
"793 -20 OFFCURVE",
"930 34 OFFCURVE",
"1074 236 CURVE SMOOTH",
"1092 258 OFFCURVE",
"1085 276 OFFCURVE",
"1066 284 CURVE SMOOTH",
"884 358 LINE SMOOTH",
"858 368 OFFCURVE",
"852 366 OFFCURVE",
"842 356 CURVE SMOOTH",
"753 270 OFFCURVE",
"692 244 OFFCURVE",
"623 244 CURVE SMOOTH",
"508 244 OFFCURVE",
"417 302 OFFCURVE",
"417 424 CURVE SMOOTH"
);
},
{
closed = 1;
nodes = (
"422 790 OFFCURVE",
"497 846 OFFCURVE",
"579 846 CURVE SMOOTH",
"680 846 OFFCURVE",
"718 744 OFFCURVE",
"718 692 CURVE SMOOTH",
"718 668 OFFCURVE",
"709 664 OFFCURVE",
"684 664 CURVE SMOOTH",
"424 666 LINE"
);
}
);
};
layerId = "258ED206-D907-4350-8EBA-CBDDA1C16BF7";
paths = (
{
closed = 1;
nodes = (
"751 -20 OFFCURVE",
"1006 122 OFFCURVE",
"1072 352 CURVE",
"730 352 LINE",
"686 272 OFFCURVE",
"625 252 OFFCURVE",
"554 252 CURVE SMOOTH",
"470 252 OFFCURVE",
"409 304 OFFCURVE",
"432 428 CURVE",
"1079 428 LINE",
"1094 518 LINE",
"1140 824 OFFCURVE",
"1006 1054 OFFCURVE",
"669 1054 CURVE SMOOTH",
"340 1054 OFFCURVE",
"108 800 OFFCURVE",
"64 504 CURVE SMOOTH",
"16 190 OFFCURVE",
"201 -20 OFFCURVE",
"522 -20 CURVE SMOOTH"
);
},
{
closed = 1;
nodes = (
"474 724 OFFCURVE",
"550 792 OFFCURVE",
"629 792 CURVE SMOOTH",
"728 792 OFFCURVE",
"768 724 OFFCURVE",
"756 646 CURVE",
"461 646 LINE"
);
}
);
width = 1161;
},
{
anchors = (
{
name = bottom;
position = "{471, 0}";
},
{
name = ogonek;
position = "{574, 36}";
},
{
name = top;
position = "{609, 1034}";
}
);
background = {
anchors = (
{
name = bottom;
position = "{494, 0}";
},
{
name = ogonek;
position = "{680, 36}";
},
{
name = top;
position = "{488, 1060}";
}
);
paths = (
{
closed = 1;
nodes = (
"90 494 OFFCURVE",
"94 508 OFFCURVE",
"102 508 CURVE SMOOTH",
"924 508 LINE SMOOTH",
"955 508 OFFCURVE",
"950 532 OFFCURVE",
"950 548 CURVE SMOOTH",
"950 884 OFFCURVE",
"774 1080 OFFCURVE",
"492 1080 CURVE SMOOTH",
"210 1080 OFFCURVE",
"6 872 OFFCURVE",
"6 522 CURVE SMOOTH",
"6 200 OFFCURVE",
"205 -20 OFFCURVE",
"492 -20 CURVE SMOOTH",
"680 -20 OFFCURVE",
"820 54 OFFCURVE",
"912 200 CURVE SMOOTH",
"918 208 OFFCURVE",
"916 216 OFFCURVE",
"910 220 CURVE SMOOTH",
"864 250 LINE SMOOTH",
"856 256 OFFCURVE",
"850 254 OFFCURVE",
"842 242 CURVE SMOOTH",
"770 122 OFFCURVE",
"652 56 OFFCURVE",
"492 56 CURVE SMOOTH",
"268 56 OFFCURVE",
"90 254 OFFCURVE",
"90 480 CURVE SMOOTH"
);
},
{
closed = 1;
nodes = (
"90 780 OFFCURVE",
"226 1004 OFFCURVE",
"490 1004 CURVE SMOOTH",
"722 1004 OFFCURVE",
"866 828 OFFCURVE",
"866 608 CURVE SMOOTH",
"866 586 OFFCURVE",
"860 580 OFFCURVE",
"832 580 CURVE SMOOTH",
"92 580 LINE"
);
}
);
};
guideLines = (
{
angle = 88.4926;
position = "{163, 483}";
}
);
layerId = "91AB5BCA-6A50-42DA-B2F7-8181BF189245";
paths = (
{
closed = 1;
nodes = (
"643 -20 OFFCURVE",
"817 75 OFFCURVE",
"883 276 CURVE",
"805 276 LINE",
"763 140 OFFCURVE",
"634 56 OFFCURVE",
"482 56 CURVE SMOOTH",
"239 56 OFFCURVE",
"164 264 OFFCURVE",
"197 498 CURVE",
"926 498 LINE",
"933 554 LINE",
"978 872 OFFCURVE",
"858 1054 OFFCURVE",
"611 1054 CURVE SMOOTH",
"347 1054 OFFCURVE",
"168 850 OFFCURVE",
"120 508 CURVE SMOOTH",
"72 170 OFFCURVE",
"219 -20 OFFCURVE",
"471 -20 CURVE SMOOTH"
);
},
{
closed = 1;
nodes = (
"235 768 OFFCURVE",
"363 978 OFFCURVE",
"599 978 CURVE SMOOTH",
"815 978 OFFCURVE",
"892 804 OFFCURVE",
"859 574 CURVE",
"209 574 LINE"
);
}
);
width = 1050;
}
);
leftKerningGroup = o;
leftMetricsKey = "=o*1.1";
rightKerningGroup = o;
rightMetricsKey = "=o*1.1";
unicode = 0065;
},
{
glyphname = f;
lastChange = "2020-01-08 05:47:00 +0000";
layers = (
{
background = {
paths = (
{
closed = 1;
nodes = (
"610 1060 LINE SMOOTH",
"595 1060 OFFCURVE",
"584 1066 OFFCURVE",
"584 1086 CURVE SMOOTH",
"584 1122 LINE SMOOTH",
"584 1178 OFFCURVE",
"629 1224 OFFCURVE",
"675 1224 CURVE SMOOTH",
"761 1224 LINE SMOOTH",
"784 1224 OFFCURVE",
"797 1242 OFFCURVE",
"797 1264 CURVE",
"795 1432 LINE",
"795 1464 OFFCURVE",
"774 1484 OFFCURVE",
"736 1484 CURVE SMOOTH",
"511 1484 LINE SMOOTH",
"316 1484 OFFCURVE",
"194 1376 OFFCURVE",
"194 1202 CURVE SMOOTH",
"194 1096 LINE SMOOTH",
"194 1070 OFFCURVE",
"189 1060 OFFCURVE",
"166 1060 CURVE SMOOTH",
"70 1060 LINE SMOOTH",
"36 1060 OFFCURVE",
"23 1040 OFFCURVE",
"23 1016 CURVE SMOOTH",
"23 828 LINE SMOOTH",
"23 800 OFFCURVE",
"38 790 OFFCURVE",
"66 790 CURVE SMOOTH",
"179 790 LINE SMOOTH",
"190 790 OFFCURVE",
"194 784 OFFCURVE",
"194 770 CURVE SMOOTH",
"194 40 LINE SMOOTH",
"194 14 OFFCURVE",
"208 0 OFFCURVE",
"231 0 CURVE SMOOTH",
"557 0 LINE SMOOTH",
"580 0 OFFCURVE",
"595 14 OFFCURVE",
"595 44 CURVE SMOOTH",
"595 766 LINE SMOOTH",
"595 782 OFFCURVE",
"605 790 OFFCURVE",
"618 790 CURVE SMOOTH",
"742 790 LINE SMOOTH",
"769 790 OFFCURVE",
"786 800 OFFCURVE",
"786 828 CURVE SMOOTH",
"786 1016 LINE SMOOTH",
"786 1040 OFFCURVE",
"771 1060 OFFCURVE",
"736 1060 CURVE SMOOTH"
);
}
);
};
layerId = "258ED206-D907-4350-8EBA-CBDDA1C16BF7";
leftMetricsKey = "=t";
rightMetricsKey = "=x";
paths = (
{
closed = 1;
nodes = (
"500 0 LINE",
"618 770 LINE",
"805 770 LINE",
"845 1034 LINE",
"650 1034 LINE",
"658 1094 LINE SMOOTH",
"671 1170 OFFCURVE",
"696 1194 OFFCURVE",
"761 1194 CURVE SMOOTH",
"879 1194 LINE",
"916 1446 LINE",
"641 1446 LINE SMOOTH",
"452 1446 OFFCURVE",
"318 1342 OFFCURVE",
"292 1172 CURVE SMOOTH",
"271 1034 LINE",
"106 1034 LINE",
"66 770 LINE",
"231 770 LINE",
"114 0 LINE"
);
}
);
width = 795;
},
{
background = {
paths = (
{
closed = 1;
nodes = (
"449 1060 LINE SMOOTH",
"439 1060 OFFCURVE",
"435 1064 OFFCURVE",
"435 1074 CURVE SMOOTH",
"435 1254 LINE SMOOTH",
"435 1356 OFFCURVE",
"462 1414 OFFCURVE",
"561 1414 CURVE SMOOTH",
"721 1414 LINE SMOOTH",
"731 1414 OFFCURVE",
"737 1418 OFFCURVE",
"737 1428 CURVE SMOOTH",
"737 1470 LINE SMOOTH",
"737 1480 OFFCURVE",
"733 1484 OFFCURVE",
"725 1484 CURVE SMOOTH",
"582 1484 LINE SMOOTH",
"422 1484 OFFCURVE",
"355 1400 OFFCURVE",
"355 1236 CURVE SMOOTH",
"355 1074 LINE SMOOTH",
"355 1064 OFFCURVE",
"351 1060 OFFCURVE",
"341 1060 CURVE SMOOTH",
"115 1060 LINE SMOOTH",
"107 1060 OFFCURVE",
"103 1056 OFFCURVE",
"103 1048 CURVE SMOOTH",
"103 1002 LINE SMOOTH",
"103 994 OFFCURVE",
"107 990 OFFCURVE",
"115 990 CURVE SMOOTH",
"343 990 LINE SMOOTH",
"351 990 OFFCURVE",
"355 984 OFFCURVE",
"355 976 CURVE SMOOTH",
"355 20 LINE SMOOTH",
"355 6 OFFCURVE",
"359 0 OFFCURVE",
"372 0 CURVE SMOOTH",
"418 0 LINE SMOOTH",
"429 0 OFFCURVE",
"435 6 OFFCURVE",
"435 22 CURVE SMOOTH",
"435 976 LINE SMOOTH",
"435 986 OFFCURVE",
"439 990 OFFCURVE",
"449 990 CURVE SMOOTH",
"715 990 LINE SMOOTH",
"723 990 OFFCURVE",
"727 994 OFFCURVE",
"727 1002 CURVE SMOOTH",
"727 1048 LINE SMOOTH",
"727 1056 OFFCURVE",
"723 1060 OFFCURVE",
"717 1060 CURVE SMOOTH"
);
}
);
};
layerId = "91AB5BCA-6A50-42DA-B2F7-8181BF189245";
paths = (
{
closed = 1;
nodes = (
"321 0 LINE",
"456 966 LINE",
"717 966 LINE",
"727 1034 LINE",
"465 1034 LINE",
"491 1222 LINE SMOOTH",
"505 1322 OFFCURVE",
"538 1378 OFFCURVE",
"628 1378 CURVE SMOOTH",
"785 1378 LINE",
"794 1446 LINE",
"655 1446 LINE SMOOTH",
"511 1446 OFFCURVE",
"441 1366 OFFCURVE",
"418 1206 CURVE SMOOTH",
"393 1034 LINE",
"168 1034 LINE",
"157 966 LINE",
"385 966 LINE",
"250 0 LINE"
);
}
);
width = 743;
}
);
leftKerningGroup = f;
leftMetricsKey = "=t*.75";
rightKerningGroup = f;
rightMetricsKey = "=t*.75";
unicode = 0066;
},
{
glyphname = g;
lastChange = "2019-11-13 23:29:21 +0000";
layers = (
{
anchors = (
{
name = top;
position = "{772, 1034}";
}
);
background = {
anchors = (
{
name = top;
position = "{507, 1060}";
}
);
paths = (
{
closed = 1;
nodes = (
"1067 1124 OFFCURVE",
"955 1068 OFFCURVE",
"901 992 CURVE SMOOTH",
"887 972 OFFCURVE",
"859 970 OFFCURVE",
"839 986 CURVE SMOOTH",
"773 1038 OFFCURVE",
"657 1076 OFFCURVE",
"505 1076 CURVE SMOOTH",
"147 1076 OFFCURVE",
"-35 938 OFFCURVE",
"-35 746 CURVE SMOOTH",
"-35 624 OFFCURVE",
"41 530 OFFCURVE",
"173 474 CURVE SMOOTH",
"193 462 OFFCURVE",
"179 456 OFFCURVE",
"167 450 CURVE SMOOTH",
"59 404 OFFCURVE",
"-51 338 OFFCURVE",
"-51 244 CURVE SMOOTH",
"-51 162 OFFCURVE",
"11 112 OFFCURVE",
"81 78 CURVE SMOOTH",
"97 70 OFFCURVE",
"101 62 OFFCURVE",
"81 56 CURVE SMOOTH",
"-25 26 OFFCURVE",
"-113 -16 OFFCURVE",
"-113 -106 CURVE SMOOTH",
"-113 -274 OFFCURVE",
"91 -350 OFFCURVE",
"509 -350 CURVE SMOOTH",
"911 -350 OFFCURVE",
"1115 -198 OFFCURVE",
"1115 6 CURVE SMOOTH",
"1115 170 OFFCURVE",
"983 286 OFFCURVE",
"687 304 CURVE SMOOTH",
"383 322 LINE SMOOTH",
"325 326 OFFCURVE",
"295 334 OFFCURVE",
"295 364 CURVE SMOOTH",
"295 396 OFFCURVE",
"349 418 OFFCURVE",
"480 418 CURVE SMOOTH",
"817 418 OFFCURVE",
"995 568 OFFCURVE",
"995 748 CURVE SMOOTH",
"995 768 OFFCURVE",
"991 790 OFFCURVE",
"985 810 CURVE SMOOTH",
"977 838 OFFCURVE",
"987 856 OFFCURVE",
"1025 856 CURVE SMOOTH",
"1049 856 OFFCURVE",
"1087 850 OFFCURVE",
"1113 842 CURVE SMOOTH",
"1143 832 OFFCURVE",
"1165 848 OFFCURVE",
"1165 894 CURVE SMOOTH",
"1165 1074 LINE SMOOTH",
"1165 1110 OFFCURVE",
"1147 1124 OFFCURVE",
"1125 1124 CURVE SMOOTH"
);
},
{
closed = 1;
nodes = (
"377 600 OFFCURVE",
"321 668 OFFCURVE",
"321 740 CURVE SMOOTH",
"321 822 OFFCURVE",
"377 890 OFFCURVE",
"477 890 CURVE SMOOTH",
"589 890 OFFCURVE",
"633 822 OFFCURVE",
"633 740 CURVE SMOOTH",
"633 670 OFFCURVE",
"589 600 OFFCURVE",
"477 600 CURVE SMOOTH"
);
},
{
closed = 1;
nodes = (
"723 0 OFFCURVE",
"769 -32 OFFCURVE",
"769 -70 CURVE SMOOTH",
"769 -128 OFFCURVE",
"685 -172 OFFCURVE",
"529 -172 CURVE SMOOTH",
"279 -172 OFFCURVE",
"209 -128 OFFCURVE",
"209 -54 CURVE SMOOTH",
"209 -12 OFFCURVE",
"261 20 OFFCURVE",
"347 16 CURVE SMOOTH",
"637 4 LINE SMOOTH"
);
}
);
};
layerId = "258ED206-D907-4350-8EBA-CBDDA1C16BF7";
paths = (
{
closed = 1;
nodes = (
"899 -342 OFFCURVE",
"1107 -205 OFFCURVE",
"1134 -16 CURVE SMOOTH",
"1158 155 OFFCURVE",
"1043 295 OFFCURVE",
"750 314 CURVE SMOOTH",
"672 321 OFFCURVE",
"591 323 OFFCURVE",
"546 327 CURVE SMOOTH",
"474 333 OFFCURVE",
"413 343 OFFCURVE",
"406 375 CURVE SMOOTH",
"403 389 OFFCURVE",
"421 381 OFFCURVE",
"451 379 CURVE",
"476 377 OFFCURVE",
"547 374 OFFCURVE",
"588 374 CURVE SMOOTH",
"907 374 OFFCURVE",
"1096 543 OFFCURVE",
"1120 708 CURVE SMOOTH",
"1123 731 OFFCURVE",
"1122 769 OFFCURVE",
"1118 799 CURVE",
"1302 834 LINE",
"1334 1114 LINE",
"1214 1066 OFFCURVE",
"1058 1010 OFFCURVE",
"967 975 CURVE",
"904 1011 OFFCURVE",
"829 1050 OFFCURVE",
"672 1050 CURVE SMOOTH",
"368 1050 OFFCURVE",
"147 930 OFFCURVE",
"121 750 CURVE SMOOTH",
"104 629 OFFCURVE",
"165 490 OFFCURVE",
"297 426 CURVE",
"123 400 OFFCURVE",
"47 331 OFFCURVE",
"37 260 CURVE SMOOTH",
"19 135 OFFCURVE",
"136 85 OFFCURVE",
"156 73 CURVE",
"131 64 OFFCURVE",
"-54 41 OFFCURVE",
"-72 -82 CURVE SMOOTH",
"-92 -225 OFFCURVE",
"99 -342 OFFCURVE",
"516 -342 CURVE SMOOTH"
);
},
{
closed = 1;
nodes = (
"380 -138 OFFCURVE",
"299 -126 OFFCURVE",
"307 -71 CURVE SMOOTH",
"313 -26 OFFCURVE",
"355 23 OFFCURVE",
"463 17 CURVE SMOOTH",
"650 5 LINE SMOOTH",
"729 -1 OFFCURVE",
"765 -19 OFFCURVE",
"761 -52 CURVE SMOOTH",
"754 -101 OFFCURVE",
"714 -138 OFFCURVE",
"569 -138 CURVE SMOOTH"
);
},
{
closed = 1;
nodes = (
"528 578 OFFCURVE",
"494 625 OFFCURVE",
"503 692 CURVE SMOOTH",
"516 781 OFFCURVE",
"586 860 OFFCURVE",
"669 860 CURVE SMOOTH",
"734 860 OFFCURVE",
"767 803 OFFCURVE",
"757 736 CURVE SMOOTH",
"745 647 OFFCURVE",
"676 578 OFFCURVE",
"593 578 CURVE SMOOTH"
);
}
);
width = 1267;
},
{
anchors = (
{
name = top;
position = "{583, 1034}";
}
);
background = {
anchors = (
{
name = top;
position = "{363, 1060}";
}
);
guideLines = (
{
angle = 90;
position = "{96, 374}";
showMeasurement = 1;
}
);
paths = (
{
closed = 1;
nodes = (
"791 1060 OFFCURVE",
"731 1014 OFFCURVE",
"691 984 CURVE SMOOTH",
"677 974 OFFCURVE",
"668 974 OFFCURVE",
"655 986 CURVE SMOOTH",
"586 1044 OFFCURVE",
"500 1076 OFFCURVE",
"369 1076 CURVE SMOOTH",
"105 1076 OFFCURVE",
"-51 950 OFFCURVE",
"-51 738 CURVE SMOOTH",
"-51 614 OFFCURVE",
"-3 532 OFFCURVE",
"107 470 CURVE SMOOTH",
"121 462 OFFCURVE",
"125 450 OFFCURVE",
"109 446 CURVE SMOOTH",
"9 414 OFFCURVE",
"-25 362 OFFCURVE",
"-25 318 CURVE SMOOTH",
"-25 274 OFFCURVE",
"-3 242 OFFCURVE",
"51 218 CURVE SMOOTH",
"65 212 OFFCURVE",
"65 204 OFFCURVE",
"51 196 CURVE SMOOTH",
"-75 126 OFFCURVE",
"-133 42 OFFCURVE",
"-133 -54 CURVE SMOOTH",
"-133 -240 OFFCURVE",
"39 -350 OFFCURVE",
"347 -350 CURVE SMOOTH",
"649 -350 OFFCURVE",
"825 -238 OFFCURVE",
"825 -38 CURVE SMOOTH",
"825 120 OFFCURVE",
"731 220 OFFCURVE",
"517 232 CURVE SMOOTH",
"277 246 LINE SMOOTH",
"123 254 OFFCURVE",
"59 272 OFFCURVE",
"59 320 CURVE SMOOTH",
"59 368 OFFCURVE",
"125 418 OFFCURVE",
"355 418 CURVE SMOOTH",
"637 418 OFFCURVE",
"759 560 OFFCURVE",
"759 738 CURVE SMOOTH",
"759 822 OFFCURVE",
"731 868 OFFCURVE",
"717 902 CURVE SMOOTH",
"710 916 OFFCURVE",
"721 928 OFFCURVE",
"757 948 CURVE SMOOTH",
"789 966 OFFCURVE",
"815 974 OFFCURVE",
"867 976 CURVE SMOOTH",
"895 978 OFFCURVE",
"901 990 OFFCURVE",
"901 1008 CURVE SMOOTH",
"901 1034 LINE SMOOTH",
"901 1052 OFFCURVE",
"893 1060 OFFCURVE",
"863 1060 CURVE SMOOTH"
);
},
{
closed = 1;
nodes = (
"147 494 OFFCURVE",
"29 580 OFFCURVE",
"29 742 CURVE SMOOTH",
"29 906 OFFCURVE",
"149 1000 OFFCURVE",
"357 1000 CURVE SMOOTH",
"569 1000 OFFCURVE",
"679 908 OFFCURVE",
"679 742 CURVE SMOOTH",
"679 578 OFFCURVE",
"573 494 OFFCURVE",
"357 494 CURVE SMOOTH"
);
},
{
closed = 1;
nodes = (
"683 140 OFFCURVE",
"741 72 OFFCURVE",
"741 -38 CURVE SMOOTH",
"741 -202 OFFCURVE",
"609 -274 OFFCURVE",
"365 -274 CURVE SMOOTH",
"103 -274 OFFCURVE",
"-49 -192 OFFCURVE",
"-49 -46 CURVE SMOOTH",
"-49 86 OFFCURVE",
"99 176 OFFCURVE",
"163 172 CURVE SMOOTH",
"515 150 LINE SMOOTH"
);
}
);
};
guideLines = (
{
angle = 90;
position = "{234, 347}";
showMeasurement = 1;
}
);
layerId = "91AB5BCA-6A50-42DA-B2F7-8181BF189245";
rightMetricsKey = "=x*1.3";
paths = (
{
closed = 1;
nodes = (
"717 -342 OFFCURVE",
"870 -220 OFFCURVE",
"894 -38 CURVE SMOOTH",
"916 130 OFFCURVE",
"816 216 OFFCURVE",
"651 226 CURVE SMOOTH",
"561 232 OFFCURVE",
"491 236 OFFCURVE",
"436 240 CURVE SMOOTH",
"284 252 OFFCURVE",
"241 268 OFFCURVE",
"247 312 CURVE SMOOTH",
"253 356 OFFCURVE",
"316 404 OFFCURVE",
"508 408 CURVE SMOOTH",
"515 408 OFFCURVE",
"521 408 OFFCURVE",
"528 408 CURVE SMOOTH",
"776 408 OFFCURVE",
"909 533 OFFCURVE",
"934 720 CURVE SMOOTH",
"941 780 OFFCURVE",
"933 842 OFFCURVE",
"913 892 CURVE",
"1089 932 LINE",
"1104 1048 LINE",
"1079 1038 OFFCURVE",
"910 964 OFFCURVE",
"884 952 CURVE",
"819 1018 OFFCURVE",
"743 1050 OFFCURVE",
"625 1050 CURVE SMOOTH",
"366 1050 OFFCURVE",
"228 918 OFFCURVE",
"202 720 CURVE SMOOTH",
"186 597 OFFCURVE",
"239 502 OFFCURVE",
"331 444 CURVE",
"234 414 OFFCURVE",
"178 366 OFFCURVE",
"171 310 CURVE SMOOTH",
"163 248 OFFCURVE",
"204 226 OFFCURVE",
"236 202 CURVE",
"205 176 OFFCURVE",
"48 104 OFFCURVE",
"28 -52 CURVE SMOOTH",
"2 -249 OFFCURVE",
"163 -342 OFFCURVE",
"423 -342 CURVE SMOOTH"
);
},
{
closed = 1;
nodes = (
"195 -268 OFFCURVE",
"87 -178 OFFCURVE",
"104 -44 CURVE SMOOTH",
"121 84 OFFCURVE",
"266 172 OFFCURVE",
"323 168 CURVE SMOOTH",
"638 146 LINE SMOOTH",
"776 137 OFFCURVE",
"831 64 OFFCURVE",
"818 -38 CURVE SMOOTH",
"798 -194 OFFCURVE",
"653 -268 OFFCURVE",
"449 -268 CURVE SMOOTH"
);
},
{
closed = 1;
nodes = (
"349 482 OFFCURVE",
"254 566 OFFCURVE",
"275 724 CURVE SMOOTH",
"297 895 OFFCURVE",
"426 976 OFFCURVE",
"604 976 CURVE SMOOTH",
"778 976 OFFCURVE",
"884 896 OFFCURVE",
"862 724 CURVE SMOOTH",
"840 559 OFFCURVE",
"714 482 OFFCURVE",
"540 482 CURVE SMOOTH"
);
}
);
width = 1148;
}
);
leftKerningGroup = g;
leftMetricsKey = "=x*1.2";
rightKerningGroup = g;
rightMetricsKey = "=x";
unicode = 0067;
},
{
glyphname = gcommaaccent;
lastChange = "2019-11-13 23:27:18 +0000";
layers = (
{
anchors = (
{
name = _top;
position = "{694, 1034}";
}
);
background = {
anchors = (
{
name = _top;
position = "{530, 1100}";
}
);
components = (
{
name = g;
transform = "{1, 0, 0, 1, -38, 0}";
}
);
paths = (
{
closed = 1;
nodes = (
"624 1198 LINE SMOOTH",
"644 1198 OFFCURVE",
"660 1210 OFFCURVE",
"660 1238 CURVE SMOOTH",
"660 1360 LINE SMOOTH",
"660 1392 OFFCURVE",
"648 1404 OFFCURVE",
"614 1404 CURVE SMOOTH",
"596 1404 LINE SMOOTH",
"568 1404 OFFCURVE",
"556 1434 OFFCURVE",
"578 1462 CURVE SMOOTH",
"644 1552 LINE SMOOTH",
"656 1568 OFFCURVE",
"642 1592 OFFCURVE",
"620 1592 CURVE SMOOTH",
"584 1592 LINE SMOOTH",
"548 1592 OFFCURVE",
"534 1586 OFFCURVE",
"518 1564 CURVE SMOOTH",
"410 1430 LINE SMOOTH",
"408 1424 OFFCURVE",
"402 1414 OFFCURVE",
"402 1404 CURVE SMOOTH",
"402 1230 LINE SMOOTH",
"402 1210 OFFCURVE",
"414 1198 OFFCURVE",
"436 1198 CURVE SMOOTH"
);
}
);
};
components = (
{
name = g;
}
);
layerId = "258ED206-D907-4350-8EBA-CBDDA1C16BF7";
paths = (
{
closed = 1;
nodes = (
"814 1168 LINE",
"842 1368 LINE",
"720 1368 LINE",
"880 1552 LINE",
"748 1552 LINE",
"592 1384 LINE",
"562 1168 LINE"
);
}
);
width = 1267;
},
{
anchors = (
{
name = _top;
position = "{558, 1072}";
}
);
background = {
anchors = (
{
name = _top;
position = "{574, 1100}";
}
);
components = (
{
name = g;
transform = "{1, 0, 0, 1, 4, 0}";
}
);
paths = (
{
closed = 1;
nodes = (
"612 1264 LINE SMOOTH",
"620 1264 OFFCURVE",
"626 1268 OFFCURVE",
"626 1280 CURVE SMOOTH",
"626 1412 LINE SMOOTH",
"626 1426 OFFCURVE",
"622 1430 OFFCURVE",
"610 1430 CURVE SMOOTH",
"594 1430 LINE SMOOTH",
"584 1430 OFFCURVE",
"580 1436 OFFCURVE",
"586 1448 CURVE SMOOTH",
"636 1556 LINE SMOOTH",
"640 1564 OFFCURVE",
"636 1572 OFFCURVE",
"628 1572 CURVE SMOOTH",
"602 1572 LINE SMOOTH",
"586 1572 OFFCURVE",
"580 1570 OFFCURVE",
"574 1560 CURVE SMOOTH",
"512 1442 LINE SMOOTH",
"512 1440 OFFCURVE",
"510 1434 OFFCURVE",
"510 1430 CURVE SMOOTH",
"510 1278 LINE SMOOTH",
"510 1268 OFFCURVE",
"514 1264 OFFCURVE",
"522 1264 CURVE SMOOTH"
);
}
);
};
components = (
{
name = g;
}
);
layerId = "91AB5BCA-6A50-42DA-B2F7-8181BF189245";
paths = (
{
closed = 1;
nodes = (
"688 1232 LINE",
"712 1394 LINE",
"666 1394 LINE",
"750 1532 LINE",
"688 1532 LINE",
"600 1402 LINE",
"576 1232 LINE"
);
}
);
width = 1148;
}
);
leftKerningGroup = g;
leftMetricsKey = g;
rightKerningGroup = g;
rightMetricsKey = g;
unicode = 0123;
},
{
glyphname = h;
lastChange = "2019-11-13 23:27:18 +0000";
layers = (
{
anchors = (
{
name = bottom;
position = "{539, 0}";
},
{
name = top;
position = "{436, 1446}";
}
);
background = {
anchors = (
{
name = bottom;
position = "{625, 0}";
},
{
name = top;
position = "{903, 1060}";
}
);
paths = (
{
closed = 1;
nodes = (
"432 0 LINE SMOOTH",
"480 0 OFFCURVE",
"497 16 OFFCURVE",
"497 58 CURVE SMOOTH",
"497 698 LINE",
"535 766 OFFCURVE",
"583 798 OFFCURVE",
"646 798 CURVE SMOOTH",
"709 798 OFFCURVE",
"749 762 OFFCURVE",
"749 702 CURVE SMOOTH",
"749 50 LINE SMOOTH",
"749 12 OFFCURVE",
"762 0 OFFCURVE",
"795 0 CURVE SMOOTH",
"1089 0 LINE SMOOTH",
"1131 0 OFFCURVE",
"1149 20 OFFCURVE",
"1149 60 CURVE SMOOTH",
"1149 750 LINE SMOOTH",
"1149 962 OFFCURVE",
"1035 1080 OFFCURVE",
"837 1080 CURVE SMOOTH",
"731 1080 OFFCURVE",
"631 1046 OFFCURVE",
"518 936 CURVE SMOOTH",
"501 922 OFFCURVE",
"491 928 OFFCURVE",
"491 944 CURVE SMOOTH",
"491 1442 LINE SMOOTH",
"491 1468 OFFCURVE",
"480 1484 OFFCURVE",
"455 1484 CURVE SMOOTH",
"135 1484 LINE SMOOTH",
"111 1484 OFFCURVE",
"98 1466 OFFCURVE",
"98 1438 CURVE SMOOTH",
"98 50 LINE SMOOTH",
"98 14 OFFCURVE",
"111 0 OFFCURVE",
"149 0 CURVE SMOOTH"
);
}
);
};
layerId = "258ED206-D907-4350-8EBA-CBDDA1C16BF7";
paths = (
{
closed = 1;
nodes = (
"415 0 LINE",
"514 642 LINE",
"522 700 OFFCURVE",
"591 740 OFFCURVE",
"649 740 CURVE SMOOTH",
"707 740 OFFCURVE",
"766 704 OFFCURVE",
"755 646 CURVE SMOOTH",
"657 0 LINE",
"1045 0 LINE",
"1151 692 LINE SMOOTH",
"1182 898 OFFCURVE",
"1035 1034 OFFCURVE",
"843 1034 CURVE SMOOTH",
"682 1034 OFFCURVE",
"609 966 OFFCURVE",
"554 906 CURVE",
"642 1486 LINE",
"253 1486 LINE",
"27 0 LINE"
);
}
);
width = 1216;
},
{
anchors = (
{
name = bottom;
position = "{501, 0}";
},
{
name = top;
position = "{364, 1446}";
}
);
background = {
anchors = (
{
name = bottom;
position = "{625, 0}";
},
{
name = top;
position = "{670, 1060}";
}
);
paths = (
{
closed = 1;
nodes = (
"264 0 LINE SMOOTH",
"276 0 OFFCURVE",
"281 6 OFFCURVE",
"281 18 CURVE SMOOTH",
"281 820 LINE",
"442 942 OFFCURVE",
"535 1004 OFFCURVE",
"678 1004 CURVE SMOOTH",
"852 1004 OFFCURVE",
"924 910 OFFCURVE",
"924 754 CURVE SMOOTH",
"924 18 LINE SMOOTH",
"924 6 OFFCURVE",
"930 0 OFFCURVE",
"942 0 CURVE SMOOTH",
"986 0 LINE SMOOTH",
"997 0 OFFCURVE",
"1004 6 OFFCURVE",
"1004 20 CURVE SMOOTH",
"1004 786 LINE SMOOTH",
"1004 960 OFFCURVE",
"894 1080 OFFCURVE",
"680 1080 CURVE SMOOTH",
"533 1080 OFFCURVE",
"444 1022 OFFCURVE",
"291 914 CURVE SMOOTH",
"279 904 OFFCURVE",
"276 906 OFFCURVE",
"276 920 CURVE SMOOTH",
"276 1468 LINE SMOOTH",
"276 1480 OFFCURVE",
"272 1484 OFFCURVE",
"260 1484 CURVE SMOOTH",
"218 1484 LINE SMOOTH",
"205 1484 OFFCURVE",
"201 1478 OFFCURVE",
"201 1466 CURVE SMOOTH",
"201 18 LINE SMOOTH",
"201 6 OFFCURVE",
"207 0 OFFCURVE",
"220 0 CURVE SMOOTH"
);
}
);
};
layerId = "91AB5BCA-6A50-42DA-B2F7-8181BF189245";
paths = (
{
closed = 1;
nodes = (
"195 0 LINE",
"289 720 LINE",
"311 896 OFFCURVE",
"468 978 OFFCURVE",
"638 978 CURVE SMOOTH",
"801 978 OFFCURVE",
"890 888 OFFCURVE",
"870 736 CURVE SMOOTH",
"774 0 LINE",
"847 0 LINE",
"946 766 LINE SMOOTH",
"969 936 OFFCURVE",
"840 1054 OFFCURVE",
"650 1054 CURVE SMOOTH",
"494 1054 OFFCURVE",
"367 978 OFFCURVE",
"304 880 CURVE",
"383 1486 LINE",
"316 1486 LINE",
"123 0 LINE"
);
}
);
width = 1080;
}
);
leftKerningGroup = n;
leftMetricsKey = n;
rightKerningGroup = n;
rightMetricsKey = n;
unicode = 0068;
},
{
glyphname = hbar;
lastChange = "2019-11-13 23:27:18 +0000";
layers = (
{
background = {
components = (
{
name = h;
transform = "{1, 0, 0, 1, 12, 0}";
}
);
paths = (
{
closed = 1;
nodes = (
"766 1360 OFFCURVE",
"754 1374 OFFCURVE",
"734 1374 CURVE SMOOTH",
"56 1374 LINE SMOOTH",
"36 1374 OFFCURVE",
"24 1360 OFFCURVE",
"24 1334 CURVE SMOOTH",
"24 1204 LINE SMOOTH",
"24 1174 OFFCURVE",
"34 1160 OFFCURVE",
"68 1160 CURVE SMOOTH",
"708 1160 LINE SMOOTH",
"748 1160 OFFCURVE",
"766 1174 OFFCURVE",
"766 1208 CURVE SMOOTH",
"766 1338 LINE SMOOTH"
);
}
);
};
components = (
{
name = h;
transform = "{1, 0, 0, 1, 100, 0}";
}
);
layerId = "258ED206-D907-4350-8EBA-CBDDA1C16BF7";
paths = (
{
closed = 1;
nodes = (
"850 1132 LINE",
"878 1340 LINE",
"156 1340 LINE",
"128 1132 LINE"
);
}
);
width = 1316;
},
{
background = {
components = (
{
name = h;
transform = "{1, 0, 0, 1, 54, 0}";
}
);
paths = (
{
closed = 1;
nodes = (
"725 1320 OFFCURVE",
"721 1324 OFFCURVE",
"715 1324 CURVE SMOOTH",
"157 1324 LINE SMOOTH",
"151 1324 OFFCURVE",
"147 1320 OFFCURVE",
"147 1310 CURVE SMOOTH",
"147 1270 LINE SMOOTH",
"147 1258 OFFCURVE",
"149 1254 OFFCURVE",
"161 1254 CURVE SMOOTH",
"705 1254 LINE SMOOTH",
"719 1254 OFFCURVE",
"725 1258 OFFCURVE",
"725 1270 CURVE SMOOTH",
"725 1312 LINE SMOOTH"
);
}
);
};
components = (
{
name = h;
transform = "{1, 0, 0, 1, 100, 0}";
}
);
layerId = "91AB5BCA-6A50-42DA-B2F7-8181BF189245";
paths = (
{
closed = 1;
nodes = (
"705 1222 LINE",
"713 1290 LINE",
"149 1290 LINE",
"141 1222 LINE"
);
}
);
width = 1180;
}
);
leftKerningGroup = n;
rightKerningGroup = n;
rightMetricsKey = h;
unicode = 0127;
},
{
glyphname = i;
lastChange = "2019-11-13 23:27:18 +0000";
layers = (
{
anchors = (
{
name = bottom;
position = "{212, 0}";
}
);
background = {
paths = (
{
closed = 1;
nodes = (
"486 1044 OFFCURVE",
"472 1060 OFFCURVE",
"450 1060 CURVE SMOOTH",
"124 1060 LINE SMOOTH",
"100 1060 OFFCURVE",
"86 1044 OFFCURVE",
"86 1014 CURVE SMOOTH",
"86 50 LINE SMOOTH",
"86 16 OFFCURVE",
"98 0 OFFCURVE",
"138 0 CURVE SMOOTH",
"420 0 LINE SMOOTH",
"466 0 OFFCURVE",
"486 16 OFFCURVE",
"486 58 CURVE SMOOTH",
"486 1020 LINE SMOOTH"
);
},
{
closed = 1;
nodes = (
"486 1468 OFFCURVE",
"472 1484 OFFCURVE",
"450 1484 CURVE SMOOTH",
"124 1484 LINE SMOOTH",
"100 1484 OFFCURVE",
"86 1468 OFFCURVE",
"86 1438 CURVE SMOOTH",
"86 1200 LINE SMOOTH",
"86 1166 OFFCURVE",
"98 1148 OFFCURVE",
"138 1148 CURVE SMOOTH",
"420 1148 LINE SMOOTH",
"466 1148 OFFCURVE",
"486 1166 OFFCURVE",
"486 1206 CURVE SMOOTH",
"486 1442 LINE SMOOTH"
);
}
);
};
layerId = "258ED206-D907-4350-8EBA-CBDDA1C16BF7";
paths = (
{
closed = 1;
nodes = (
"397 0 LINE",
"543 1034 LINE",
"173 1034 LINE",
"27 0 LINE"
);
},
{
closed = 1;
nodes = (
"555 1118 LINE",
"601 1446 LINE",
"231 1446 LINE",
"185 1118 LINE"
);
}
);
width = 571;
},
{
anchors = (
{
name = bottom;
position = "{153, 0}";
}
);
background = {
paths = (
{
closed = 1;
nodes = (
"300 1056 OFFCURVE",
"296 1060 OFFCURVE",
"283 1060 CURVE SMOOTH",
"239 1060 LINE SMOOTH",
"225 1060 OFFCURVE",
"220 1056 OFFCURVE",
"220 1040 CURVE SMOOTH",
"220 20 LINE SMOOTH",
"220 4 OFFCURVE",
"225 0 OFFCURVE",
"243 0 CURVE SMOOTH",
"277 0 LINE SMOOTH",
"296 0 OFFCURVE",
"300 4 OFFCURVE",
"300 24 CURVE SMOOTH",
"300 1040 LINE SMOOTH"
);
},
{
closed = 1;
nodes = (
"311 1474 OFFCURVE",
"300 1484 OFFCURVE",
"287 1484 CURVE SMOOTH",
"235 1484 LINE SMOOTH",
"220 1484 OFFCURVE",
"210 1474 OFFCURVE",
"210 1458 CURVE SMOOTH",
"210 1316 LINE SMOOTH",
"210 1300 OFFCURVE",
"214 1288 OFFCURVE",
"233 1288 CURVE SMOOTH",
"287 1288 LINE SMOOTH",
"307 1288 OFFCURVE",
"311 1300 OFFCURVE",
"311 1320 CURVE SMOOTH",
"311 1458 LINE SMOOTH"
);
}
);
};
layerId = "91AB5BCA-6A50-42DA-B2F7-8181BF189245";
paths = (
{
closed = 1;
nodes = (
"189 0 LINE",
"334 1034 LINE",
"261 1034 LINE",
"115 0 LINE"
);
},
{
closed = 1;
nodes = (
"381 1324 LINE",
"398 1444 LINE",
"310 1444 LINE",
"293 1324 LINE"
);
}
);
width = 448;
}
);
leftKerningGroup = n;
leftMetricsKey = n;
rightKerningGroup = u;
rightMetricsKey = "=|n";
unicode = 0069;
},
{
glyphname = idotless;
lastChange = "2019-11-13 23:27:18 +0000";
layers = (
{
anchors = (
{
name = ogonek;
position = "{363, 18}";
},
{
name = top;
position = "{385, 1034}";
}
);
background = {
anchors = (
{
name = ogonek;
position = "{413, 18}";
},
{
name = top;
position = "{277, 1060}";
}
);
paths = (
{
closed = 1;
nodes = (
"469 1044 OFFCURVE",
"455 1060 OFFCURVE",
"433 1060 CURVE SMOOTH",
"107 1060 LINE SMOOTH",
"83 1060 OFFCURVE",
"69 1044 OFFCURVE",
"69 1014 CURVE SMOOTH",
"69 50 LINE SMOOTH",
"69 16 OFFCURVE",
"81 0 OFFCURVE",
"121 0 CURVE SMOOTH",
"403 0 LINE SMOOTH",
"449 0 OFFCURVE",
"469 16 OFFCURVE",
"469 58 CURVE SMOOTH",
"469 1020 LINE SMOOTH"
);
}
);
};
layerId = "258ED206-D907-4350-8EBA-CBDDA1C16BF7";
paths = (
{
closed = 1;
nodes = (
"415 0 LINE",
"573 1034 LINE",
"185 1034 LINE",
"27 0 LINE"
);
}
);
width = 600;
},
{
anchors = (
{
name = ogonek;
position = "{169, 26}";
},
{
name = top;
position = "{288, 1034}";
}
);
background = {
anchors = (
{
name = ogonek;
position = "{247, 26}";
},
{
name = top;
position = "{224, 1060}";
}
);
paths = (
{
closed = 1;
nodes = (
"264 1056 OFFCURVE",
"259 1060 OFFCURVE",
"246 1060 CURVE SMOOTH",
"202 1060 LINE SMOOTH",
"188 1060 OFFCURVE",
"184 1056 OFFCURVE",
"184 1040 CURVE SMOOTH",
"184 20 LINE SMOOTH",
"184 4 OFFCURVE",
"188 0 OFFCURVE",
"205 0 CURVE SMOOTH",
"240 0 LINE SMOOTH",
"259 0 OFFCURVE",
"264 4 OFFCURVE",
"264 24 CURVE SMOOTH",
"264 1040 LINE SMOOTH"
);
}
);
};
layerId = "91AB5BCA-6A50-42DA-B2F7-8181BF189245";
paths = (
{
closed = 1;
nodes = (
"180 0 LINE",
"326 1034 LINE",
"253 1034 LINE",
"108 0 LINE"
);
}
);
width = 433;
}
);
leftKerningGroup = n;
leftMetricsKey = i;
rightKerningGroup = u;
rightMetricsKey = i;
unicode = 0131;
},
{
glyphname = j;
lastChange = "2019-11-13 23:26:47 +0000";
layers = (
{
background = {
paths = (
{
closed = 1;
nodes = (
"515 1020 LINE SMOOTH",
"515 1044 OFFCURVE",
"503 1060 OFFCURVE",
"478 1060 CURVE SMOOTH",
"154 1060 LINE SMOOTH",
"131 1060 OFFCURVE",
"115 1044 OFFCURVE",
"115 1014 CURVE SMOOTH",
"115 72 LINE SMOOTH",
"115 4 OFFCURVE",
"93 -12 OFFCURVE",
"66 -20 CURVE SMOOTH",
"-3 -32 LINE SMOOTH",
"-29 -38 OFFCURVE",
"-43 -64 OFFCURVE",
"-43 -86 CURVE SMOOTH",
"-41 -290 LINE SMOOTH",
"-41 -332 OFFCURVE",
"-18 -340 OFFCURVE",
"95 -340 CURVE SMOOTH",
"379 -340 OFFCURVE",
"515 -206 OFFCURVE",
"515 58 CURVE SMOOTH"
);
},
{
closed = 1;
nodes = (
"515 1468 OFFCURVE",
"503 1484 OFFCURVE",
"478 1484 CURVE SMOOTH",
"154 1484 LINE SMOOTH",
"131 1484 OFFCURVE",
"115 1468 OFFCURVE",
"115 1438 CURVE SMOOTH",
"115 1200 LINE SMOOTH",
"115 1166 OFFCURVE",
"129 1148 OFFCURVE",
"169 1148 CURVE SMOOTH",
"451 1148 LINE SMOOTH",
"451 1148 OFFCURVE",
"515 1166 OFFCURVE",
"515 1206 CURVE SMOOTH",
"515 1442 LINE SMOOTH"
);
}
);
};
layerId = "258ED206-D907-4350-8EBA-CBDDA1C16BF7";
paths = (
{
closed = 1;
nodes = (
"267 -332 OFFCURVE",
"419 -200 OFFCURVE",
"457 56 CURVE SMOOTH",
"606 1034 LINE",
"219 1034 LINE",
"70 56 LINE",
"64 14 OFFCURVE",
"41 -12 OFFCURVE",
"-35 -28 CURVE",
"-98 -38 LINE",
"-135 -298 LINE",
"-135 -298 OFFCURVE",
"-109 -332 OFFCURVE",
"-7 -332 CURVE"
);
},
{
closed = 1;
nodes = (
"625 1158 LINE",
"675 1486 LINE",
"287 1486 LINE",
"236 1158 LINE"
);
}
);
width = 639;
},
{
background = {
paths = (
{
closed = 1;
nodes = (
"285 1040 LINE SMOOTH",
"285 1054 OFFCURVE",
"281 1060 OFFCURVE",
"269 1060 CURVE SMOOTH",
"225 1060 LINE SMOOTH",
"211 1060 OFFCURVE",
"205 1054 OFFCURVE",
"205 1040 CURVE SMOOTH",
"205 -92 LINE SMOOTH",
"205 -220 OFFCURVE",
"163 -264 OFFCURVE",
"57 -266 CURVE SMOOTH",
"-58 -268 LINE SMOOTH",
"-67 -268 OFFCURVE",
"-71 -272 OFFCURVE",
"-71 -280 CURVE SMOOTH",
"-71 -322 LINE SMOOTH",
"-71 -338 OFFCURVE",
"-58 -340 OFFCURVE",
"59 -340 CURVE SMOOTH",
"241 -340 OFFCURVE",
"285 -266 OFFCURVE",
"285 -102 CURVE SMOOTH"
);
},
{
closed = 1;
nodes = (
"295 1474 OFFCURVE",
"285 1484 OFFCURVE",
"272 1484 CURVE SMOOTH",
"219 1484 LINE SMOOTH",
"205 1484 OFFCURVE",
"196 1474 OFFCURVE",
"196 1458 CURVE SMOOTH",
"196 1316 LINE SMOOTH",
"196 1300 OFFCURVE",
"199 1288 OFFCURVE",
"217 1288 CURVE SMOOTH",
"272 1288 LINE SMOOTH",
"291 1288 OFFCURVE",
"295 1300 OFFCURVE",
"295 1320 CURVE SMOOTH",
"295 1458 LINE SMOOTH"
);
}
);
};
layerId = "91AB5BCA-6A50-42DA-B2F7-8181BF189245";
paths = (
{
closed = 1;
nodes = (
"101 -332 OFFCURVE",
"150 -260 OFFCURVE",
"171 -100 CURVE SMOOTH",
"331 1034 LINE",
"259 1034 LINE",
"101 -90 LINE SMOOTH",
"83 -214 OFFCURVE",
"41 -258 OFFCURVE",
"-54 -260 CURVE SMOOTH",
"-169 -262 LINE",
"-177 -314 LINE SMOOTH",
"-177 -314 OFFCURVE",
"-171 -332 OFFCURVE",
"-63 -332 CURVE SMOOTH"
);
},
{
closed = 1;
nodes = (
"377 1294 LINE",
"393 1414 LINE",
"305 1414 LINE",
"289 1294 LINE"
);
}
);
width = 448;
}
);
leftKerningGroup = j;
rightKerningGroup = u;
rightMetricsKey = "=|n";
unicode = 006A;
},
{
glyphname = jdotless;
lastChange = "2019-11-13 23:27:18 +0000";
layers = (
{
anchors = (
{
name = top;
position = "{411, 1034}";
}
);
background = {
anchors = (
{
name = top;
position = "{278, 1060}";
}
);
paths = (
{
closed = 1;
nodes = (
"478 1020 LINE SMOOTH",
"478 1044 OFFCURVE",
"467 1060 OFFCURVE",
"442 1060 CURVE SMOOTH",
"119 1060 LINE SMOOTH",
"95 1060 OFFCURVE",
"79 1044 OFFCURVE",
"79 1014 CURVE SMOOTH",
"79 72 LINE SMOOTH",
"79 4 OFFCURVE",
"57 -12 OFFCURVE",
"31 -20 CURVE SMOOTH",
"-39 -32 LINE SMOOTH",
"-65 -38 OFFCURVE",
"-79 -64 OFFCURVE",
"-79 -86 CURVE SMOOTH",
"-77 -290 LINE SMOOTH",
"-77 -332 OFFCURVE",
"-54 -340 OFFCURVE",
"59 -340 CURVE SMOOTH",
"343 -340 OFFCURVE",
"478 -206 OFFCURVE",
"478 58 CURVE SMOOTH"
);
}
);
};
layerId = "258ED206-D907-4350-8EBA-CBDDA1C16BF7";
paths = (
{
closed = 1;
nodes = (
"267 -332 OFFCURVE",
"419 -200 OFFCURVE",
"459 56 CURVE SMOOTH",
"606 1034 LINE",
"219 1034 LINE",
"70 56 LINE",
"64 14 OFFCURVE",
"39 -12 OFFCURVE",
"-37 -28 CURVE",
"-98 -38 LINE",
"-135 -298 LINE",
"-135 -298 OFFCURVE",
"-111 -332 OFFCURVE",
"-9 -332 CURVE"
);
}
);
width = 633;
},
{
anchors = (
{
name = top;
position = "{297, 1034}";
}
);
background = {
anchors = (
{
name = top;
position = "{219, 1060}";
}
);
paths = (
{
closed = 1;
nodes = (
"259 1040 LINE SMOOTH",
"259 1054 OFFCURVE",
"255 1060 OFFCURVE",
"243 1060 CURVE SMOOTH",
"199 1060 LINE SMOOTH",
"185 1060 OFFCURVE",
"179 1054 OFFCURVE",
"179 1040 CURVE SMOOTH",
"179 -92 LINE SMOOTH",
"179 -220 OFFCURVE",
"137 -264 OFFCURVE",
"31 -266 CURVE SMOOTH",
"-85 -268 LINE SMOOTH",
"-93 -268 OFFCURVE",
"-96 -272 OFFCURVE",
"-96 -280 CURVE SMOOTH",
"-96 -322 LINE SMOOTH",
"-96 -338 OFFCURVE",
"-85 -340 OFFCURVE",
"33 -340 CURVE SMOOTH",
"215 -340 OFFCURVE",
"259 -266 OFFCURVE",
"259 -102 CURVE SMOOTH"
);
}
);
};
layerId = "91AB5BCA-6A50-42DA-B2F7-8181BF189245";
paths = (
{
closed = 1;
nodes = (
"101 -332 OFFCURVE",
"152 -260 OFFCURVE",
"173 -100 CURVE SMOOTH",
"333 1034 LINE",
"261 1034 LINE",
"103 -90 LINE SMOOTH",
"85 -214 OFFCURVE",
"41 -258 OFFCURVE",
"-53 -260 CURVE SMOOTH",
"-169 -262 LINE",
"-177 -314 LINE SMOOTH",
"-179 -330 OFFCURVE",
"-169 -332 OFFCURVE",
"-60 -332 CURVE SMOOTH"
);
}
);
width = 440;
}
);
leftKerningGroup = j;
leftMetricsKey = j;
rightKerningGroup = u;
rightMetricsKey = j;
unicode = 0237;
},
{
glyphname = k;
lastChange = "2020-01-07 05:43:01 +0000";
layers = (
{
anchors = (
{
name = bottom;
position = "{529, 0}";
}
);
background = {
anchors = (
{
name = bottom;
position = "{617, 0}";
}
);
paths = (
{
closed = 1;
nodes = (
"923 674 LINE SMOOTH",
"905 710 OFFCURVE",
"909 722 OFFCURVE",
"927 744 CURVE SMOOTH",
"1186 1002 LINE SMOOTH",
"1211 1030 OFFCURVE",
"1203 1060 OFFCURVE",
"1157 1060 CURVE SMOOTH",
"883 1060 LINE SMOOTH",
"863 1060 OFFCURVE",
"841 1046 OFFCURVE",
"821 1026 CURVE SMOOTH",
"522 688 LINE SMOOTH",
"505 670 OFFCURVE",
"497 680 OFFCURVE",
"497 692 CURVE SMOOTH",
"497 1442 LINE SMOOTH",
"497 1468 OFFCURVE",
"485 1484 OFFCURVE",
"461 1484 CURVE SMOOTH",
"135 1484 LINE SMOOTH",
"113 1484 OFFCURVE",
"98 1468 OFFCURVE",
"98 1438 CURVE SMOOTH",
"98 50 LINE SMOOTH",
"98 16 OFFCURVE",
"109 0 OFFCURVE",
"151 0 CURVE SMOOTH",
"434 0 LINE SMOOTH",
"480 0 OFFCURVE",
"497 16 OFFCURVE",
"497 58 CURVE SMOOTH",
"497 260 LINE SMOOTH",
"497 292 OFFCURVE",
"503 306 OFFCURVE",
"516 316 CURVE SMOOTH",
"611 406 LINE SMOOTH",
"631 426 OFFCURVE",
"642 422 OFFCURVE",
"653 396 CURVE SMOOTH",
"797 52 LINE SMOOTH",
"812 20 OFFCURVE",
"829 0 OFFCURVE",
"863 0 CURVE SMOOTH",
"1205 0 LINE SMOOTH",
"1241 0 OFFCURVE",
"1255 34 OFFCURVE",
"1243 56 CURVE SMOOTH"
);
}
);
};
guideLines = (
{
angle = 50.4927;
position = "{261, 343}";
},
{
angle = 122;
position = "{402, 0}";
}
);
layerId = "258ED206-D907-4350-8EBA-CBDDA1C16BF7";
paths = (
{
closed = 1;
nodes = (
"413 0 LINE",
"459 292 LINE",
"547 380 LINE",
"726 0 LINE",
"1102 0 LINE",
"815 606 LINE",
"1257 1034 LINE",
"854 1034 LINE",
"518 686 LINE",
"640 1486 LINE",
"251 1486 LINE",
"27 0 LINE"
);
}
);
width = 1194;
},
{
anchors = (
{
name = bottom;
position = "{433, 0}";
}
);
background = {
anchors = (
{
name = bottom;
position = "{550, 0}";
}
);
paths = (
{
closed = 1;
nodes = (
"616 662 LINE SMOOTH",
"609 672 OFFCURVE",
"611 678 OFFCURVE",
"618 684 CURVE SMOOTH",
"956 1030 LINE SMOOTH",
"973 1048 OFFCURVE",
"972 1060 OFFCURVE",
"952 1060 CURVE SMOOTH",
"888 1060 LINE SMOOTH",
"874 1060 OFFCURVE",
"868 1056 OFFCURVE",
"853 1040 CURVE",
"286 458 LINE SMOOTH",
"269 442 OFFCURVE",
"265 444 OFFCURVE",
"265 468 CURVE SMOOTH",
"265 1464 LINE SMOOTH",
"265 1480 OFFCURVE",
"262 1484 OFFCURVE",
"248 1484 CURVE SMOOTH",
"204 1484 LINE SMOOTH",
"189 1484 OFFCURVE",
"185 1480 OFFCURVE",
"185 1464 CURVE SMOOTH",
"185 20 LINE SMOOTH",
"185 4 OFFCURVE",
"189 0 OFFCURVE",
"208 0 CURVE SMOOTH",
"242 0 LINE SMOOTH",
"262 0 OFFCURVE",
"265 4 OFFCURVE",
"265 24 CURVE SMOOTH",
"265 304 LINE SMOOTH",
"265 318 OFFCURVE",
"269 328 OFFCURVE",
"280 338 CURVE SMOOTH",
"536 598 LINE SMOOTH",
"546 608 OFFCURVE",
"548 604 OFFCURVE",
"552 598 CURVE SMOOTH",
"916 14 LINE SMOOTH",
"922 4 OFFCURVE",
"928 0 OFFCURVE",
"939 0 CURVE SMOOTH",
"1002 0 LINE SMOOTH",
"1019 0 OFFCURVE",
"1021 8 OFFCURVE",
"1012 24 CURVE SMOOTH"
);
}
);
};
guideLines = (
{
angle = 121.8697;
position = "{297, 140}";
}
);
layerId = "91AB5BCA-6A50-42DA-B2F7-8181BF189245";
paths = (
{
closed = 1;
nodes = (
"180 0 LINE",
"223 316 LINE",
"514 592 LINE",
"767 0 LINE",
"859 0 LINE",
"578 658 LINE",
"972 1034 LINE",
"870 1034 LINE",
"240 428 LINE",
"388 1486 LINE",
"317 1486 LINE",
"107 0 LINE"
);
}
);
width = 1022;
}
);
leftKerningGroup = n;
leftMetricsKey = n;
rightKerningGroup = k;
rightMetricsKey = "=x";
unicode = 006B;
},
{
glyphname = kgreenlandic;
lastChange = "2020-01-07 17:46:38 +0000";
layers = (
{
background = {
paths = (
{
closed = 1;
nodes = (
"892 674 LINE SMOOTH",
"873 710 OFFCURVE",
"877 722 OFFCURVE",
"896 744 CURVE SMOOTH",
"1153 1002 LINE SMOOTH",
"1180 1030 OFFCURVE",
"1171 1060 OFFCURVE",
"1125 1060 CURVE SMOOTH",
"852 1060 LINE SMOOTH",
"831 1060 OFFCURVE",
"810 1046 OFFCURVE",
"789 1026 CURVE SMOOTH",
"489 688 LINE SMOOTH",
"474 670 OFFCURVE",
"465 680 OFFCURVE",
"465 692 CURVE SMOOTH",
"465 1018 LINE SMOOTH",
"465 1044 OFFCURVE",
"453 1060 OFFCURVE",
"430 1060 CURVE SMOOTH",
"104 1060 LINE SMOOTH",
"81 1060 OFFCURVE",
"65 1044 OFFCURVE",
"65 1014 CURVE SMOOTH",
"65 50 LINE SMOOTH",
"65 16 OFFCURVE",
"77 0 OFFCURVE",
"119 0 CURVE SMOOTH",
"401 0 LINE SMOOTH",
"447 0 OFFCURVE",
"465 16 OFFCURVE",
"465 58 CURVE SMOOTH",
"465 260 LINE SMOOTH",
"465 292 OFFCURVE",
"472 306 OFFCURVE",
"483 316 CURVE SMOOTH",
"579 406 LINE SMOOTH",
"600 426 OFFCURVE",
"609 422 OFFCURVE",
"621 396 CURVE SMOOTH",
"766 52 LINE SMOOTH",
"779 20 OFFCURVE",
"797 0 OFFCURVE",
"831 0 CURVE SMOOTH",
"1173 0 LINE SMOOTH",
"1209 0 OFFCURVE",
"1224 34 OFFCURVE",
"1211 56 CURVE SMOOTH"
);
}
);
};
layerId = "258ED206-D907-4350-8EBA-CBDDA1C16BF7";
paths = (
{
closed = 1;
nodes = (
"415 0 LINE",
"459 292 LINE",
"615 422 LINE",
"728 0 LINE",
"1163 0 LINE",
"913 700 LINE",
"1293 1034 LINE",
"913 1034 LINE",
"514 644 LINE",
"571 1034 LINE",
"186 1034 LINE",
"27 0 LINE"
);
}
);
width = 1246;
},
{
background = {
paths = (
{
closed = 1;
nodes = (
"584 662 LINE SMOOTH",
"578 672 OFFCURVE",
"580 678 OFFCURVE",
"586 684 CURVE SMOOTH",
"924 1030 LINE SMOOTH",
"941 1048 OFFCURVE",
"939 1060 OFFCURVE",
"920 1060 CURVE SMOOTH",
"855 1060 LINE SMOOTH",
"842 1060 OFFCURVE",
"836 1056 OFFCURVE",
"822 1040 CURVE",
"254 458 LINE SMOOTH",
"237 442 OFFCURVE",
"233 444 OFFCURVE",
"233 468 CURVE SMOOTH",
"233 1040 LINE SMOOTH",
"233 1056 OFFCURVE",
"229 1060 OFFCURVE",
"216 1060 CURVE SMOOTH",
"172 1060 LINE SMOOTH",
"158 1060 OFFCURVE",
"153 1056 OFFCURVE",
"153 1040 CURVE SMOOTH",
"153 20 LINE SMOOTH",
"153 4 OFFCURVE",
"158 0 OFFCURVE",
"176 0 CURVE SMOOTH",
"210 0 LINE SMOOTH",
"229 0 OFFCURVE",
"233 4 OFFCURVE",
"233 24 CURVE SMOOTH",
"233 304 LINE SMOOTH",
"233 318 OFFCURVE",
"237 328 OFFCURVE",
"248 338 CURVE SMOOTH",
"504 598 LINE SMOOTH",
"514 608 OFFCURVE",
"515 604 OFFCURVE",
"519 598 CURVE SMOOTH",
"884 14 LINE SMOOTH",
"890 4 OFFCURVE",
"895 0 OFFCURVE",
"908 0 CURVE SMOOTH",
"970 0 LINE SMOOTH",
"987 0 OFFCURVE",
"990 8 OFFCURVE",
"979 24 CURVE SMOOTH"
);
}
);
};
layerId = "91AB5BCA-6A50-42DA-B2F7-8181BF189245";
paths = (
{
closed = 1;
nodes = (
"180 0 LINE",
"223 316 LINE",
"514 592 LINE",
"767 0 LINE",
"859 0 LINE",
"578 658 LINE",
"970 1034 LINE",
"870 1034 LINE",
"240 428 LINE",
"326 1034 LINE",
"254 1034 LINE",
"107 0 LINE"
);
}
);
width = 1022;
}
);
leftKerningGroup = n;
leftMetricsKey = k;
rightKerningGroup = k;
rightMetricsKey = k;
unicode = 0138;
},
{
glyphname = l;
lastChange = "2020-01-07 05:53:33 +0000";
layers = (
{
anchors = (
{
name = bottom;
position = "{190, 0}";
},
{
name = caron;
position = "{629, 1446}";
},
{
name = top;
position = "{449, 1530}";
}
);
background = {
anchors = (
{
name = bottom;
position = "{182, 0}";
},
{
name = top;
position = "{293, 1484}";
},
{
name = topright;
position = "{667, 1060}";
}
);
paths = (
{
closed = 1;
nodes = (
"648 258 LINE",
"648 258 OFFCURVE",
"596 262 OFFCURVE",
"577 266 CURVE SMOOTH",
"499 284 OFFCURVE",
"485 326 OFFCURVE",
"485 380 CURVE SMOOTH",
"485 1484 LINE",
"91 1484 LINE",
"85 346 LINE",
"85 190 OFFCURVE",
"107 -2 OFFCURVE",
"497 4 CURVE SMOOTH",
"549 6 OFFCURVE",
"581 10 OFFCURVE",
"648 18 CURVE"
);
}
);
};
layerId = "258ED206-D907-4350-8EBA-CBDDA1C16BF7";
paths = (
{
closed = 1;
nodes = (
"461 -22 OFFCURVE",
"514 -8 OFFCURVE",
"562 10 CURVE",
"598 246 LINE",
"558 250 LINE",
"455 264 OFFCURVE",
"451 314 OFFCURVE",
"459 364 CURVE SMOOTH",
"629 1486 LINE",
"249 1486 LINE",
"71 312 LINE",
"49 160 OFFCURVE",
"33 -22 OFFCURVE",
"413 -22 CURVE SMOOTH"
);
}
);
width = 701;
},
{
anchors = (
{
name = bottom;
position = "{182, 2}";
},
{
name = caron;
position = "{383, 1446}";
},
{
name = top;
position = "{351, 1524}";
}
);
background = {
anchors = (
{
name = bottom;
position = "{241, 0}";
},
{
name = top;
position = "{241, 1484}";
},
{
name = topright;
position = "{531, 1484}";
}
);
paths = (
{
closed = 1;
nodes = (
"501 72 LINE",
"481 72 OFFCURVE",
"455 72 OFFCURVE",
"423 72 CURVE SMOOTH",
"295 72 OFFCURVE",
"281 174 OFFCURVE",
"281 260 CURVE",
"281 1484 LINE",
"201 1484 LINE",
"201 260 LINE",
"201 114 OFFCURVE",
"257 4 OFFCURVE",
"399 4 CURVE SMOOTH",
"447 4 OFFCURVE",
"475 6 OFFCURVE",
"501 12 CURVE"
);
}
);
};
layerId = "91AB5BCA-6A50-42DA-B2F7-8181BF189245";
paths = (
{
closed = 1;
nodes = (
"295 -8 OFFCURVE",
"321 -6 OFFCURVE",
"346 0 CURVE",
"353 58 LINE",
"295 58 LINE",
"243 58 OFFCURVE",
"195 108 OFFCURVE",
"213 242 CURVE",
"390 1486 LINE",
"317 1486 LINE",
"141 242 LINE",
"121 100 OFFCURVE",
"157 -8 OFFCURVE",
"283 -8 CURVE SMOOTH"
);
}
);
width = 536;
}
);
leftKerningGroup = n;
leftMetricsKey = n;
rightKerningGroup = l;
rightMetricsKey = "=u*.65";
unicode = 006C;
},
{
glyphname = lslash;
lastChange = "2019-11-13 23:27:20 +0000";
layers = (
{
background = {
components = (
{
name = l;
transform = "{1, 0, 0, 1, 39, 0}";
}
);
paths = (
{
closed = 1;
nodes = (
"695 1014 OFFCURVE",
"682 1022 OFFCURVE",
"648 1000 CURVE SMOOTH",
"85 648 LINE SMOOTH",
"62 632 OFFCURVE",
"47 610 OFFCURVE",
"47 580 CURVE SMOOTH",
"47 340 LINE SMOOTH",
"47 306 OFFCURVE",
"60 300 OFFCURVE",
"100 326 CURVE SMOOTH",
"655 690 LINE SMOOTH",
"682 708 OFFCURVE",
"695 732 OFFCURVE",
"695 756 CURVE SMOOTH",
"695 982 LINE SMOOTH"
);
}
);
};
components = (
{
name = l;
transform = "{1, 0, 0, 1, 164, 0}";
}
);
layerId = "258ED206-D907-4350-8EBA-CBDDA1C16BF7";
leftMetricsKey = "=l-30";
rightMetricsKey = "=l";
paths = (
{
closed = 1;
nodes = (
"715 698 LINE",
"715 1004 LINE",
"83 608 LINE",
"83 284 LINE"
);
}
);
width = 865;
},
{
background = {
components = (
{
name = l;
transform = "{1, 0, 0, 1, 73, 0}";
}
);
paths = (
{
closed = 1;
nodes = (
"534 874 OFFCURVE",
"530 878 OFFCURVE",
"520 870 CURVE SMOOTH",
"70 450 LINE SMOOTH",
"64 444 OFFCURVE",
"60 438 OFFCURVE",
"60 430 CURVE SMOOTH",
"60 372 LINE SMOOTH",
"60 362 OFFCURVE",
"64 354 OFFCURVE",
"74 362 CURVE SMOOTH",
"522 784 LINE SMOOTH",
"530 792 OFFCURVE",
"534 798 OFFCURVE",
"534 806 CURVE SMOOTH",
"534 866 LINE SMOOTH"
);
}
);
};
components = (
{
name = l;
transform = "{1, 0, 0, 1, 66, 0}";
}
);
layerId = "91AB5BCA-6A50-42DA-B2F7-8181BF189245";
leftMetricsKey = "=l-110";
paths = (
{
closed = 1;
nodes = (
"520 776 LINE",
"520 862 LINE",
"58 430 LINE",
"58 340 LINE"
);
}
);
width = 622;
}
);
leftKerningGroup = n;
leftMetricsKey = "=l-130";
rightKerningGroup = l;
rightMetricsKey = "=l+20";
unicode = 0142;
},
{
glyphname = m;
lastChange = "2019-11-13 23:27:18 +0000";
layers = (
{
background = {
guideLines = (
{
angle = 90;
position = "{314, 331}";
showMeasurement = 1;
}
);
paths = (
{
closed = 1;
nodes = (
"398 0 LINE SMOOTH",
"445 0 OFFCURVE",
"463 16 OFFCURVE",
"463 58 CURVE SMOOTH",
"463 698 LINE",
"501 766 OFFCURVE",
"551 798 OFFCURVE",
"611 798 CURVE SMOOTH",
"675 798 OFFCURVE",
"715 762 OFFCURVE",
"715 702 CURVE SMOOTH",
"715 50 LINE SMOOTH",
"715 12 OFFCURVE",
"730 0 OFFCURVE",
"762 0 CURVE SMOOTH",
"1054 0 LINE SMOOTH",
"1096 0 OFFCURVE",
"1113 20 OFFCURVE",
"1113 60 CURVE SMOOTH",
"1113 666 LINE SMOOTH",
"1113 684 OFFCURVE",
"1115 700 OFFCURVE",
"1129 720 CURVE SMOOTH",
"1159 762 OFFCURVE",
"1211 798 OFFCURVE",
"1262 798 CURVE SMOOTH",
"1323 798 OFFCURVE",
"1365 762 OFFCURVE",
"1365 702 CURVE SMOOTH",
"1365 50 LINE SMOOTH",
"1365 12 OFFCURVE",
"1377 0 OFFCURVE",
"1411 0 CURVE SMOOTH",
"1703 0 LINE SMOOTH",
"1745 0 OFFCURVE",
"1766 20 OFFCURVE",
"1766 60 CURVE SMOOTH",
"1766 746 LINE SMOOTH",
"1766 960 OFFCURVE",
"1638 1080 OFFCURVE",
"1457 1080 CURVE SMOOTH",
"1337 1080 OFFCURVE",
"1186 994 OFFCURVE",
"1111 892 CURVE SMOOTH",
"1102 880 OFFCURVE",
"1091 880 OFFCURVE",
"1087 890 CURVE SMOOTH",
"1041 1014 OFFCURVE",
"938 1082 OFFCURVE",
"804 1082 CURVE SMOOTH",
"682 1082 OFFCURVE",
"569 1014 OFFCURVE",
"483 922 CURVE SMOOTH",
"467 906 OFFCURVE",
"457 914 OFFCURVE",
"457 930 CURVE SMOOTH",
"457 1020 LINE SMOOTH",
"457 1044 OFFCURVE",
"445 1060 OFFCURVE",
"421 1060 CURVE SMOOTH",
"102 1060 LINE SMOOTH",
"79 1060 OFFCURVE",
"64 1042 OFFCURVE",
"64 1014 CURVE SMOOTH",
"64 50 LINE SMOOTH",
"64 14 OFFCURVE",
"77 0 OFFCURVE",
"115 0 CURVE SMOOTH"
);
}
);
};
guideLines = (
{
angle = 90;
position = "{614, 207}";
showMeasurement = 1;
}
);
layerId = "258ED206-D907-4350-8EBA-CBDDA1C16BF7";
paths = (
{
closed = 1;
nodes = (
"413 0 LINE",
"518 682 LINE",
"527 742 OFFCURVE",
"596 778 OFFCURVE",
"653 778 CURVE SMOOTH",
"711 778 OFFCURVE",
"770 742 OFFCURVE",
"759 682 CURVE SMOOTH",
"655 0 LINE",
"1041 0 LINE",
"1135 620 LINE SMOOTH",
"1151 716 OFFCURVE",
"1173 778 OFFCURVE",
"1285 778 CURVE SMOOTH",
"1343 778 OFFCURVE",
"1399 742 OFFCURVE",
"1390 682 CURVE SMOOTH",
"1285 0 LINE",
"1673 0 LINE",
"1783 728 LINE SMOOTH",
"1815 934 OFFCURVE",
"1657 1054 OFFCURVE",
"1497 1054 CURVE SMOOTH",
"1388 1054 OFFCURVE",
"1249 998 OFFCURVE",
"1163 910 CURVE",
"1113 1018 OFFCURVE",
"1001 1054 OFFCURVE",
"901 1054 CURVE SMOOTH",
"741 1054 OFFCURVE",
"625 992 OFFCURVE",
"545 910 CURVE",
"565 1034 LINE",
"184 1034 LINE",
"27 0 LINE"
);
}
);
width = 1843;
},
{
background = {
guideLines = (
{
position = "{248, 454}";
}
);
paths = (
{
closed = 1;
nodes = (
"196 0 LINE SMOOTH",
"209 0 OFFCURVE",
"215 6 OFFCURVE",
"215 18 CURVE SMOOTH",
"215 820 LINE",
"367 942 OFFCURVE",
"457 1004 OFFCURVE",
"591 1004 CURVE SMOOTH",
"751 1004 OFFCURVE",
"816 910 OFFCURVE",
"816 754 CURVE SMOOTH",
"816 18 LINE SMOOTH",
"816 6 OFFCURVE",
"825 0 OFFCURVE",
"835 0 CURVE SMOOTH",
"879 0 LINE SMOOTH",
"889 0 OFFCURVE",
"896 6 OFFCURVE",
"896 20 CURVE SMOOTH",
"896 786 LINE SMOOTH",
"896 814 OFFCURVE",
"907 826 OFFCURVE",
"931 846 CURVE SMOOTH",
"1009 910 OFFCURVE",
"1127 1004 OFFCURVE",
"1272 1004 CURVE SMOOTH",
"1433 1004 OFFCURVE",
"1499 910 OFFCURVE",
"1499 754 CURVE SMOOTH",
"1499 18 LINE SMOOTH",
"1499 6 OFFCURVE",
"1505 0 OFFCURVE",
"1516 0 CURVE SMOOTH",
"1560 0 LINE SMOOTH",
"1573 0 OFFCURVE",
"1579 6 OFFCURVE",
"1579 20 CURVE SMOOTH",
"1579 786 LINE SMOOTH",
"1579 960 OFFCURVE",
"1474 1080 OFFCURVE",
"1274 1080 CURVE SMOOTH",
"1137 1080 OFFCURVE",
"1051 1022 OFFCURVE",
"907 914 CURVE SMOOTH",
"894 904 OFFCURVE",
"881 896 OFFCURVE",
"877 908 CURVE SMOOTH",
"850 988 OFFCURVE",
"761 1080 OFFCURVE",
"593 1080 CURVE SMOOTH",
"455 1080 OFFCURVE",
"369 1022 OFFCURVE",
"224 914 CURVE SMOOTH",
"213 904 OFFCURVE",
"209 906 OFFCURVE",
"209 920 CURVE SMOOTH",
"209 1044 LINE SMOOTH",
"209 1056 OFFCURVE",
"205 1060 OFFCURVE",
"192 1060 CURVE SMOOTH",
"150 1060 LINE SMOOTH",
"139 1060 OFFCURVE",
"135 1054 OFFCURVE",
"135 1042 CURVE SMOOTH",
"135 18 LINE SMOOTH",
"135 6 OFFCURVE",
"141 0 OFFCURVE",
"152 0 CURVE SMOOTH"
);
}
);
};
guideLines = (
{
position = "{285, 421}";
}
);
layerId = "91AB5BCA-6A50-42DA-B2F7-8181BF189245";
paths = (
{
closed = 1;
nodes = (
"179 0 LINE",
"281 720 LINE SMOOTH",
"307 906 OFFCURVE",
"465 978 OFFCURVE",
"585 978 CURVE SMOOTH",
"690 978 OFFCURVE",
"808 904 OFFCURVE",
"787 752 CURVE SMOOTH",
"683 0 LINE",
"753 0 LINE",
"854 720 LINE SMOOTH",
"883 924 OFFCURVE",
"1049 978 OFFCURVE",
"1159 978 CURVE SMOOTH",
"1283 978 OFFCURVE",
"1387 920 OFFCURVE",
"1352 670 CURVE SMOOTH",
"1259 0 LINE",
"1329 0 LINE",
"1423 670 LINE SMOOTH",
"1471 1002 OFFCURVE",
"1297 1054 OFFCURVE",
"1169 1054 CURVE SMOOTH",
"1041 1054 OFFCURVE",
"927 990 OFFCURVE",
"852 882 CURVE",
"827 994 OFFCURVE",
"707 1054 OFFCURVE",
"597 1054 CURVE SMOOTH",
"449 1054 OFFCURVE",
"356 972 OFFCURVE",
"297 880 CURVE",
"318 1034 LINE",
"253 1034 LINE",
"108 0 LINE"
);
}
);
width = 1562;
}
);
leftKerningGroup = n;
leftMetricsKey = n;
rightKerningGroup = n;
rightMetricsKey = n;
unicode = 006D;
},
